<?xml version="1.0" encoding="UTF-8" standalone="no"?>
<!-- Created with Inkscape (http://www.inkscape.org/) -->

<svg
   xmlns:dc="http://purl.org/dc/elements/1.1/"
   xmlns:cc="http://creativecommons.org/ns#"
   xmlns:rdf="http://www.w3.org/1999/02/22-rdf-syntax-ns#"
   xmlns:svg="http://www.w3.org/2000/svg"
   xmlns="http://www.w3.org/2000/svg"
   xmlns:sodipodi="http://sodipodi.sourceforge.net/DTD/sodipodi-0.dtd"
   xmlns:inkscape="http://www.inkscape.org/namespaces/inkscape"
   width="15cm"
   height="5cm"
   viewBox="0 0 531.49606 177.16535"
   id="svg2"
   version="1.1"
   inkscape:version="0.91 r13725"
   sodipodi:docname="z_logo.svg"
   inkscape:export-filename="/Users/John/2017/winter/image_hosting/learn-blog/z_logo.png"
   inkscape:export-xdpi="50.0695"
   inkscape:export-ydpi="50.0695">
  <defs
     id="defs4" />
  <sodipodi:namedview
     id="base"
     pagecolor="#ffffff"
     bordercolor="#666666"
     borderopacity="1.0"
     inkscape:pageopacity="0.0"
     inkscape:pageshadow="2"
     inkscape:zoom="0.70000001"
     inkscape:cx="417.30083"
     inkscape:cy="160.24277"
     inkscape:document-units="cm"
     inkscape:current-layer="g4148"
     showgrid="true"
     inkscape:window-width="1440"
     inkscape:window-height="852"
     inkscape:window-x="45"
     inkscape:window-y="19"
     inkscape:window-maximized="0"
     units="cm">
    <inkscape:grid
       type="xygrid"
       id="grid4249"
       units="cm"
       spacingx="4.4291339"
       spacingy="4.429134" />
  </sodipodi:namedview>
  <metadata
     id="metadata7">
    <rdf:RDF>
      <cc:Work
         rdf:about="">
        <dc:format>image/svg+xml</dc:format>
        <dc:type
           rdf:resource="http://purl.org/dc/dcmitype/StillImage" />
        <dc:title></dc:title>
      </cc:Work>
    </rdf:RDF>
  </metadata>
  <g
     inkscape:label="Layer 1"
     inkscape:groupmode="layer"
     id="layer1"
     transform="translate(0,-875.1969)">
    <g
       id="g4148">
      <g
         id="g4449"
         transform="translate(-129.67189,315.68647)">
        <g
           transform="translate(-160,0)"
           id="g4265">
          <path
             style="color:#000000;font-style:normal;font-variant:normal;font-weight:normal;font-stretch:normal;font-size:medium;line-height:normal;font-family:sans-serif;text-indent:0;text-align:start;text-decoration:none;text-decoration-line:none;text-decoration-style:solid;text-decoration-color:#000000;letter-spacing:normal;word-spacing:normal;text-transform:none;direction:ltr;block-progression:tb;writing-mode:lr-tb;baseline-shift:baseline;text-anchor:start;white-space:normal;clip-rule:nonzero;display:inline;overflow:visible;visibility:visible;opacity:1;isolation:auto;mix-blend-mode:normal;color-interpolation:sRGB;color-interpolation-filters:linearRGB;solid-color:#000000;solid-opacity:1;fill:#7e0000;fill-opacity:1;fill-rule:nonzero;stroke:none;stroke-width:8.85826778;stroke-linecap:round;stroke-linejoin:round;stroke-miterlimit:4;stroke-dasharray:none;stroke-dashoffset:0;stroke-opacity:1;color-rendering:auto;image-rendering:auto;shape-rendering:auto;text-rendering:auto;enable-background:accumulate"
             d="m 323.43164,628.59375 a 4.4295768,4.4295768 0 0 0 -4.08594,2.7207 l -14.82226,35.4336 a 4.4298424,4.4298424 0 1 0 8.17383,3.41797 l 13.68164,-32.7129 43.51953,0 49.23633,16.41016 -4.12696,66.03906 a 4.4295768,4.4295768 0 0 0 4.41992,4.70508 l 26.39649,0 a 4.4295768,4.4295768 0 0 0 4.41992,-4.70508 l -4.11719,-65.88672 49.23243,-16.5625 40.82812,0 16.49219,32.98438 a 4.4295768,4.4295768 0 1 0 7.92383,-3.96094 l -17.7168,-35.43359 a 4.4295768,4.4295768 0 0 0 -3.96094,-2.44922 l -44.29101,0 a 4.4295768,4.4295768 0 0 0 -1.41407,0.23242 l -51.9707,17.48438 -16.76758,0 -52.46289,-17.48828 a 4.4295768,4.4295768 0 0 0 -1.40234,-0.22852 l -47.18555,0 z"
             id="path4263"
             inkscape:connector-curvature="0" />
          <path
             id="path4322"
             d="m 547.79062,656.52214 c -0.19963,0.002 -0.39854,0.0246 -0.59375,0.0664 l -88.58398,17.7168 c -1.40227,0.28035 -2.41179,1.51138 -2.41211,2.9414 l 0,17.7168 c 1.7e-4,1.65679 1.34321,2.99983 3,3 25.39239,0.007 81.64648,-0.66406 81.64648,-0.66406 l 4.02735,16.10742 c 0.91146,3.97677 6.8875,2.48276 5.82031,-1.45508 l -8.85742,-35.43359 c -0.24942,-0.99484 -0.98973,-1.79335 -1.96289,-2.11719 l -19.17969,-6.39453 27.67774,-5.53516 c 3.60211,-0.67433 3.08247,-5.98582 -0.58204,-5.94922 z m -30.20703,16.77344 18.83203,6.27735 3.11133,12.4414 c 0,0 -13.68009,0.10863 -20.46679,-0.0508 l 3.73632,-3.73633 c 0.91633,-0.91559 1.14158,-2.31588 0.5586,-3.47265 l -5.77149,-11.45899 z m -22.90429,0.9082 c 1.65609,0.0248 2.97881,1.38687 2.95507,3.04297 l 0,8.85743 c 0.0574,4.05697 -6.05738,4.05697 -6,0 l 0,-8.85743 c -0.0242,-1.6913 1.35365,-3.06829 3.04493,-3.04297 z m -15.28907,2.06446 -5.49414,8.16211 c -0.79688,1.18366 -0.64989,2.7648 0.35157,3.78125 l 3.69921,3.75195 -15.74609,0 0,-12.25781 17.18945,-3.4375 z"
             style="color:#000000;font-style:normal;font-variant:normal;font-weight:normal;font-stretch:normal;font-size:medium;line-height:normal;font-family:sans-serif;text-indent:0;text-align:start;text-decoration:none;text-decoration-line:none;text-decoration-style:solid;text-decoration-color:#000000;letter-spacing:normal;word-spacing:normal;text-transform:none;direction:ltr;block-progression:tb;writing-mode:lr-tb;baseline-shift:baseline;text-anchor:start;white-space:normal;clip-rule:nonzero;display:inline;overflow:visible;visibility:visible;opacity:1;isolation:auto;mix-blend-mode:normal;color-interpolation:sRGB;color-interpolation-filters:linearRGB;solid-color:#000000;solid-opacity:1;fill:#7e0000;fill-opacity:1;fill-rule:nonzero;stroke:none;stroke-width:8.85826778;stroke-linecap:round;stroke-linejoin:round;stroke-miterlimit:4;stroke-dasharray:none;stroke-dashoffset:0;stroke-opacity:1;color-rendering:auto;image-rendering:auto;shape-rendering:auto;text-rendering:auto;enable-background:accumulate"
             inkscape:connector-curvature="0" />
          <path
             inkscape:connector-curvature="0"
             style="color:#000000;font-style:normal;font-variant:normal;font-weight:normal;font-stretch:normal;font-size:medium;line-height:normal;font-family:sans-serif;text-indent:0;text-align:start;text-decoration:none;text-decoration-line:none;text-decoration-style:solid;text-decoration-color:#000000;letter-spacing:normal;word-spacing:normal;text-transform:none;direction:ltr;block-progression:tb;writing-mode:lr-tb;baseline-shift:baseline;text-anchor:start;white-space:normal;clip-rule:nonzero;display:inline;overflow:visible;visibility:visible;opacity:1;isolation:auto;mix-blend-mode:normal;color-interpolation:sRGB;color-interpolation-filters:linearRGB;solid-color:#000000;solid-opacity:1;fill:#7e0000;fill-opacity:1;fill-rule:nonzero;stroke:none;stroke-width:8.85826778;stroke-linecap:round;stroke-linejoin:round;stroke-miterlimit:4;stroke-dasharray:none;stroke-dashoffset:0;stroke-opacity:1;color-rendering:auto;image-rendering:auto;shape-rendering:auto;text-rendering:auto;enable-background:accumulate"
             d="m 317.50011,656.52214 c 0.19963,0.002 0.39854,0.0246 0.59375,0.0664 l 88.58398,17.7168 c 1.40227,0.28035 2.41179,1.51138 2.41211,2.9414 l 0,17.7168 c -1.7e-4,1.65679 -1.34321,2.99983 -3,3 -25.39239,0.007 -81.64648,-0.66406 -81.64648,-0.66406 l -4.02735,16.10742 c -0.91146,3.97677 -6.8875,2.48276 -5.82031,-1.45508 l 8.85742,-35.43359 c 0.24942,-0.99484 0.98973,-1.79335 1.96289,-2.11719 l 19.17969,-6.39453 -27.67774,-5.53516 c -3.60211,-0.67433 -3.08247,-5.98582 0.58204,-5.94922 z m 30.20703,16.77344 -18.83203,6.27735 -3.11133,12.4414 c 0,0 13.68009,0.10863 20.46679,-0.0508 l -3.73632,-3.73633 c -0.91633,-0.91559 -1.14158,-2.31588 -0.5586,-3.47265 l 5.77149,-11.45899 z m 22.90429,0.9082 c -1.65609,0.0248 -2.97881,1.38687 -2.95507,3.04297 l 0,8.85743 c -0.0574,4.05697 6.05738,4.05697 6,0 l 0,-8.85743 c 0.0242,-1.6913 -1.35365,-3.06829 -3.04493,-3.04297 z m 15.28907,2.06446 5.49414,8.16211 c 0.79688,1.18366 0.64989,2.7648 -0.35157,3.78125 l -3.69921,3.75195 15.74609,0 0,-12.25781 -17.18945,-3.4375 z"
             id="path4385" />
        </g>
        <g
           id="g4355">
          <path
             style="color:#000000;clip-rule:nonzero;display:inline;overflow:visible;visibility:visible;opacity:1;isolation:auto;mix-blend-mode:normal;color-interpolation:sRGB;color-interpolation-filters:linearRGB;solid-color:#000000;solid-opacity:1;fill:none;fill-opacity:1;fill-rule:nonzero;stroke:#7e0000;stroke-width:7.08661413;stroke-linecap:round;stroke-linejoin:round;stroke-miterlimit:4;stroke-dasharray:none;stroke-dashoffset:0;stroke-opacity:1;color-rendering:auto;image-rendering:auto;shape-rendering:auto;text-rendering:auto;enable-background:accumulate"
             d="m 165.1177,575.17256 0,44.18646 35.34915,0"
             id="path4172-0"
             inkscape:connector-curvature="0" />
          <path
             inkscape:connector-curvature="0"
             id="path4178-5"
             style="color:#000000;clip-rule:nonzero;display:inline;overflow:visible;visibility:visible;opacity:1;isolation:auto;mix-blend-mode:normal;color-interpolation:sRGB;color-interpolation-filters:linearRGB;solid-color:#000000;solid-opacity:1;fill:none;fill-opacity:1;fill-rule:nonzero;stroke:#7e0000;stroke-width:7.08661413;stroke-linecap:round;stroke-linejoin:round;stroke-miterlimit:4;stroke-dasharray:none;stroke-dashoffset:0;stroke-opacity:1;color-rendering:auto;image-rendering:auto;shape-rendering:auto;text-rendering:auto;enable-background:accumulate"
             d="m 235.816,601.68445 -26.51187,0 m 35.34915,-26.51189 -35.34915,0 0,44.18646 35.34915,0" />
          <path
             inkscape:connector-curvature="0"
             id="path4182-1"
             style="color:#000000;clip-rule:nonzero;display:inline;overflow:visible;visibility:visible;opacity:1;isolation:auto;mix-blend-mode:normal;color-interpolation:sRGB;color-interpolation-filters:linearRGB;solid-color:#000000;solid-opacity:1;fill:none;fill-opacity:1;fill-rule:nonzero;stroke:#7e0000;stroke-width:7.08661413;stroke-linecap:round;stroke-linejoin:round;stroke-miterlimit:4;stroke-dasharray:none;stroke-dashoffset:0;stroke-opacity:1;color-rendering:auto;image-rendering:auto;shape-rendering:auto;text-rendering:auto;enable-background:accumulate"
             d="m 253.49058,601.68445 17.67459,-26.51189 17.67456,0 0,26.51189 m -35.34915,17.67457 0,-17.67457 35.34915,0 0,17.67457" />
          <path
             inkscape:connector-curvature="0"
             id="path4192-2"
             style="color:#000000;clip-rule:nonzero;display:inline;overflow:visible;visibility:visible;opacity:1;isolation:auto;mix-blend-mode:normal;color-interpolation:sRGB;color-interpolation-filters:linearRGB;solid-color:#000000;solid-opacity:1;fill:none;fill-opacity:1;fill-rule:nonzero;stroke:#7e0000;stroke-width:7.08661413;stroke-linecap:round;stroke-linejoin:round;stroke-miterlimit:4;stroke-dasharray:none;stroke-dashoffset:0;stroke-opacity:1;color-rendering:auto;image-rendering:auto;shape-rendering:auto;text-rendering:auto;enable-background:accumulate"
             d="m 333.02618,584.00987 -8.83728,-8.83731 -26.51187,0 m 26.51187,26.51189 8.83728,-17.67458 m -35.34915,17.67458 26.51187,0 8.83728,17.67457 m -35.34915,0 0,-44.18646" />
          <path
             style="color:#000000;clip-rule:nonzero;display:inline;overflow:visible;visibility:visible;opacity:1;isolation:auto;mix-blend-mode:normal;color-interpolation:sRGB;color-interpolation-filters:linearRGB;solid-color:#000000;solid-opacity:1;fill:none;fill-opacity:1;fill-rule:nonzero;stroke:#7e0000;stroke-width:7.08661413;stroke-linecap:round;stroke-linejoin:round;stroke-miterlimit:4;stroke-dasharray:none;stroke-dashoffset:0;stroke-opacity:1;color-rendering:auto;image-rendering:auto;shape-rendering:auto;text-rendering:auto;enable-background:accumulate"
             d="m 341.86349,619.35902 0,-44.18646 35.34916,44.18646 0,-44.18646"
             id="path4194-0"
             inkscape:connector-curvature="0" />
        </g>
        <g
           id="g4351">
          <path
             inkscape:connector-curvature="0"
             id="path4206-1"
             style="color:#000000;clip-rule:nonzero;display:inline;overflow:visible;visibility:visible;opacity:1;isolation:auto;mix-blend-mode:normal;color-interpolation:sRGB;color-interpolation-filters:linearRGB;solid-color:#000000;solid-opacity:1;fill:none;fill-opacity:1;fill-rule:nonzero;stroke:#7e0000;stroke-width:8.85826778;stroke-linecap:round;stroke-linejoin:round;stroke-miterlimit:4;stroke-dasharray:none;stroke-dashoffset:0;stroke-opacity:1;color-rendering:auto;image-rendering:auto;shape-rendering:auto;text-rendering:auto;enable-background:accumulate"
             d="m 418.54917,628.48081 35.37665,0 17.68836,17.68838 0,35.37669 m -53.06501,-53.06507 0,88.44173 70.75335,0 0,-35.37666 -70.75335,0" />
          <path
             style="color:#000000;clip-rule:nonzero;display:inline;overflow:visible;visibility:visible;opacity:1;isolation:auto;mix-blend-mode:normal;color-interpolation:sRGB;color-interpolation-filters:linearRGB;solid-color:#000000;solid-opacity:1;fill:none;fill-opacity:1;fill-rule:nonzero;stroke:#7e0000;stroke-width:8.85826778;stroke-linecap:round;stroke-linejoin:round;stroke-miterlimit:4;stroke-dasharray:none;stroke-dashoffset:0;stroke-opacity:1;color-rendering:auto;image-rendering:auto;shape-rendering:auto;text-rendering:auto;enable-background:accumulate"
             d="m 506.99088,628.48081 0,88.44173 70.75336,0"
             id="path4208-8"
             inkscape:connector-curvature="0" />
        </g>
        <g
           transform="translate(0,-0.42156898)"
           id="g4347">
          <path
             style="color:#000000;clip-rule:nonzero;display:inline;overflow:visible;visibility:visible;opacity:1;isolation:auto;mix-blend-mode:normal;color-interpolation:sRGB;color-interpolation-filters:linearRGB;solid-color:#000000;solid-opacity:1;fill:none;fill-opacity:1;fill-rule:nonzero;stroke:#7e0000;stroke-width:8.85826778;stroke-linecap:round;stroke-linejoin:round;stroke-miterlimit:4;stroke-dasharray:none;stroke-dashoffset:0;stroke-opacity:1;color-rendering:auto;image-rendering:auto;shape-rendering:auto;text-rendering:auto;enable-background:accumulate"
             d="m 547.71709,628.83974 23.61252,0 11.80624,35.41878 -11.80624,23.6125 -23.61252,0 -11.80624,-23.6125 z"
             id="path4210-0"
             inkscape:connector-curvature="0" />
          <path
             style="color:#000000;clip-rule:nonzero;display:inline;overflow:visible;visibility:visible;opacity:1;isolation:auto;mix-blend-mode:normal;color-interpolation:sRGB;color-interpolation-filters:linearRGB;solid-color:#000000;solid-opacity:1;fill:none;fill-opacity:1;fill-rule:nonzero;stroke:#7e0000;stroke-width:8.85826778;stroke-linecap:round;stroke-linejoin:round;stroke-miterlimit:4;stroke-dasharray:none;stroke-dashoffset:0;stroke-opacity:1;color-rendering:auto;image-rendering:auto;shape-rendering:auto;text-rendering:auto;enable-background:accumulate"
             d="m 642.16711,628.83974 -23.61251,0 -23.61251,35.41878 11.80626,23.6125 35.41876,0 0,-23.6125 -23.61251,0"
             id="path4212-5"
             inkscape:connector-curvature="0" />
        </g>
        <path
           inkscape:connector-curvature="0"
           id="path4368"
           d="m 419.37185,573.12916 a 2.1476635,2.1476635 0 0 0 -2.14724,2.14843 l 0,13.42087 a 2.1476635,2.1476635 0 0 0 2.14724,2.14724 l 13.42205,0 a 2.1476635,2.1476635 0 0 0 2.14725,-2.14724 l 0,-8.05276 a 2.1476635,2.1476635 0 0 0 -0.62974,-1.51869 l -5.3681,-5.36812 a 2.1476635,2.1476635 0 0 0 -1.5187,-0.62973 l -8.05276,0 z"
           style="color:#000000;font-style:normal;font-variant:normal;font-weight:normal;font-stretch:normal;font-size:medium;line-height:normal;font-family:sans-serif;text-indent:0;text-align:start;text-decoration:none;text-decoration-line:none;text-decoration-style:solid;text-decoration-color:#000000;letter-spacing:normal;word-spacing:normal;text-transform:none;direction:ltr;block-progression:tb;writing-mode:lr-tb;baseline-shift:baseline;text-anchor:start;white-space:normal;clip-rule:nonzero;display:inline;overflow:visible;visibility:visible;opacity:1;isolation:auto;mix-blend-mode:normal;color-interpolation:sRGB;color-interpolation-filters:linearRGB;solid-color:#000000;solid-opacity:1;fill:#7e0000;fill-opacity:1;fill-rule:nonzero;stroke:none;stroke-width:7.08661413;stroke-linecap:round;stroke-linejoin:round;stroke-miterlimit:4;stroke-dasharray:none;stroke-dashoffset:0;stroke-opacity:1;color-rendering:auto;image-rendering:auto;shape-rendering:auto;text-rendering:auto;enable-background:accumulate" />
        <path
           style="color:#000000;font-style:normal;font-variant:normal;font-weight:normal;font-stretch:normal;font-size:medium;line-height:normal;font-family:sans-serif;text-indent:0;text-align:start;text-decoration:none;text-decoration-line:none;text-decoration-style:solid;text-decoration-color:#000000;letter-spacing:normal;word-spacing:normal;text-transform:none;direction:ltr;block-progression:tb;writing-mode:lr-tb;baseline-shift:baseline;text-anchor:start;white-space:normal;clip-rule:nonzero;display:inline;overflow:visible;visibility:visible;opacity:1;isolation:auto;mix-blend-mode:normal;color-interpolation:sRGB;color-interpolation-filters:linearRGB;solid-color:#000000;solid-opacity:1;fill:#7e0000;fill-opacity:1;fill-rule:nonzero;stroke:none;stroke-width:7.08661413;stroke-linecap:round;stroke-linejoin:round;stroke-miterlimit:4;stroke-dasharray:none;stroke-dashoffset:0;stroke-opacity:1;color-rendering:auto;image-rendering:auto;shape-rendering:auto;text-rendering:auto;enable-background:accumulate"
           d="m 459.37185,573.12916 a 2.1476635,2.1476635 0 0 0 -2.14724,2.14843 l 0,13.42087 a 2.1476635,2.1476635 0 0 0 2.14724,2.14724 l 13.42205,0 a 2.1476635,2.1476635 0 0 0 2.14725,-2.14724 l 0,-8.05276 a 2.1476635,2.1476635 0 0 0 -0.62974,-1.51869 l -5.3681,-5.36812 a 2.1476635,2.1476635 0 0 0 -1.5187,-0.62973 l -8.05276,0 z"
           id="path4370"
           inkscape:connector-curvature="0" />
        <path
           inkscape:connector-curvature="0"
           id="path4372"
           d="m 499.37185,573.12916 a 2.1476635,2.1476635 0 0 0 -2.14724,2.14843 l 0,13.42087 a 2.1476635,2.1476635 0 0 0 2.14724,2.14724 l 13.42205,0 a 2.1476635,2.1476635 0 0 0 2.14725,-2.14724 l 0,-8.05276 a 2.1476635,2.1476635 0 0 0 -0.62974,-1.51869 l -5.3681,-5.36812 a 2.1476635,2.1476635 0 0 0 -1.5187,-0.62973 l -8.05276,0 z"
           style="color:#000000;font-style:normal;font-variant:normal;font-weight:normal;font-stretch:normal;font-size:medium;line-height:normal;font-family:sans-serif;text-indent:0;text-align:start;text-decoration:none;text-decoration-line:none;text-decoration-style:solid;text-decoration-color:#000000;letter-spacing:normal;word-spacing:normal;text-transform:none;direction:ltr;block-progression:tb;writing-mode:lr-tb;baseline-shift:baseline;text-anchor:start;white-space:normal;clip-rule:nonzero;display:inline;overflow:visible;visibility:visible;opacity:1;isolation:auto;mix-blend-mode:normal;color-interpolation:sRGB;color-interpolation-filters:linearRGB;solid-color:#000000;solid-opacity:1;fill:#7e0000;fill-opacity:1;fill-rule:nonzero;stroke:none;stroke-width:7.08661413;stroke-linecap:round;stroke-linejoin:round;stroke-miterlimit:4;stroke-dasharray:none;stroke-dashoffset:0;stroke-opacity:1;color-rendering:auto;image-rendering:auto;shape-rendering:auto;text-rendering:auto;enable-background:accumulate" />
        <path
           style="color:#000000;font-style:normal;font-variant:normal;font-weight:normal;font-stretch:normal;font-size:medium;line-height:normal;font-family:sans-serif;text-indent:0;text-align:start;text-decoration:none;text-decoration-line:none;text-decoration-style:solid;text-decoration-color:#000000;letter-spacing:normal;word-spacing:normal;text-transform:none;direction:ltr;block-progression:tb;writing-mode:lr-tb;baseline-shift:baseline;text-anchor:start;white-space:normal;clip-rule:nonzero;display:inline;overflow:visible;visibility:visible;opacity:1;isolation:auto;mix-blend-mode:normal;color-interpolation:sRGB;color-interpolation-filters:linearRGB;solid-color:#000000;solid-opacity:1;fill:#7e0000;fill-opacity:1;fill-rule:nonzero;stroke:none;stroke-width:7.08661413;stroke-linecap:round;stroke-linejoin:round;stroke-miterlimit:4;stroke-dasharray:none;stroke-dashoffset:0;stroke-opacity:1;color-rendering:auto;image-rendering:auto;shape-rendering:auto;text-rendering:auto;enable-background:accumulate"
           d="m 539.37185,573.12916 a 2.1476635,2.1476635 0 0 0 -2.14724,2.14843 l 0,13.42087 a 2.1476635,2.1476635 0 0 0 2.14724,2.14724 l 13.42205,0 a 2.1476635,2.1476635 0 0 0 2.14725,-2.14724 l 0,-8.05276 a 2.1476635,2.1476635 0 0 0 -0.62974,-1.51869 l -5.3681,-5.36812 a 2.1476635,2.1476635 0 0 0 -1.5187,-0.62973 l -8.05276,0 z"
           id="path4374"
           inkscape:connector-curvature="0" />
        <path
           inkscape:connector-curvature="0"
           id="path4376"
           d="m 579.37185,573.12916 a 2.1476635,2.1476635 0 0 0 -2.14724,2.14843 l 0,13.42087 a 2.1476635,2.1476635 0 0 0 2.14724,2.14724 l 13.42205,0 a 2.1476635,2.1476635 0 0 0 2.14725,-2.14724 l 0,-8.05276 a 2.1476635,2.1476635 0 0 0 -0.62974,-1.51869 l -5.3681,-5.36812 a 2.1476635,2.1476635 0 0 0 -1.5187,-0.62973 l -8.05276,0 z"
           style="color:#000000;font-style:normal;font-variant:normal;font-weight:normal;font-stretch:normal;font-size:medium;line-height:normal;font-family:sans-serif;text-indent:0;text-align:start;text-decoration:none;text-decoration-line:none;text-decoration-style:solid;text-decoration-color:#000000;letter-spacing:normal;word-spacing:normal;text-transform:none;direction:ltr;block-progression:tb;writing-mode:lr-tb;baseline-shift:baseline;text-anchor:start;white-space:normal;clip-rule:nonzero;display:inline;overflow:visible;visibility:visible;opacity:1;isolation:auto;mix-blend-mode:normal;color-interpolation:sRGB;color-interpolation-filters:linearRGB;solid-color:#000000;solid-opacity:1;fill:#7e0000;fill-opacity:1;fill-rule:nonzero;stroke:none;stroke-width:7.08661413;stroke-linecap:round;stroke-linejoin:round;stroke-miterlimit:4;stroke-dasharray:none;stroke-dashoffset:0;stroke-opacity:1;color-rendering:auto;image-rendering:auto;shape-rendering:auto;text-rendering:auto;enable-background:accumulate" />
        <path
           style="color:#000000;font-style:normal;font-variant:normal;font-weight:normal;font-stretch:normal;font-size:medium;line-height:normal;font-family:sans-serif;text-indent:0;text-align:start;text-decoration:none;text-decoration-line:none;text-decoration-style:solid;text-decoration-color:#000000;letter-spacing:normal;word-spacing:normal;text-transform:none;direction:ltr;block-progression:tb;writing-mode:lr-tb;baseline-shift:baseline;text-anchor:start;white-space:normal;clip-rule:nonzero;display:inline;overflow:visible;visibility:visible;opacity:1;isolation:auto;mix-blend-mode:normal;color-interpolation:sRGB;color-interpolation-filters:linearRGB;solid-color:#000000;solid-opacity:1;fill:#7e0000;fill-opacity:1;fill-rule:nonzero;stroke:none;stroke-width:7.08661413;stroke-linecap:round;stroke-linejoin:round;stroke-miterlimit:4;stroke-dasharray:none;stroke-dashoffset:0;stroke-opacity:1;color-rendering:auto;image-rendering:auto;shape-rendering:auto;text-rendering:auto;enable-background:accumulate"
           d="m 619.37185,573.12916 a 2.1476635,2.1476635 0 0 0 -2.14724,2.14843 l 0,13.42087 a 2.1476635,2.1476635 0 0 0 2.14724,2.14724 l 13.42205,0 a 2.1476635,2.1476635 0 0 0 2.14725,-2.14724 l 0,-8.05276 a 2.1476635,2.1476635 0 0 0 -0.62974,-1.51869 l -5.3681,-5.36812 a 2.1476635,2.1476635 0 0 0 -1.5187,-0.62973 l -8.05276,0 z"
           id="path4378"
           inkscape:connector-curvature="0" />
        <path
           inkscape:connector-curvature="0"
           id="path4388"
           d="m 425.19685,587.30314 0,39.86221"
           style="color:#000000;clip-rule:nonzero;display:inline;overflow:visible;visibility:visible;opacity:1;isolation:auto;mix-blend-mode:normal;color-interpolation:sRGB;color-interpolation-filters:linearRGB;solid-color:#000000;solid-opacity:1;fill:#7e0000;fill-opacity:1;fill-rule:nonzero;stroke:#7e0000;stroke-width:4.42913389;stroke-linecap:round;stroke-linejoin:round;stroke-miterlimit:4;stroke-dasharray:none;stroke-dashoffset:0;stroke-opacity:1;color-rendering:auto;image-rendering:auto;shape-rendering:auto;text-rendering:auto;enable-background:accumulate" />
        <path
           inkscape:connector-curvature="0"
           id="path4390"
           d="m 465.05906,587.30314 0,48.72048"
           style="color:#000000;clip-rule:nonzero;display:inline;overflow:visible;visibility:visible;opacity:1;isolation:auto;mix-blend-mode:normal;color-interpolation:sRGB;color-interpolation-filters:linearRGB;solid-color:#000000;solid-opacity:1;fill:#7e0000;fill-opacity:1;fill-rule:nonzero;stroke:#7e0000;stroke-width:4.42913389;stroke-linecap:round;stroke-linejoin:round;stroke-miterlimit:4;stroke-dasharray:none;stroke-dashoffset:0;stroke-opacity:1;color-rendering:auto;image-rendering:auto;shape-rendering:auto;text-rendering:auto;enable-background:accumulate" />
        <path
           inkscape:connector-curvature="0"
           id="path4392"
           d="m 504.92126,587.30314 0,44.29134"
           style="color:#000000;clip-rule:nonzero;display:inline;overflow:visible;visibility:visible;opacity:1;isolation:auto;mix-blend-mode:normal;color-interpolation:sRGB;color-interpolation-filters:linearRGB;solid-color:#000000;solid-opacity:1;fill:#7e0000;fill-opacity:1;fill-rule:nonzero;stroke:#7e0000;stroke-width:4.42913389;stroke-linecap:round;stroke-linejoin:round;stroke-miterlimit:4;stroke-dasharray:none;stroke-dashoffset:0;stroke-opacity:1;color-rendering:auto;image-rendering:auto;shape-rendering:auto;text-rendering:auto;enable-background:accumulate" />
        <path
           inkscape:connector-curvature="0"
           id="path4394"
           d="m 544.78347,587.30314 -39.86221,31.00394"
           style="color:#000000;clip-rule:nonzero;display:inline;overflow:visible;visibility:visible;opacity:1;isolation:auto;mix-blend-mode:normal;color-interpolation:sRGB;color-interpolation-filters:linearRGB;solid-color:#000000;solid-opacity:1;fill:#7e0000;fill-opacity:1;fill-rule:nonzero;stroke:#7e0000;stroke-width:4.42913389;stroke-linecap:round;stroke-linejoin:round;stroke-miterlimit:4;stroke-dasharray:none;stroke-dashoffset:0;stroke-opacity:1;color-rendering:auto;image-rendering:auto;shape-rendering:auto;text-rendering:auto;enable-background:accumulate" />
        <path
           inkscape:connector-curvature="0"
           id="path4396"
           d="m 584.64567,587.30314 -8.85827,44.29134"
           style="color:#000000;clip-rule:nonzero;display:inline;overflow:visible;visibility:visible;opacity:1;isolation:auto;mix-blend-mode:normal;color-interpolation:sRGB;color-interpolation-filters:linearRGB;solid-color:#000000;solid-opacity:1;fill:#7e0000;fill-opacity:1;fill-rule:nonzero;stroke:#7e0000;stroke-width:4.42913389;stroke-linecap:round;stroke-linejoin:round;stroke-miterlimit:4;stroke-dasharray:none;stroke-dashoffset:0;stroke-opacity:1;color-rendering:auto;image-rendering:auto;shape-rendering:auto;text-rendering:auto;enable-background:accumulate" />
        <path
           inkscape:connector-curvature="0"
           id="path4406"
           d="m 580.21654,600.59055 -26.57481,26.5748"
           style="color:#000000;clip-rule:nonzero;display:inline;overflow:visible;visibility:visible;opacity:1;isolation:auto;mix-blend-mode:normal;color-interpolation:sRGB;color-interpolation-filters:linearRGB;solid-color:#000000;solid-opacity:1;fill:#7e0000;fill-opacity:1;fill-rule:nonzero;stroke:#7e0000;stroke-width:4.42913389;stroke-linecap:round;stroke-linejoin:round;stroke-miterlimit:4;stroke-dasharray:none;stroke-dashoffset:0;stroke-opacity:1;color-rendering:auto;image-rendering:auto;shape-rendering:auto;text-rendering:auto;enable-background:accumulate" />
        <path
           inkscape:connector-curvature="0"
           id="path4412"
           d="m 624.50788,587.30314 0,39.86221"
           style="color:#000000;clip-rule:nonzero;display:inline;overflow:visible;visibility:visible;opacity:1;isolation:auto;mix-blend-mode:normal;color-interpolation:sRGB;color-interpolation-filters:linearRGB;solid-color:#000000;solid-opacity:1;fill:#7e0000;fill-opacity:1;fill-rule:nonzero;stroke:#7e0000;stroke-width:4.42913389;stroke-linecap:round;stroke-linejoin:round;stroke-miterlimit:4;stroke-dasharray:none;stroke-dashoffset:0;stroke-opacity:1;color-rendering:auto;image-rendering:auto;shape-rendering:auto;text-rendering:auto;enable-background:accumulate" />
        <path
           inkscape:connector-curvature="0"
           id="path4414"
           d="m 624.50788,600.59055 -39.86221,57.57874"
           style="color:#000000;clip-rule:nonzero;display:inline;overflow:visible;visibility:visible;opacity:1;isolation:auto;mix-blend-mode:normal;color-interpolation:sRGB;color-interpolation-filters:linearRGB;solid-color:#000000;solid-opacity:1;fill:#7e0000;fill-opacity:1;fill-rule:nonzero;stroke:#7e0000;stroke-width:4.42913389;stroke-linecap:round;stroke-linejoin:round;stroke-miterlimit:4;stroke-dasharray:none;stroke-dashoffset:0;stroke-opacity:1;color-rendering:auto;image-rendering:auto;shape-rendering:auto;text-rendering:auto;enable-background:accumulate" />
        <path
           inkscape:connector-curvature="0"
           id="path4418"
           d="m 487.20473,680.31496 22.14566,35.43307"
           style="color:#000000;clip-rule:nonzero;display:inline;overflow:visible;visibility:visible;opacity:1;isolation:auto;mix-blend-mode:normal;color-interpolation:sRGB;color-interpolation-filters:linearRGB;solid-color:#000000;solid-opacity:1;fill:#7e0000;fill-opacity:1;fill-rule:nonzero;stroke:#7e0000;stroke-width:4.42913389;stroke-linecap:round;stroke-linejoin:round;stroke-miterlimit:4;stroke-dasharray:none;stroke-dashoffset:0;stroke-opacity:1;color-rendering:auto;image-rendering:auto;shape-rendering:auto;text-rendering:auto;enable-background:accumulate" />
        <path
           inkscape:connector-curvature="0"
           id="path4420"
           d="m 491.63386,715.74803 17.71653,0"
           style="color:#000000;clip-rule:nonzero;display:inline;overflow:visible;visibility:visible;opacity:1;isolation:auto;mix-blend-mode:normal;color-interpolation:sRGB;color-interpolation-filters:linearRGB;solid-color:#000000;solid-opacity:1;fill:#7e0000;fill-opacity:1;fill-rule:nonzero;stroke:#7e0000;stroke-width:4.42913389;stroke-linecap:round;stroke-linejoin:round;stroke-miterlimit:4;stroke-dasharray:none;stroke-dashoffset:0;stroke-opacity:1;color-rendering:auto;image-rendering:auto;shape-rendering:auto;text-rendering:auto;enable-background:accumulate" />
        <path
           inkscape:connector-curvature="0"
           id="path4424"
           d="m 553.64173,689.17322 0,26.57481"
           style="color:#000000;clip-rule:nonzero;display:inline;overflow:visible;visibility:visible;opacity:1;isolation:auto;mix-blend-mode:normal;color-interpolation:sRGB;color-interpolation-filters:linearRGB;solid-color:#000000;solid-opacity:1;fill:#7e0000;fill-opacity:1;fill-rule:nonzero;stroke:#7e0000;stroke-width:4.42913389;stroke-linecap:round;stroke-linejoin:round;stroke-miterlimit:4;stroke-dasharray:none;stroke-dashoffset:0;stroke-opacity:1;color-rendering:auto;image-rendering:auto;shape-rendering:auto;text-rendering:auto;enable-background:accumulate" />
        <path
           inkscape:connector-curvature="0"
           id="path4426"
           d="M 597.93307,671.45669 575.7874,715.74803"
           style="color:#000000;clip-rule:nonzero;display:inline;overflow:visible;visibility:visible;opacity:1;isolation:auto;mix-blend-mode:normal;color-interpolation:sRGB;color-interpolation-filters:linearRGB;solid-color:#000000;solid-opacity:1;fill:#7e0000;fill-opacity:1;fill-rule:nonzero;stroke:#7e0000;stroke-width:4.42913389;stroke-linecap:round;stroke-linejoin:round;stroke-miterlimit:4;stroke-dasharray:none;stroke-dashoffset:0;stroke-opacity:1;color-rendering:auto;image-rendering:auto;shape-rendering:auto;text-rendering:auto;enable-background:accumulate" />
        <path
           style="color:#000000;font-style:normal;font-variant:normal;font-weight:normal;font-stretch:normal;font-size:medium;line-height:normal;font-family:sans-serif;text-indent:0;text-align:start;text-decoration:none;text-decoration-line:none;text-decoration-style:solid;text-decoration-color:#000000;letter-spacing:normal;word-spacing:normal;text-transform:none;direction:ltr;block-progression:tb;writing-mode:lr-tb;baseline-shift:baseline;text-anchor:start;white-space:normal;clip-rule:nonzero;display:inline;overflow:visible;visibility:visible;opacity:1;isolation:auto;mix-blend-mode:normal;color-interpolation:sRGB;color-interpolation-filters:linearRGB;solid-color:#000000;solid-opacity:1;fill:#7e0000;fill-opacity:1;fill-rule:nonzero;stroke:none;stroke-width:7.08661413;stroke-linecap:round;stroke-linejoin:round;stroke-miterlimit:4;stroke-dasharray:none;stroke-dashoffset:0;stroke-opacity:1;color-rendering:auto;image-rendering:auto;shape-rendering:auto;text-rendering:auto;enable-background:accumulate"
           d="m 627.37185,703.12916 a 2.1476635,2.1476635 0 0 0 -2.14724,2.14843 l 0,13.42087 a 2.1476635,2.1476635 0 0 0 2.14724,2.14724 l 13.42205,0 a 2.1476635,2.1476635 0 0 0 2.14725,-2.14724 l 0,-8.05276 a 2.1476635,2.1476635 0 0 0 -0.62974,-1.51869 l -5.3681,-5.36812 a 2.1476635,2.1476635 0 0 0 -1.5187,-0.62973 l -8.05276,0 z"
           id="path4428"
           inkscape:connector-curvature="0" />
        <path
           sodipodi:nodetypes="ccccccsscccccc"
           inkscape:connector-curvature="0"
           id="path4430"
           d="m 606.75781,704.64453 c -0.21897,0.004 -0.43618,0.0399 -0.64453,0.10742 -0.0262,0.009 -0.0523,0.0177 -0.0781,0.0274 -0.0461,0.0161 -0.0917,0.0336 -0.13672,0.0527 -0.91926,0.39323 -1.46106,1.3536 -1.32227,2.34375 l 0,6.35742 -28.78906,0 c -2.95313,0 -2.95313,4.42969 0,4.42969 l 31.06836,0 8.51758,0 c 2.05327,0.27793 3.32982,-2.16407 1.92968,-3.69141 -0.0284,-0.0308 -0.0577,-0.0607 -0.0879,-0.0898 l -8.66601,-8.66602 c -0.42542,-0.55755 -1.08977,-0.88067 -1.79102,-0.87109 z"
           style="color:#000000;font-style:normal;font-variant:normal;font-weight:normal;font-stretch:normal;font-size:medium;line-height:normal;font-family:sans-serif;text-indent:0;text-align:start;text-decoration:none;text-decoration-line:none;text-decoration-style:solid;text-decoration-color:#000000;letter-spacing:normal;word-spacing:normal;text-transform:none;direction:ltr;block-progression:tb;writing-mode:lr-tb;baseline-shift:baseline;text-anchor:start;white-space:normal;clip-rule:nonzero;display:inline;overflow:visible;visibility:visible;opacity:1;isolation:auto;mix-blend-mode:normal;color-interpolation:sRGB;color-interpolation-filters:linearRGB;solid-color:#000000;solid-opacity:1;fill:#7e0000;fill-opacity:1;fill-rule:nonzero;stroke:none;stroke-width:4.42913389;stroke-linecap:round;stroke-linejoin:round;stroke-miterlimit:4;stroke-dasharray:none;stroke-dashoffset:0;stroke-opacity:1;color-rendering:auto;image-rendering:auto;shape-rendering:auto;text-rendering:auto;enable-background:accumulate" />
      </g>
    </g>
  </g>
</svg>
