<?xml version="1.0" encoding="UTF-8" standalone="no"?>
<!-- Created with Inkscape (http://www.inkscape.org/) -->

<svg
   xmlns:dc="http://purl.org/dc/elements/1.1/"
   xmlns:cc="http://creativecommons.org/ns#"
   xmlns:rdf="http://www.w3.org/1999/02/22-rdf-syntax-ns#"
   xmlns:svg="http://www.w3.org/2000/svg"
   xmlns="http://www.w3.org/2000/svg"
   xmlns:sodipodi="http://sodipodi.sourceforge.net/DTD/sodipodi-0.dtd"
   xmlns:inkscape="http://www.inkscape.org/namespaces/inkscape"
   width="210mm"
   height="297mm"
   viewBox="0 0 744.09448819 1052.3622047"
   id="svg2"
   version="1.1"
   inkscape:version="0.91 r13725"
   sodipodi:docname="zektor.svg">
  <defs
     id="defs4" />
  <sodipodi:namedview
     id="base"
     pagecolor="#ffffff"
     bordercolor="#666666"
     borderopacity="1.0"
     inkscape:pageopacity="0.0"
     inkscape:pageshadow="2"
     inkscape:zoom="1.979899"
     inkscape:cx="492.91338"
     inkscape:cy="315.05052"
     inkscape:document-units="cm"
     inkscape:current-layer="layer1"
     showgrid="true"
     inkscape:window-width="1440"
     inkscape:window-height="852"
     inkscape:window-x="0"
     inkscape:window-y="0"
     inkscape:window-maximized="1">
    <inkscape:grid
       type="xygrid"
       id="grid4249"
       units="cm"
       spacingx="17.716536"
       spacingy="17.716536" />
  </sodipodi:namedview>
  <metadata
     id="metadata7">
    <rdf:RDF>
      <cc:Work
         rdf:about="">
        <dc:format>image/svg+xml</dc:format>
        <dc:type
           rdf:resource="http://purl.org/dc/dcmitype/StillImage" />
        <dc:title></dc:title>
      </cc:Work>
    </rdf:RDF>
  </metadata>
  <g
     inkscape:label="Layer 1"
     inkscape:groupmode="layer"
     id="layer1">
    <path
       style="color:#000000;clip-rule:nonzero;display:inline;overflow:visible;visibility:visible;opacity:1;isolation:auto;mix-blend-mode:normal;color-interpolation:sRGB;color-interpolation-filters:linearRGB;solid-color:#000000;solid-opacity:1;fill:none;fill-opacity:1;fill-rule:nonzero;stroke:#7e0000;stroke-width:6;stroke-linecap:round;stroke-linejoin:bevel;stroke-miterlimit:4;stroke-dasharray:none;stroke-dashoffset:0;stroke-opacity:1;color-rendering:auto;image-rendering:auto;shape-rendering:auto;text-rendering:auto;enable-background:accumulate"
       d="m 157.99652,252.11811 -8.85827,-17.71654 8.85827,-70.86614 35.43307,-53.1496 70.86614,-35.433069 53.14961,0 70.86614,35.433069 35.43307,53.1496 8.85827,70.91894 -8.85827,17.66374 -35.43307,177.16535 -70.86614,53.14961 -53.14961,0 -70.86614,-53.14961 z"
       id="path4201"
       inkscape:connector-curvature="0"
       sodipodi:nodetypes="ccccccccccccccc" />
    <path
       style="color:#000000;clip-rule:nonzero;display:inline;overflow:visible;visibility:visible;opacity:1;isolation:auto;mix-blend-mode:normal;color-interpolation:sRGB;color-interpolation-filters:linearRGB;solid-color:#000000;solid-opacity:1;fill:none;fill-opacity:1;fill-rule:nonzero;stroke:#7e0000;stroke-width:6;stroke-linecap:round;stroke-linejoin:bevel;stroke-miterlimit:4;stroke-dasharray:none;stroke-dashoffset:0;stroke-opacity:1;color-rendering:auto;image-rendering:auto;shape-rendering:auto;text-rendering:auto;enable-background:accumulate"
       d="m 166.85479,243.25984 14.82109,-35.43307 47.18678,0 53.14961,17.71654 17.71653,0.16383 53.14961,-17.88037 44.29134,0 17.71653,35.43307"
       id="path4203"
       inkscape:connector-curvature="0"
       sodipodi:nodetypes="cccccccc" />
    <path
       id="path4215"
       style="color:#000000;clip-rule:nonzero;display:inline;overflow:visible;visibility:visible;opacity:1;isolation:auto;mix-blend-mode:normal;color-interpolation:sRGB;color-interpolation-filters:linearRGB;solid-color:#000000;solid-opacity:1;fill:none;fill-opacity:1;fill-rule:nonzero;stroke:#7e0000;stroke-width:6;stroke-linecap:round;stroke-linejoin:bevel;stroke-miterlimit:4;stroke-dasharray:none;stroke-dashoffset:0;stroke-opacity:1;color-rendering:auto;image-rendering:auto;shape-rendering:auto;text-rendering:auto;enable-background:accumulate"
       d="m 246.5792,410.74308 -53.14961,-53.1496 m 53.14961,53.1496 26.5748,-8.85826 17.71653,8.85826 17.71654,-8.85826 26.5748,8.85826 53.14961,-53.1496 m -141.73228,53.1496 18.51861,36.30103 52.49383,-0.0165 17.57023,-36.28453 -26.5748,17.71654 -35.43307,0 z m 87.97489,53.29824 -16.81262,-17.02403 m -71.03944,17.31784 18.2114,-17.81364"
       inkscape:connector-curvature="0" />
    <path
       id="path4219"
       style="color:#000000;clip-rule:nonzero;display:inline;overflow:visible;visibility:visible;opacity:1;isolation:auto;mix-blend-mode:normal;color-interpolation:sRGB;color-interpolation-filters:linearRGB;solid-color:#000000;solid-opacity:1;fill:none;fill-opacity:1;fill-rule:nonzero;stroke:#7e0000;stroke-width:6;stroke-linecap:round;stroke-linejoin:bevel;stroke-miterlimit:4;stroke-dasharray:none;stroke-dashoffset:0;stroke-opacity:1;color-rendering:auto;image-rendering:auto;shape-rendering:auto;text-rendering:auto;enable-background:accumulate"
       d="m 308.58707,331.84252 17.72825,17.71653 -0.015,17.71654 -17.71328,0 m -35.43304,-35.43307 -17.71654,17.71653 0,17.71654 17.71654,0 m 26.5748,-141.73228 8.85827,141.73228 -8.85827,17.71654 -17.71653,0 -8.85827,-17.71654 8.85827,-141.73228"
       inkscape:connector-curvature="0" />
    <g
       id="g4274"
       style="stroke-width:6;stroke-linecap:round;stroke-linejoin:bevel;stroke-miterlimit:4;stroke-dasharray:none"
       transform="translate(-196.33419,-197.88189)">
      <path
         id="path4247"
         style="color:#000000;clip-rule:nonzero;display:inline;overflow:visible;visibility:visible;opacity:1;isolation:auto;mix-blend-mode:normal;color-interpolation:sRGB;color-interpolation-filters:linearRGB;solid-color:#000000;solid-opacity:1;fill:none;fill-opacity:1;fill-rule:nonzero;stroke:#7e0000;stroke-width:6;stroke-linecap:round;stroke-linejoin:bevel;stroke-miterlimit:4;stroke-dasharray:none;stroke-dashoffset:0;stroke-opacity:1;color-rendering:auto;image-rendering:auto;shape-rendering:auto;text-rendering:auto;enable-background:accumulate"
         d="m 442.91339,450.01764 8.85826,8.84063 -8.85536,8.85827 M 398.62205,450 l -8.85827,8.85827 8.85827,8.85827 M 425.19685,450 l 0,8.85827 M 372.04724,432.28346 460.62992,450 l 0,17.71654 -79.72441,0 m 26.5748,-26.57481 -26.5748,8.85827 -8.85827,35.43307"
         inkscape:connector-curvature="0" />
    </g>
    <g
       id="g4281"
       transform="matrix(-1,0,0,1,778.60879,-198.01129)"
       style="stroke-width:6;stroke-linecap:round;stroke-linejoin:bevel;stroke-miterlimit:4;stroke-dasharray:none">
      <path
         id="path4291"
         style="color:#000000;clip-rule:nonzero;display:inline;overflow:visible;visibility:visible;opacity:1;isolation:auto;mix-blend-mode:normal;color-interpolation:sRGB;color-interpolation-filters:linearRGB;solid-color:#000000;solid-opacity:1;fill:none;fill-opacity:1;fill-rule:nonzero;stroke:#7e0000;stroke-width:6;stroke-linecap:round;stroke-linejoin:bevel;stroke-miterlimit:4;stroke-dasharray:none;stroke-dashoffset:0;stroke-opacity:1;color-rendering:auto;image-rendering:auto;shape-rendering:auto;text-rendering:auto;enable-background:accumulate"
         d="m 442.91339,450.01764 8.85826,8.84063 -8.85536,8.85827 M 398.62205,450 l -8.85827,8.85827 8.85827,8.85827 M 425.19685,450 l 0,8.85827 M 372.04724,432.28346 460.62992,450 l 0,17.71654 -79.72441,0 m 26.5748,-26.57481 -26.5748,8.85827 -8.85827,35.43307"
         inkscape:connector-curvature="0" />
    </g>
    <path
       style="color:#000000;clip-rule:nonzero;display:inline;overflow:visible;visibility:visible;opacity:1;isolation:auto;mix-blend-mode:normal;color-interpolation:sRGB;color-interpolation-filters:linearRGB;solid-color:#000000;solid-opacity:1;fill:none;fill-opacity:1;fill-rule:nonzero;stroke:#7e0000;stroke-width:6;stroke-linecap:round;stroke-linejoin:round;stroke-miterlimit:4;stroke-dasharray:none;stroke-dashoffset:0;stroke-opacity:1;color-rendering:auto;image-rendering:auto;shape-rendering:auto;text-rendering:auto;enable-background:accumulate"
       d="m 299.75196,677.315 -8.85827,-17.71654 8.85827,-70.86614 35.43307,-53.1496 70.86614,-35.43307 53.14961,0 70.86614,35.43307 35.43307,53.1496 8.85827,70.91894 -8.85827,17.66374 -35.43307,177.16535 -70.86614,53.14957 -53.14961,0 -70.86614,-53.14957 z"
       id="path4201-9"
       inkscape:connector-curvature="0"
       sodipodi:nodetypes="ccccccccccccccc" />
    <path
       style="color:#000000;clip-rule:nonzero;display:inline;overflow:visible;visibility:visible;opacity:1;isolation:auto;mix-blend-mode:normal;color-interpolation:sRGB;color-interpolation-filters:linearRGB;solid-color:#000000;solid-opacity:1;fill:none;fill-opacity:1;fill-rule:nonzero;stroke:#7e0000;stroke-width:6;stroke-linecap:round;stroke-linejoin:round;stroke-miterlimit:4;stroke-dasharray:none;stroke-dashoffset:0;stroke-opacity:1;color-rendering:auto;image-rendering:auto;shape-rendering:auto;text-rendering:auto;enable-background:accumulate"
       d="m 308.61023,668.45673 14.82109,-35.43307 47.18678,0 53.14961,17.71654 17.71653,0.16383 53.14961,-17.88037 44.29134,0 17.71653,35.43307"
       id="path4203-6"
       inkscape:connector-curvature="0"
       sodipodi:nodetypes="cccccccc" />
    <path
       inkscape:connector-curvature="0"
       id="path4215-2"
       style="color:#000000;clip-rule:nonzero;display:inline;overflow:visible;visibility:visible;opacity:1;isolation:auto;mix-blend-mode:normal;color-interpolation:sRGB;color-interpolation-filters:linearRGB;solid-color:#000000;solid-opacity:1;fill:none;fill-opacity:1;fill-rule:nonzero;stroke:#7e0000;stroke-width:6;stroke-linecap:round;stroke-linejoin:round;stroke-miterlimit:4;stroke-dasharray:none;stroke-dashoffset:0;stroke-opacity:1;color-rendering:auto;image-rendering:auto;shape-rendering:auto;text-rendering:auto;enable-background:accumulate"
       d="m 388.33464,835.93997 -53.14961,-53.1496 m 53.14961,53.1496 26.5748,-8.85826 17.71653,8.85826 17.71654,-8.85826 26.5748,8.85826 53.14961,-53.1496 m -141.73228,53.1496 18.51861,36.30103 52.49383,-0.0165 17.57023,-36.28453 -26.5748,17.71654 -35.43307,0 z m 87.97489,53.29824 -16.81262,-17.02403 m -71.03944,17.31784 18.2114,-17.81364" />
    <path
       inkscape:connector-curvature="0"
       id="path4219-9"
       style="color:#000000;clip-rule:nonzero;display:inline;overflow:visible;visibility:visible;opacity:1;isolation:auto;mix-blend-mode:normal;color-interpolation:sRGB;color-interpolation-filters:linearRGB;solid-color:#000000;solid-opacity:1;fill:none;fill-opacity:1;fill-rule:nonzero;stroke:#7e0000;stroke-width:6;stroke-linecap:round;stroke-linejoin:round;stroke-miterlimit:4;stroke-dasharray:none;stroke-dashoffset:0;stroke-opacity:1;color-rendering:auto;image-rendering:auto;shape-rendering:auto;text-rendering:auto;enable-background:accumulate"
       d="m 450.34251,757.03941 17.72825,17.71653 -0.015,17.71654 -17.71328,0 m -35.43304,-35.43307 -17.71654,17.71653 0,17.71654 17.71654,0 m 26.5748,-141.73228 8.85827,141.73228 -8.85827,17.71654 -17.71653,0 -8.85827,-17.71654 8.85827,-141.73228" />
    <path
       inkscape:connector-curvature="0"
       style="color:#000000;font-style:normal;font-variant:normal;font-weight:normal;font-stretch:normal;font-size:medium;line-height:normal;font-family:sans-serif;text-indent:0;text-align:start;text-decoration:none;text-decoration-line:none;text-decoration-style:solid;text-decoration-color:#000000;letter-spacing:normal;word-spacing:normal;text-transform:none;direction:ltr;block-progression:tb;writing-mode:lr-tb;baseline-shift:baseline;text-anchor:start;white-space:normal;clip-rule:nonzero;display:inline;overflow:visible;visibility:visible;opacity:1;isolation:auto;mix-blend-mode:normal;color-interpolation:sRGB;color-interpolation-filters:linearRGB;solid-color:#000000;solid-opacity:1;fill:#7e0000;fill-opacity:1;fill-rule:nonzero;stroke:none;stroke-width:6;stroke-linecap:round;stroke-linejoin:round;stroke-miterlimit:4;stroke-dasharray:none;stroke-dashoffset:0;stroke-opacity:1;color-rendering:auto;image-rendering:auto;shape-rendering:auto;text-rendering:auto;enable-background:accumulate"
       d="m 547.79062,656.52214 c -0.19963,0.002 -0.39854,0.0246 -0.59375,0.0664 l -88.58398,17.7168 c -1.40227,0.28035 -2.41179,1.51138 -2.41211,2.9414 l 0,17.7168 c 1.7e-4,1.65679 1.34321,2.99983 3,3 25.39239,0.007 81.64648,-0.66406 81.64648,-0.66406 l 4.02735,16.10742 c 0.91146,3.97677 6.8875,2.48276 5.82031,-1.45508 l -8.85742,-35.43359 c -0.24942,-0.99484 -0.98973,-1.79335 -1.96289,-2.11719 l -19.17969,-6.39453 27.67774,-5.53516 c 3.60211,-0.67433 3.08247,-5.98582 -0.58204,-5.94922 z m -30.20703,16.77344 18.83203,6.27735 3.11133,12.4414 c 0,0 -13.68009,0.10863 -20.46679,-0.0508 l 3.73632,-3.73633 c 0.91633,-0.91559 1.14158,-2.31588 0.5586,-3.47265 l -5.77149,-11.45899 z m -22.90429,0.9082 c 1.65609,0.0248 2.97881,1.38687 2.95507,3.04297 l 0,8.85743 c 0.0574,4.05697 -6.05738,4.05697 -6,0 l 0,-8.85743 c -0.0242,-1.6913 1.35365,-3.06829 3.04493,-3.04297 z m -15.28907,2.06446 -5.49414,8.16211 c -0.79688,1.18366 -0.64989,2.7648 0.35157,3.78125 l 3.69921,3.75195 -15.74609,0 0,-12.25781 17.18945,-3.4375 z"
       id="path4322" />
    <path
       id="path4385"
       d="m 317.50011,656.52214 c 0.19963,0.002 0.39854,0.0246 0.59375,0.0664 l 88.58398,17.7168 c 1.40227,0.28035 2.41179,1.51138 2.41211,2.9414 l 0,17.7168 c -1.7e-4,1.65679 -1.34321,2.99983 -3,3 -25.39239,0.007 -81.64648,-0.66406 -81.64648,-0.66406 l -4.02735,16.10742 c -0.91146,3.97677 -6.8875,2.48276 -5.82031,-1.45508 l 8.85742,-35.43359 c 0.24942,-0.99484 0.98973,-1.79335 1.96289,-2.11719 l 19.17969,-6.39453 -27.67774,-5.53516 c -3.60211,-0.67433 -3.08247,-5.98582 0.58204,-5.94922 z m 30.20703,16.77344 -18.83203,6.27735 -3.11133,12.4414 c 0,0 13.68009,0.10863 20.46679,-0.0508 l -3.73632,-3.73633 c -0.91633,-0.91559 -1.14158,-2.31588 -0.5586,-3.47265 l 5.77149,-11.45899 z m 22.90429,0.9082 c -1.65609,0.0248 -2.97881,1.38687 -2.95507,3.04297 l 0,8.85743 c -0.0574,4.05697 6.05738,4.05697 6,0 l 0,-8.85743 c 0.0242,-1.6913 -1.35365,-3.06829 -3.04493,-3.04297 z m 15.28907,2.06446 5.49414,8.16211 c 0.79688,1.18366 0.64989,2.7648 -0.35157,3.78125 l -3.69921,3.75195 15.74609,0 0,-12.25781 -17.18945,-3.4375 z"
       style="color:#000000;font-style:normal;font-variant:normal;font-weight:normal;font-stretch:normal;font-size:medium;line-height:normal;font-family:sans-serif;text-indent:0;text-align:start;text-decoration:none;text-decoration-line:none;text-decoration-style:solid;text-decoration-color:#000000;letter-spacing:normal;word-spacing:normal;text-transform:none;direction:ltr;block-progression:tb;writing-mode:lr-tb;baseline-shift:baseline;text-anchor:start;white-space:normal;clip-rule:nonzero;display:inline;overflow:visible;visibility:visible;opacity:1;isolation:auto;mix-blend-mode:normal;color-interpolation:sRGB;color-interpolation-filters:linearRGB;solid-color:#000000;solid-opacity:1;fill:#7e0000;fill-opacity:1;fill-rule:nonzero;stroke:none;stroke-width:6;stroke-linecap:round;stroke-linejoin:round;stroke-miterlimit:4;stroke-dasharray:none;stroke-dashoffset:0;stroke-opacity:1;color-rendering:auto;image-rendering:auto;shape-rendering:auto;text-rendering:auto;enable-background:accumulate"
       inkscape:connector-curvature="0" />
  </g>
</svg>
