<?xml version="1.0" encoding="UTF-8" standalone="no"?>
<!-- Created with Inkscape (http://www.inkscape.org/) -->

<svg
   xmlns:dc="http://purl.org/dc/elements/1.1/"
   xmlns:cc="http://creativecommons.org/ns#"
   xmlns:rdf="http://www.w3.org/1999/02/22-rdf-syntax-ns#"
   xmlns:svg="http://www.w3.org/2000/svg"
   xmlns="http://www.w3.org/2000/svg"
   xmlns:sodipodi="http://sodipodi.sourceforge.net/DTD/sodipodi-0.dtd"
   xmlns:inkscape="http://www.inkscape.org/namespaces/inkscape"
   width="1.5cm"
   height="1.5cm"
   viewBox="0 0 53.149605 53.149605"
   id="svg2"
   version="1.1"
   inkscape:version="0.91 r13725"
   sodipodi:docname="0_ok0.svg"
   inkscape:export-filename="/Users/John/2017/winter/image_hosting/learnest/svg/icons/0_ok0.png"
   inkscape:export-xdpi="50.0695"
   inkscape:export-ydpi="50.0695">
  <defs
     id="defs4">
    <inkscape:path-effect
       effect="spiro"
       id="path-effect4999"
       is_visible="true" />
    <inkscape:path-effect
       effect="vonkoch"
       id="path-effect4732"
       is_visible="true"
       ref_path="m 96.008494,182.45683 105.842186,0"
       generator="m 96.008494,298.13409 35.280726,0 m 35.28073,0 35.28073,0"
       similar_only="false"
       nbgenerations="1"
       drawall="true"
       maxComplexity="1000" />
    <clipPath
       clipPathUnits="userSpaceOnUse"
       id="clipPath5077">
      <path
         style="color:#000000;clip-rule:nonzero;display:inline;overflow:visible;visibility:visible;opacity:1;isolation:auto;mix-blend-mode:normal;color-interpolation:sRGB;color-interpolation-filters:linearRGB;solid-color:#000000;solid-opacity:1;fill:#000000;fill-opacity:1;fill-rule:nonzero;stroke:none;stroke-width:1;stroke-linecap:butt;stroke-linejoin:miter;stroke-miterlimit:4;stroke-dasharray:none;stroke-dashoffset:0;stroke-opacity:1;color-rendering:auto;image-rendering:auto;shape-rendering:auto;text-rendering:auto;enable-background:accumulate"
         d="M -145.99968,852.14646 C -20.463431,803.3904 155.25849,743.00751 281.95453,694.95651 L 1143.5876,355.5203 1654.0256,798.57629 C 1561.9726,859.1483 1426.8812,954.54023 1311.9321,996.62517 966.67479,1128.6283 292.99459,1411.2648 307.14855,1378.0699 L -272.81151,939.6215 c -74.07125,-1.57995 1.2766,-38.71638 126.81183,-87.47504 z"
         id="path5079"
         inkscape:connector-curvature="0" />
    </clipPath>
    <clipPath
       clipPathUnits="userSpaceOnUse"
       id="clipPath5085">
      <rect
         style="color:#000000;clip-rule:nonzero;display:inline;overflow:visible;visibility:visible;opacity:1;isolation:auto;mix-blend-mode:normal;color-interpolation:sRGB;color-interpolation-filters:linearRGB;solid-color:#000000;solid-opacity:1;fill:#ffffff;fill-opacity:1;fill-rule:nonzero;stroke:none;stroke-width:1;stroke-linecap:butt;stroke-linejoin:miter;stroke-miterlimit:4;stroke-dasharray:none;stroke-dashoffset:0;stroke-opacity:1;color-rendering:auto;image-rendering:auto;shape-rendering:auto;text-rendering:auto;enable-background:accumulate"
         id="rect5087"
         width="2233.3789"
         height="1985.2257"
         x="-617.86584"
         y="-488.55334"
         rx="496.30658"
         ry="496.30649"
         transform="matrix(0.93246501,-0.36126029,0.36126029,0.93246501,0,0)" />
    </clipPath>
  </defs>
  <sodipodi:namedview
     id="base"
     pagecolor="#c7c7c7"
     bordercolor="#666666"
     borderopacity="1.0"
     inkscape:pageopacity="0"
     inkscape:pageshadow="2"
     inkscape:zoom="2"
     inkscape:cx="122.76065"
     inkscape:cy="51.71346"
     inkscape:document-units="cm"
     inkscape:current-layer="layer1"
     showgrid="true"
     units="cm"
     objecttolerance="11"
     inkscape:window-width="1440"
     inkscape:window-height="852"
     inkscape:window-x="0"
     inkscape:window-y="0"
     inkscape:window-maximized="1"
     gridtolerance="10"
     showguides="true">
    <inkscape:grid
       type="xygrid"
       id="grid4136"
       units="cm"
       spacingx="35.43307"
       spacingy="35.433069" />
  </sodipodi:namedview>
  <metadata
     id="metadata7">
    <rdf:RDF>
      <cc:Work
         rdf:about="">
        <dc:format>image/svg+xml</dc:format>
        <dc:type
           rdf:resource="http://purl.org/dc/dcmitype/StillImage" />
        <dc:title></dc:title>
      </cc:Work>
    </rdf:RDF>
  </metadata>
  <g
     inkscape:label="Layer 1"
     inkscape:groupmode="layer"
     id="layer1"
     transform="translate(0,-999.21265)">
    <circle
       style="color:#000000;clip-rule:nonzero;display:inline;overflow:visible;visibility:visible;opacity:1;isolation:auto;mix-blend-mode:normal;color-interpolation:sRGB;color-interpolation-filters:linearRGB;solid-color:#000000;solid-opacity:1;fill:#ffffff;fill-opacity:1;fill-rule:nonzero;stroke:none;stroke-width:1;stroke-linecap:butt;stroke-linejoin:miter;stroke-miterlimit:4;stroke-dasharray:none;stroke-dashoffset:0;stroke-opacity:1;color-rendering:auto;image-rendering:auto;shape-rendering:auto;text-rendering:auto;enable-background:accumulate"
       id="path4255"
       cx="26.574802"
       cy="1025.7875"
       r="26.574802" />
    <text
       xml:space="preserve"
       style="font-style:normal;font-variant:normal;font-weight:500;font-stretch:normal;font-size:30px;line-height:125%;font-family:'CMU Serif';-inkscape-font-specification:'CMU Serif, Medium';text-align:start;letter-spacing:0px;word-spacing:0px;writing-mode:lr-tb;text-anchor:start;fill:#000000;fill-opacity:1;stroke:none;stroke-width:1px;stroke-linecap:butt;stroke-linejoin:miter;stroke-opacity:1"
       x="850.39368"
       y="839.76379"
       id="text5560"
       sodipodi:linespacing="125%"><tspan
         sodipodi:role="line"
         id="tspan5562"
         x="850.39368"
         y="839.76379" /></text>
    <g
       id="g4343"
       transform="translate(0,17.716534)" />
    <text
       xml:space="preserve"
       style="font-style:normal;font-variant:normal;font-weight:500;font-stretch:normal;font-size:30px;line-height:125%;font-family:'CMU Serif';-inkscape-font-specification:'CMU Serif, Medium';text-align:start;letter-spacing:0px;word-spacing:0px;writing-mode:lr-tb;text-anchor:start;fill:#000000;fill-opacity:1;stroke:none;stroke-width:1px;stroke-linecap:butt;stroke-linejoin:miter;stroke-opacity:1"
       x="141.73228"
       y="896.79877"
       id="text4518"
       sodipodi:linespacing="125%"><tspan
         sodipodi:role="line"
         id="tspan4520"
         x="141.73228"
         y="896.79877" /></text>
    <text
       xml:space="preserve"
       style="font-style:normal;font-variant:normal;font-weight:500;font-stretch:normal;font-size:30px;line-height:125%;font-family:'CMU Serif';-inkscape-font-specification:'CMU Serif, Medium';text-align:start;letter-spacing:0px;word-spacing:0px;writing-mode:lr-tb;text-anchor:start;fill:#000000;fill-opacity:1;stroke:none;stroke-width:1px;stroke-linecap:butt;stroke-linejoin:miter;stroke-opacity:1"
       x="141.73228"
       y="886.19214"
       id="text4522"
       sodipodi:linespacing="125%"><tspan
         sodipodi:role="line"
         id="tspan4524"
         x="141.73228"
         y="886.19214" /></text>
    <text
       xml:space="preserve"
       style="font-style:normal;font-variant:normal;font-weight:500;font-stretch:normal;font-size:30px;line-height:125%;font-family:'CMU Serif';-inkscape-font-specification:'CMU Serif, Medium';text-align:start;letter-spacing:0px;word-spacing:0px;writing-mode:lr-tb;text-anchor:start;fill:#000000;fill-opacity:1;stroke:none;stroke-width:1px;stroke-linecap:butt;stroke-linejoin:miter;stroke-opacity:1"
       x="549"
       y="839.76379"
       id="text4555"
       sodipodi:linespacing="125%"><tspan
         sodipodi:role="line"
         id="tspan4557"
         x="549"
         y="839.76379" /></text>
    <g
       id="g24389"
       transform="translate(91.32381,-1.4142136)" />
    <g
       id="g4534"
       transform="matrix(0.16869271,0,0,0.16869271,722.19857,664.5147)" />
    <text
       xml:space="preserve"
       style="font-style:normal;font-variant:normal;font-weight:500;font-stretch:normal;font-size:30px;line-height:125%;font-family:'CMU Serif';-inkscape-font-specification:'CMU Serif, Medium';text-align:start;letter-spacing:0px;word-spacing:0px;writing-mode:lr-tb;text-anchor:start;fill:#000000;fill-opacity:1;stroke:none;stroke-width:1px;stroke-linecap:butt;stroke-linejoin:miter;stroke-opacity:1"
       x="800"
       y="946.06305"
       id="text4899"
       sodipodi:linespacing="125%"><tspan
         sodipodi:role="line"
         id="tspan4901"
         x="800"
         y="946.06305" /></text>
    <text
       xml:space="preserve"
       style="font-style:normal;font-variant:normal;font-weight:500;font-stretch:normal;font-size:30px;line-height:125%;font-family:'CMU Serif';-inkscape-font-specification:'CMU Serif, Medium';text-align:start;letter-spacing:0px;word-spacing:0px;writing-mode:lr-tb;text-anchor:start;fill:#000000;fill-opacity:1;stroke:none;stroke-width:1px;stroke-linecap:butt;stroke-linejoin:miter;stroke-opacity:1"
       x="212.5984"
       y="824.67383"
       id="text4949"
       sodipodi:linespacing="125%"><tspan
         sodipodi:role="line"
         id="tspan4951"
         x="212.5984"
         y="824.67383" /></text>
    <path
       style="color:#000000;clip-rule:nonzero;display:inline;overflow:visible;visibility:visible;opacity:1;isolation:auto;mix-blend-mode:normal;color-interpolation:sRGB;color-interpolation-filters:linearRGB;solid-color:#000000;solid-opacity:1;fill:#000000;fill-opacity:1;fill-rule:nonzero;stroke:none;stroke-width:1;stroke-linecap:butt;stroke-linejoin:miter;stroke-miterlimit:4;stroke-dasharray:none;stroke-dashoffset:0;stroke-opacity:1;color-rendering:auto;image-rendering:auto;shape-rendering:auto;text-rendering:auto;enable-background:accumulate"
       d="m 39.303442,1004.6191 0,0 c -0.205897,0 -0.41408,-4e-4 -0.624443,0.02 -0.210363,0.017 -0.423253,0.034 -0.634347,0.059 -0.211117,0.025 -0.422965,0.057 -0.631065,0.095 -0.416224,0.076 -0.820807,0.1722 -1.202636,0.2871 -0.190915,0.057 -0.375027,0.1159 -0.551751,0.1827 -0.176724,0.067 -0.346717,0.1382 -0.505513,0.2121 -0.158833,0.073 -0.308887,0.1534 -0.446019,0.2349 -0.410463,0.2432 -0.761827,0.4273 -1.129956,0.5612 -0.184065,0.067 -0.370884,0.1213 -0.571583,0.163 -0.200698,0.041 -0.415397,0.07 -0.650873,0.087 -0.235463,0.018 -0.491322,0.025 -0.77973,0.019 -0.865188,-0.017 -2.009203,-0.1268 -3.677282,-0.3197 -0.456857,-0.053 -0.883175,-0.098 -1.278621,-0.137 -0.39547,-0.039 -0.761336,-0.075 -1.100221,-0.098 -0.338873,-0.025 -0.651184,-0.039 -0.938311,-0.048 -0.287126,-0.017 -0.549427,-0.02 -0.789646,-0.02 -0.72063,0.017 -1.240299,0.091 -1.625529,0.235 -0.128402,0.046 -0.242817,0.099 -0.343616,0.1631 -0.187346,0.1159 -0.447515,0.208 -0.783035,0.2773 -0.335532,0.069 -0.74639,0.117 -1.238982,0.1402 -0.492603,0.024 -1.06609,0.025 -1.724651,0 -0.658562,-0.021 -1.403347,-0.067 -2.236764,-0.1337 -0.400188,-0.032 -0.784796,-0.06 -1.159691,-0.082 -1.124639,-0.064 -2.136073,-0.076 -3.016494,-0.039 -0.293473,0.016 -0.571391,0.032 -0.835895,0.055 -0.264517,0.024 -0.515382,0.05 -0.749995,0.085 -0.4692395,0.069 -0.8782895,0.1587 -1.2224557,0.2708 -0.2888151,0.093 -0.5821211,0.2059 -0.8656311,0.3262 -0.5670318,0.2409 -1.0942093,0.5186 -1.4603508,0.77 -0.091493,0.064 -0.1715981,0.1238 -0.2411882,0.1827 -0.069698,0.058 -0.1278992,0.1135 -0.1718017,0.1664 -0.059519,0.07 -0.1063432,0.142 -0.1453716,0.2153 -0.03904,0.073 -0.071135,0.1507 -0.089218,0.2284 -0.036166,0.1554 -0.028143,0.3219 0.023113,0.5089 0.051255,0.187 0.1471919,0.3941 0.2907432,0.6297 0.071734,0.1186 0.1552874,0.2419 0.251104,0.3753 0.095685,0.1336 0.2034412,0.2763 0.3237838,0.4273 0.1050259,0.132 0.2033215,0.2689 0.2973537,0.4143 0.2821332,0.4363 0.5158366,0.9349 0.6938297,1.4779 0.059399,0.181 0.1112532,0.3667 0.1585927,0.5579 0.094368,0.3826 0.1671312,0.7855 0.2114528,1.2038 0.022155,0.2092 0.037124,0.4226 0.046226,0.6396 0.011976,0.2617 0.016167,0.5021 0.016526,0.7241 4.311e-4,0.2225 -0.00479,0.4259 -0.016526,0.6134 -0.011976,0.1875 -0.030777,0.358 -0.056165,0.5155 -0.050896,0.315 -0.1299351,0.5749 -0.2444935,0.7994 -0.057363,0.1123 -0.1229294,0.2164 -0.1982438,0.3131 -0.075446,0.097 -0.1594788,0.1849 -0.2543973,0.2708 -0.094966,0.088 -0.2011422,0.171 -0.3171856,0.2512 -0.1287256,0.089 -0.2424697,0.1751 -0.3436034,0.2643 -0.1011937,0.089 -0.1888071,0.181 -0.2643131,0.2806 -0.037723,0.05 -0.074129,0.1017 -0.1057444,0.1566 -0.031855,0.056 -0.059998,0.11 -0.085865,0.1697 -0.051974,0.1202 -0.091853,0.2562 -0.1222467,0.4077 -0.030418,0.1521 -0.051735,0.3195 -0.062752,0.5123 -0.011976,0.1926 -0.011976,0.4082 -0.00719,0.6524 0.00719,0.2443 0.021436,0.5162 0.042992,0.8222 0.021436,0.3061 0.047902,0.6464 0.082632,1.0244 0.1534191,1.6714 0.5024715,3.2934 0.8226746,3.9053 0.045866,0.086 0.091493,0.1562 0.1354678,0.199 0.1339831,0.1324 0.2439429,0.3177 0.346909,0.4991 1.7468184,4.6832 4.9186826,15.1166 7.7642606,18.058 1.050259,1.0855 1.783679,1.8405 2.401967,2.3751 1.289674,1.115 2.077176,1.8987 4.186089,2.101 1.063587,0.1017 3.205743,0.017 5.200396,-0.956 1.584777,-0.7723 3.020566,-3.0446 4.139839,-3.3603 8.514975,-2.4011 11.344362,-15.5153 13.803871,-16.4788 0.05377,-0.092 0.0703,-0.1596 0.138761,-0.2675 0.112331,-0.1768 0.238877,-0.4344 0.373339,-0.7505 0.134486,-0.3161 0.276492,-0.6898 0.416307,-1.0962 0.139731,-0.4064 0.278109,-0.8442 0.40638,-1.2919 0.128222,-0.4477 0.243715,-0.9044 0.343615,-1.3442 0.09976,-0.4398 0.214147,-0.8954 0.330394,-1.3409 0.116164,-0.4453 0.235153,-0.8797 0.353508,-1.2821 0.118438,-0.4024 0.234122,-0.7723 0.34031,-1.0832 0.106223,-0.3109 0.204411,-0.5634 0.284132,-0.734 0.100835,-0.2158 0.171874,-0.4421 0.214771,-0.6818 0.02144,-0.1203 0.03617,-0.2412 0.04287,-0.3688 0.01353,-0.255 -0.0012,-0.5262 -0.04634,-0.8189 -0.06754,-0.4388 -0.202148,-0.9259 -0.403075,-1.4746 -0.264792,-0.7231 -0.587869,-1.3631 -0.85902,-1.7422 -0.05425,-0.076 -0.106104,-0.1416 -0.155287,-0.1957 -0.04922,-0.053 -0.09281,-0.095 -0.135468,-0.1208 -0.04263,-0.028 -0.08455,-0.043 -0.118918,-0.043 -0.03413,0 -0.06191,-0.015 -0.08922,-0.039 -0.0273,-0.027 -0.05257,-0.067 -0.07269,-0.117 -0.02012,-0.05 -0.03677,-0.1136 -0.04958,-0.1859 -0.01353,-0.072 -0.0212,-0.1539 -0.02635,-0.2447 -0.0096,-0.1812 -0.0072,-0.3973 0.01317,-0.6362 0.02012,-0.2389 0.057,-0.4984 0.108978,-0.7733 0.02599,-0.1369 0.04407,-0.2861 0.0594,-0.4437 0.01521,-0.157 0.0279,-0.3235 0.03305,-0.4958 0.0096,-0.3446 -0.0012,-0.7133 -0.02982,-1.0832 -0.0576,-0.7398 -0.188447,-1.4857 -0.379949,-2.0587 -0.05401,-0.162 -0.116882,-0.3209 -0.185011,-0.4762 -0.06814,-0.1554 -0.140413,-0.306 -0.221368,-0.4535 -0.08107,-0.147 -0.171766,-0.2927 -0.264313,-0.4307 -0.09257,-0.1387 -0.187885,-0.2709 -0.290756,-0.398 -0.205716,-0.2541 -0.431731,-0.4848 -0.670692,-0.6852 -0.238973,-0.2004 -0.491538,-0.3687 -0.7533,-0.5023 -0.116044,-0.06 -0.249919,-0.1159 -0.396476,-0.173 -0.146497,-0.057 -0.304826,-0.1112 -0.475766,-0.1631 -0.170951,-0.052 -0.35589,-0.1005 -0.545164,-0.1469 -0.189214,-0.047 -0.383315,-0.089 -0.584792,-0.1272 -0.201465,-0.039 -0.406918,-0.076 -0.614527,-0.1076 -0.20762,-0.032 -0.416774,-0.057 -0.624443,-0.078 -0.207704,-0.021 -0.416163,-0.039 -0.617832,-0.048 -0.201681,-0.017 -0.398535,-0.017 -0.588109,-0.017 z m -11.55057,2.3425 c 0.298923,0 0.61048,0.018 0.915186,0.046 0.304743,0.03 0.605043,0.072 0.882146,0.1239 0.277103,0.052 0.530674,0.1124 0.746701,0.1795 0.10814,0.033 0.20428,0.071 0.290755,0.1077 0.856458,0.6522 0.987052,1.1882 1.67839,2.0194 -0.03976,0.058 -0.0788,0.1099 -0.118917,0.1729 -0.104068,0.1637 -0.208818,0.3391 -0.31388,0.5286 -0.105026,0.1896 -0.211369,0.3916 -0.317174,0.6067 -0.0891,0.1809 -0.173586,0.3756 -0.257702,0.5776 -0.08407,0.2018 -0.167036,0.4101 -0.244494,0.6264 -0.154784,0.4324 -0.292288,0.8887 -0.409696,1.3375 -0.05868,0.2243 -0.111852,0.4475 -0.158581,0.6656 -0.04671,0.2184 -0.08946,0.4309 -0.122235,0.6362 -0.06575,0.4109 -0.09916,0.7904 -0.09916,1.1092 0,0.1587 0.0048,0.3204 0.01317,0.4861 0.0096,0.1655 0.02156,0.3353 0.03964,0.5025 0.01808,0.1673 0.0406,0.3351 0.06611,0.4991 0.02575,0.1637 0.05688,0.3236 0.08922,0.4797 0.03233,0.1552 0.06766,0.3067 0.105745,0.4502 0.03784,0.1436 0.07628,0.2815 0.118917,0.4078 0.08527,0.2526 0.179502,0.4649 0.277522,0.6199 0.0697,0.11 0.129516,0.2255 0.181742,0.3523 0.104546,0.2541 0.176292,0.5508 0.211441,0.92 0.0176,0.1846 0.02611,0.388 0.02635,0.6134 4.79e-4,0.4506 -0.03377,0.9896 -0.102391,1.6508 -0.03437,0.3305 -0.07712,0.6913 -0.128846,1.0864 -0.05173,0.3951 -0.11269,0.8246 -0.181717,1.2919 -0.0485,0.3292 -0.102751,0.655 -0.158581,0.9723 -0.111612,0.6348 -0.234697,1.2375 -0.363435,1.7813 -0.128725,0.5439 -0.263199,1.0299 -0.393182,1.4257 -0.129911,0.3956 -0.254673,0.7009 -0.370034,0.8907 -0.02874,0.047 -0.05521,0.088 -0.08263,0.1206 -0.02742,0.032 -0.05712,0.058 -0.08263,0.074 -0.07353,0.046 -0.137036,0.089 -0.191621,0.1306 -0.05461,0.041 -0.1,0.085 -0.135468,0.1239 -0.03569,0.04 -0.06287,0.076 -0.07928,0.1147 -0.03317,0.076 -0.02443,0.1508 0.01988,0.2285 0.02192,0.038 0.05126,0.076 0.09245,0.1171 0.08287,0.084 0.205597,0.1746 0.36674,0.2773 0.293031,0.1865 0.467275,0.4659 0.531931,0.8939 0.01689,0.1064 0.0273,0.2227 0.02982,0.349 0.0012,0.127 -0.0012,0.264 -0.01329,0.4111 -0.0218,0.2947 -0.07149,0.6327 -0.145372,1.0212 -0.03964,0.2083 -0.07126,0.4019 -0.0958,0.584 -0.02455,0.1818 -0.04084,0.3525 -0.04958,0.5121 -0.0084,0.1604 -0.01078,0.3087 -0.0036,0.4503 0.0084,0.1419 0.02431,0.2737 0.04946,0.4013 0.02527,0.127 0.05892,0.2509 0.102391,0.3687 0.130582,0.3532 0.344574,0.6726 0.654178,1.0113 0.254889,0.279 0.453133,0.4854 0.604612,0.6265 0.01197,0.017 0.0182,0.018 0.02982,0.026 -0.0418,0.072 -0.08778,0.1385 -0.125552,0.2152 -0.03341,0.056 -0.01677,0.028 -0.04958,0.085 l 0.406403,-0.1305 c 0.05197,0.024 0.09844,0.033 0.135456,0.02 0.03317,-0.017 0.06108,-0.05 0.08586,-0.091 l 0.802867,-0.2578 c 0.03281,-0.06 0.01689,-0.03 0.04946,-0.091 0.05497,-0.093 0.109816,-0.185 0.142079,-0.2903 0.04742,-0.1202 0.08347,-0.244 0.135467,-0.3621 0.06155,-0.127 0.110774,-0.2604 0.155276,-0.3948 0.04682,-0.1369 0.101074,-0.272 0.132162,-0.4143 0.04635,-0.167 0.09688,-0.3332 0.145384,-0.4992 0.04599,-0.1587 0.10275,-0.3156 0.15197,-0.473 0.05593,-0.1637 0.119157,-0.3239 0.194927,-0.4797 0.07652,-0.1486 0.147599,-0.2976 0.21477,-0.4502 0.08419,-0.1846 0.173047,-0.3654 0.254397,-0.5513 0.09712,-0.2026 0.191478,-0.407 0.287438,-0.61 0.102511,-0.2136 0.194747,-0.434 0.307269,-0.6429 0.09868,-0.2034 0.201537,-0.4019 0.303965,-0.6034 0.09892,-0.2062 0.206554,-0.4098 0.303976,-0.6167 0.111972,-0.215 0.213153,-0.4352 0.320466,-0.6525 0.08311,-0.1824 0.173095,-0.3607 0.244494,-0.5481 0.07293,-0.1729 0.14912,-0.3434 0.237871,-0.5089 0.05389,-0.1202 0.119636,-0.2362 0.175119,-0.3557 0.05365,-0.1353 0.123995,-0.2637 0.188328,-0.3947 0.0588,-0.1203 0.121815,-0.2398 0.178412,-0.3621 0.05126,-0.1237 0.09772,-0.2511 0.148677,-0.3752 0.04419,-0.132 0.100355,-0.2598 0.151982,-0.3883 0.04671,-0.1064 0.09569,-0.2136 0.151982,-0.3164 0.06407,-0.1005 0.104906,-0.212 0.151982,-0.3198 0.04575,-0.1088 0.09161,-0.2181 0.122235,-0.3327 0.03605,-0.1303 0.06275,-0.2646 0.109098,-0.3916 0.04623,-0.1369 0.07736,-0.2764 0.118917,-0.4142 0.02707,-0.1453 0.0576,-0.2882 0.0958,-0.4307 0.03712,-0.1404 0.06826,-0.2829 0.102391,-0.4242 0.02371,-0.1352 0.0479,-0.2706 0.07928,-0.4045 0.03102,-0.142 0.07173,-0.2845 0.09916,-0.4274 0.02934,-0.1437 0.06802,-0.2853 0.105745,-0.4273 0.04838,-0.1503 0.09964,-0.2983 0.142066,-0.4502 0.03772,-0.1538 0.07365,-0.3092 0.112331,-0.4634 0.03509,-0.1553 0.08419,-0.3064 0.112331,-0.4633 0.03365,-0.1653 0.06563,-0.3311 0.105744,-0.4958 0.04778,-0.1737 0.08802,-0.3491 0.125552,-0.5253 0.02754,-0.1269 0.04838,-0.2561 0.06934,-0.3849 0.02766,-0.127 0.05425,-0.2569 0.09245,-0.3817 0.0291,-0.1221 0.05054,-0.2458 0.07605,-0.3688 0.03305,-0.1352 0.06263,-0.2676 0.08263,-0.4045 0.0303,-0.1386 0.06275,-0.2773 0.07928,-0.4176 0.02299,-0.1403 0.04287,-0.2831 0.08263,-0.4208 0.04191,-0.1353 0.07113,-0.2754 0.0958,-0.4144 0.02743,-0.1504 0.06132,-0.298 0.0958,-0.447 0.03497,-0.1519 0.05964,-0.3054 0.09916,-0.4567 0.03976,-0.152 0.07784,-0.3091 0.112331,-0.4633 0.03521,-0.127 0.07485,-0.2528 0.115684,-0.3784 0.04096,-0.092 0.08251,-0.1832 0.118918,-0.2773 0.03832,-0.098 0.09113,-0.1918 0.122258,-0.2936 0.03377,-0.093 0.07952,-0.1859 0.112331,-0.2806 0.03533,-0.092 0.08994,-0.1753 0.115684,-0.2708 0.04443,-0.092 0.09305,-0.1829 0.112331,-0.2839 0.02455,-0.092 0.04599,-0.1834 0.07269,-0.2741 0.183897,-0.2239 0.392117,-0.4642 0.627736,-0.7177 0.255643,-0.2751 0.535249,-0.5595 0.829297,-0.8417 0.147013,-0.1404 0.293666,-0.2754 0.43942,-0.4045 0.145647,-0.1287 0.292013,-0.2542 0.432822,-0.3687 0.05257,-0.044 0.100355,-0.077 0.151982,-0.1171 l 0,-0.069 0,-0.035 0.07605,0.02 c 0.06694,-0.021 0.665878,1.1233 0.736762,1.1094 0.188483,-0.037 0.366129,-0.025 0.535248,0.046 0.253655,0.104 0.49179,0.335 0.736786,0.7177 0.08167,0.127 0.164066,0.2717 0.247787,0.434 0.167646,0.3243 0.339843,0.7201 0.525333,1.194 0.08694,0.2222 0.165155,0.4336 0.234578,0.6329 0.208231,0.5982 0.33795,1.0946 0.389865,1.5007 0.01724,0.1353 0.02623,0.2597 0.02635,0.3752 2.63e-4,0.2311 -0.03449,0.4246 -0.102391,0.5808 -0.03377,0.078 -0.07461,0.1444 -0.125552,0.2055 -0.04084,0.048 -0.08203,0.1187 -0.125552,0.2055 -0.08694,0.1749 -0.181179,0.4248 -0.270936,0.7243 -0.224386,0.7491 -0.437923,1.8197 -0.56496,2.8906 -0.03736,0.3152 -0.08539,0.6198 -0.142078,0.9167 -0.05664,0.2971 -0.121912,0.587 -0.204843,0.8809 -0.08287,0.294 -0.181118,0.5915 -0.297353,0.8972 -0.232434,0.6112 -0.540351,1.2586 -0.948239,2.0064 -0.611821,1.122 -1.45186,2.4662 -2.616713,4.2315 -0.26387,0.3999 -0.552074,0.8192 -0.855715,1.2496 -0.607246,0.8605 -1.280932,1.7664 -1.982378,2.6687 -0.350741,0.451 -0.709086,0.9026 -1.067168,1.3441 -0.716128,0.8829 -1.43713,1.7311 -2.117822,2.4959 -0.340358,0.3823 -0.669291,0.7438 -0.984573,1.0765 -0.315269,0.3329 -0.615952,0.6371 -0.895366,0.907 -0.558841,0.5397 -1.10555,1.0575 -1.618943,1.5269 -1.098209,0.8302 -3.524965,1.4025 -4.694895,1.243 0,0 -0.07724,0.065 -0.08922,0.074 -0.01521,0 -0.03102,-4e-4 -0.04634,0.017 -0.190388,0.061 -0.403014,0.1959 -0.594707,0.385 -0.0479,0.047 -0.105026,0.093 -0.168497,0.1369 -0.06347,0.045 -0.132127,0.091 -0.208148,0.1306 -0.152077,0.082 -0.326166,0.1525 -0.512111,0.2153 -0.185945,0.062 -0.384165,0.1147 -0.581499,0.1501 -0.09856,0.019 -0.196723,0.03 -0.294048,0.039 -0.09724,0.017 -0.194304,0.017 -0.287438,0.017 -0.37256,0 -0.712583,-0.056 -0.958143,-0.1436 -0.06143,-0.021 -0.116522,-0.045 -0.165203,-0.072 -0.04886,-0.025 -0.09125,-0.054 -0.12554,-0.085 -0.03425,-0.028 -0.06119,-0.059 -0.07928,-0.091 -0.01808,-0.032 -0.02635,-0.064 -0.02635,-0.098 0,-0.066 0.06539,-0.1534 0.185022,-0.2513 0.05988,-0.049 0.133145,-0.099 0.218064,-0.1532 0.424486,-0.2683 1.14271,-0.5876 1.952619,-0.8516 0.162065,-0.053 0.31946,-0.11 0.472472,-0.1697 0.153084,-0.06 0.301893,-0.1214 0.442726,-0.1859 0.140737,-0.065 0.274372,-0.1321 0.39978,-0.199 0.125349,-0.069 0.24344,-0.1381 0.350214,-0.2055 0.427026,-0.2733 0.690524,-0.5437 0.690524,-0.7471 0,-0.05 -0.01197,-0.1076 -0.03305,-0.1697 -0.02168,-0.064 -0.05473,-0.134 -0.0958,-0.2056 -0.04108,-0.072 -0.0903,-0.1488 -0.148677,-0.2283 -0.05832,-0.078 -0.124857,-0.1613 -0.198232,-0.2447 -0.07341,-0.084 -0.154916,-0.169 -0.241188,-0.2545 -0.172436,-0.1713 -0.367806,-0.345 -0.578193,-0.5089 -0.105265,-0.082 -0.212423,-0.1621 -0.323784,-0.2382 -0.668189,-0.4571 -1.521629,-0.9501 -2.160778,-1.2593 -0.213058,-0.104 -0.404607,-0.1844 -0.555056,-0.2381 -0.09928,-0.035 -0.19931,-0.058 -0.303965,-0.069 -0.104666,-0.017 -0.211452,-5e-4 -0.323783,0.017 -0.674094,0.1017 -1.510109,0.6983 -2.758803,1.9314 -0.945712,0.9339 -1.761944,1.8162 -2.111212,2.2675 -0.116402,0.1503 -0.181717,0.2532 -0.181717,0.2936 0,0.02 0.01078,0.041 0.02982,0.065 0.01988,0.024 0.05197,0.05 0.08922,0.078 0.07473,0.053 0.1804,0.1135 0.313868,0.1729 0.266912,0.1202 0.635784,0.2454 1.04075,0.3457 0.101194,0.025 0.201729,0.053 0.297354,0.085 0.191262,0.064 0.368572,0.1395 0.525321,0.2218 0.23514,0.1237 0.419768,0.2642 0.531931,0.4014 0.03736,0.045 0.06958,0.09 0.08922,0.1337 0.01988,0.045 0.02982,0.089 0.02982,0.1306 0,0.092 -0.03353,0.1672 -0.0958,0.2218 -0.03114,0.028 -0.07066,0.052 -0.115684,0.069 -0.225453,0.092 -0.617234,0.065 -1.113418,-0.089 -0.258469,-0.08 -0.426319,-0.1252 -0.584804,-0.1665 -0.802603,-0.8236 -1.52727,-1.9169 -2.121127,-3.2853 -0.05856,2e-4 -0.105026,-0.017 -0.142066,-0.033 -0.07425,-0.045 -0.146917,-0.1313 -0.211453,-0.2447 -0.03209,-0.057 -0.06048,-0.1187 -0.08922,-0.1892 -0.02874,-0.07 -0.0582,-0.1465 -0.08263,-0.2283 -0.09784,-0.3244 -0.158592,-0.7272 -0.158592,-1.1289 0,-0.2008 -0.07365,-0.5136 -0.208148,-0.907 -0.134653,-0.3935 -0.328047,-0.8667 -0.568277,-1.3898 -0.120103,-0.2614 -0.25211,-0.5368 -0.393171,-0.8189 -0.141084,-0.2821 -0.290911,-0.5697 -0.449336,-0.8646 -0.158508,-0.2946 -0.326753,-0.5942 -0.49889,-0.8939 -0.172125,-0.2995 -0.349699,-0.6007 -0.531944,-0.8972 -0.364453,-0.5928 -0.710679,-1.1837 -1.027517,-1.7454 -0.475251,-0.8423 -0.883055,-1.6166 -1.169595,-2.2282 -0.286564,-0.6116 -0.452641,-1.0617 -0.452641,-1.2496 0,-0.3758 -0.2108182,-1.103 -0.5088066,-1.8107 -0.099278,-0.2361 -0.2095248,-0.4702 -0.3237838,-0.6884 -0.1713946,-0.3272 -0.3381186,-0.7964 -0.4823765,-1.331 -0.048022,-0.1781 -0.09305,-0.3617 -0.1354678,-0.5515 -0.085027,-0.3794 -0.1565089,-0.7764 -0.2114529,-1.168 -0.027544,-0.1957 -0.051255,-0.3905 -0.069339,-0.5807 -0.018083,-0.1902 -0.032214,-0.3757 -0.039639,-0.5546 -0.02946,-0.7152 -0.049818,-1.4163 -0.059519,-1.9705 -0.00958,-0.5542 -0.00838,-0.961 0.00719,-1.0865 0.011976,-0.093 0.092451,-0.1465 0.2213687,-0.1566 0.4972142,-1.2171 1.0506059,-2.2773 1.6354459,-3.2102 0.0382,0.5208 0.108738,1.011 0.201549,1.3898 0.05653,0.2306 0.119396,0.4222 0.188316,0.5579 0.03449,0.067 0.06922,0.1214 0.105744,0.1598 0.07305,0.076 0.173143,0.2728 0.28745,0.5678 0.09928,0.2561 0.211764,0.6124 0.330394,0.995 0.0012,0.2096 0.0012,0.4199 0.0036,0.6297 -4.79e-4,0.2376 0.0024,0.4768 0.0036,0.7144 4.91e-4,0.2418 -0.0024,0.4828 -0.0036,0.7243 -5.27e-4,0.2175 0.0036,0.435 0.0036,0.6525 0.0012,0.1864 0.01533,0.3717 0.02311,0.5579 -2.75e-4,0.1636 0.02168,0.3267 0.03641,0.4893 0.0084,0.1404 0.02802,0.281 0.04623,0.421 0.02,0.1486 0.04539,0.2947 0.0661,0.4437 0.02144,0.1653 0.05617,0.327 0.08922,0.4893 0.02874,0.1353 0.04575,0.2755 0.07605,0.4111 0.02994,0.1303 0.07305,0.2533 0.108978,0.3817 0.04838,0.1752 0.101912,0.3504 0.151982,0.5253 0.0497,0.1552 0.08922,0.3172 0.128845,0.4763 0.03437,0.1486 0.08814,0.2905 0.132163,0.4372 0.05449,0.1908 0.108738,0.383 0.161898,0.5741 0.04503,0.1654 0.08036,0.3345 0.128845,0.4993 0.0315,0.1052 0.06515,0.2079 0.112331,0.3066 0.02263,0.045 0.05629,0.084 0.09257,0.1171 -0.02132,0.085 -0.03844,0.1684 -0.05281,0.2545 -0.02012,0.1235 -0.03701,0.2476 -0.04958,0.3719 -0.0036,0.1303 -0.0048,0.2582 -0.006,0.3882 -0.0084,0.1123 0.0072,0.2244 0.01653,0.3361 0.01353,0.1186 0.0376,0.236 0.06611,0.3522 0.03617,0.1136 0.05557,0.2284 0.08587,0.3426 0.02922,0.1124 0.07197,0.2223 0.115684,0.3296 0.05125,0.1252 0.119396,0.2427 0.181717,0.3621 0.05952,0.1064 0.116523,0.2137 0.178413,0.3198 0.05138,0.09 0.114726,0.174 0.175107,0.2576 0.05365,0.08 0.111612,0.1533 0.171813,0.2285 0.0582,0.07 0.11772,0.1401 0.178412,0.2087 0.06263,0.067 0.129061,0.1287 0.198232,0.1892 0.08311,0.067 0.165455,0.1354 0.251104,0.199 0.07533,0.052 0.149647,0.1017 0.224662,0.1534 0.07533,0.052 0.13948,0.1135 0.201549,0.1794 0.07377,0.08 0.139204,0.1683 0.201537,0.2578 0.05964,0.085 0.12572,0.1653 0.178413,0.2545 0.05078,0.082 0.09425,0.1692 0.138761,0.2545 0.0012,0 0.0048,0.014 0.006,0.019 0.05305,0.2799 0.120104,0.5495 0.194939,0.7928 0.03736,0.1219 0.07485,0.2373 0.115684,0.3457 0.03629,0.097 0.07425,0.1839 0.112331,0.2676 -0.0072,0.017 -0.01449,0.027 -0.01976,0.043 -0.0303,0.085 -0.04084,0.1708 -0.04622,0.261 0.0096,0.11 0.02802,0.2194 0.05617,0.3263 0.0279,0.1147 0.06156,0.2245 0.142066,0.3164 0.03701,0.036 0.103589,0.091 0.145372,0.1112 0.01353,0 0.02862,-0.025 0.04299,-0.017 l 1.275328,-0.7406 c 0.06467,-0.056 0.09604,-0.1299 0.161886,-0.1859 0.06611,-0.08 0.111133,-0.1677 0.142066,-0.2676 0.04958,-0.1041 0.08826,-0.2094 0.135468,-0.3132 0.05425,-0.1099 0.10778,-0.2219 0.168497,-0.3295 0.0594,-0.1088 0.130593,-0.2125 0.208147,-0.31 0.08574,-0.1369 0.162653,-0.2779 0.231285,-0.424 0.08012,-0.1678 0.158652,-0.3358 0.241176,-0.5025 0.0661,-0.1386 0.125288,-0.2827 0.191633,-0.4209 0.03784,-0.127 0.06802,-0.2521 0.09257,-0.3817 0.0418,-0.1369 0.06814,-0.2788 0.08586,-0.4208 0.01353,-0.152 0.01737,-0.3017 0.0036,-0.4535 -0.01521,-0.1891 -0.04647,-0.3798 -0.07269,-0.5677 -0.03329,-0.2177 -0.06958,-0.4331 -0.112331,-0.6493 -0.05018,-0.2655 -0.103828,-0.532 -0.161886,-0.796 -0.0612,-0.2894 -0.129564,-0.5766 -0.181717,-0.8678 -0.04635,-0.2551 -0.107421,-0.5073 -0.148677,-0.7635 -0.05533,-0.3126 -0.120618,-0.6214 -0.161898,-0.9363 -0.0491,-0.3086 -0.09844,-0.6171 -0.142066,-0.9265 -0.04958,-0.3295 -0.09904,-0.6599 -0.128858,-0.9918 -0.04551,-0.4057 -0.104067,-0.8093 -0.132162,-1.217 -0.0291,-0.3574 -0.0473,-0.7186 -0.06934,-1.0765 -0.01868,-0.3489 -0.02838,-0.6949 -0.03964,-1.0441 -0.01353,-0.4394 -0.0309,-0.8784 -0.03964,-1.318 -0.0096,-0.4461 -0.0096,-0.8945 -0.01653,-1.3409 -5.99e-4,-0.4515 -5.99e-4,-0.9024 0,-1.3539 0.0012,-0.4344 0.0036,-0.8709 0,-1.3051 -0.0036,-0.4629 -0.0096,-0.9234 -0.006,-1.3865 0.0012,-0.2033 0.006,-0.4068 0.0096,-0.6101 0.09628,-0.5681 0.187107,-1.132 0.28745,-1.6834 0.167802,-0.9224 0.331436,-1.7542 0.446031,-2.2739 0.03653,-0.1655 0.06467,-0.3211 0.08922,-0.4634 0.02455,-0.142 0.04383,-0.2718 0.05617,-0.3915 0.02383,-0.2309 0.02215,-0.4166 0,-0.5676 0.453863,-0.5997 -0.562133,-1.1698 2.074878,-1.615 l 2.190514,0.3459 c 0.333352,0.053 0.645352,0.086 0.931712,0.098 0.429528,0.018 0.79925,0 1.083694,-0.072 0.189622,-0.045 0.3417,-0.1088 0.449336,-0.1892 0.05377,-0.04 0.09473,-0.085 0.12554,-0.1339 0.08323,-0.1318 0.298599,-0.2569 0.598013,-0.3587 0.09976,-0.033 0.210303,-0.065 0.327101,-0.095 0.350346,-0.086 0.769479,-0.1482 1.209234,-0.173 0.146498,0 0.293258,-0.016 0.442726,-0.016 l 0,0 z m 10.853447,9.608 0,0 c -0.03114,0.076 -0.05748,0.1499 -0.08586,0.2251 0.0036,-0.024 0.0084,-0.045 0.0096,-0.069 0.0072,-0.045 0.01078,-0.09 0.01653,-0.137 0.02012,0 0.03952,-0.018 0.0594,-0.023 z m -5.279687,9.6571 c 0.09772,0 0.190352,-3e-4 0.280815,0.016 0.09054,0.017 0.178676,0.028 0.26102,0.052 0.16476,0.047 0.311653,0.1124 0.43942,0.2056 0.06395,0.047 0.124858,0.099 0.178412,0.1565 0.05341,0.057 0.09964,0.1212 0.142079,0.1892 0.04227,0.069 0.07844,0.1401 0.108977,0.2187 0.03078,0.078 0.05425,0.1588 0.06934,0.2382 0.07581,0.3969 -0.04275,0.7917 -0.337005,1.145 -0.0588,0.07 -0.12536,0.1412 -0.198244,0.2088 -0.07293,0.067 -0.151191,0.1299 -0.237871,0.1926 -0.150233,0.1088 -0.317341,0.2125 -0.488999,0.3066 -0.514926,0.2826 -1.076616,0.4828 -1.410771,0.4828 -0.06694,0 -0.131492,-0.018 -0.188328,-0.026 -0.05688,-0.017 -0.108738,-0.041 -0.155299,-0.074 -0.09317,-0.067 -0.165862,-0.1663 -0.21804,-0.3001 -0.05209,-0.1336 -0.08191,-0.3028 -0.09257,-0.5024 -0.0048,-0.1005 -0.0048,-0.2069 0,-0.323 0.0048,-0.1171 0.01449,-0.2396 0.02982,-0.3719 0.017,-0.1437 0.03641,-0.2776 0.06275,-0.4013 0.02635,-0.1237 0.05892,-0.2373 0.0958,-0.3426 0.221632,-0.6323 0.640837,-0.9407 1.354618,-1.0407 0.104427,-0.017 0.206159,-0.026 0.303964,-0.026 l 0,0 z m -18.799437,1.2136 c 0.158006,0 0.327424,0.02 0.498902,0.049 0.171455,0.028 0.342825,0.069 0.508807,0.1207 0.110654,0.035 0.21198,0.074 0.303964,0.1171 0.183957,0.085 0.332227,0.1872 0.446031,0.3131 0.05676,0.064 0.104786,0.1336 0.145371,0.2089 0.0406,0.076 0.07413,0.1553 0.09916,0.2446 0.02503,0.089 0.04251,0.1857 0.05293,0.2905 0.0096,0.1052 0.01329,0.2177 0.0096,0.3392 -0.0036,0.1219 -0.01305,0.2513 -0.02982,0.3916 -0.03138,0.2633 -0.08694,0.4992 -0.168509,0.7078 -0.08155,0.2085 -0.1884,0.3904 -0.323784,0.5481 -0.06766,0.078 -0.142773,0.1508 -0.224662,0.2187 -0.08191,0.066 -0.171143,0.1302 -0.267618,0.1859 -0.0964,0.056 -0.202327,0.1064 -0.31388,0.1502 -0.111493,0.045 -0.229728,0.084 -0.356824,0.117 -0.202148,0.056 -0.376872,0.1076 -0.518723,0.1598 -0.02431,-0.03 -0.04742,-0.059 -0.06934,-0.091 -0.05653,-0.08 -0.117241,-0.1591 -0.168497,-0.2413 -0.06227,-0.1017 -0.12039,-0.2059 -0.178412,-0.31 -0.05988,-0.1123 -0.121049,-0.2207 -0.165203,-0.3392 -0.03641,-0.1017 -0.0782,-0.2027 -0.105745,-0.3068 -0.02635,-0.1135 -0.05185,-0.2268 -0.08263,-0.3392 -0.02228,-0.1088 -0.04275,-0.2157 -0.04958,-0.3263 -0.0084,-0.1053 -0.01952,-0.2109 -0.01317,-0.3165 9.58e-4,-0.1235 0.0012,-0.2457 0.01653,-0.3687 0.01521,-0.1202 0.03114,-0.2403 0.05617,-0.3588 0.01713,-0.077 0.04,-0.1531 0.06611,-0.2284 0.08766,-0.037 0.06742,-0.035 0.02311,-0.074 0.03437,-0.08 0.07197,-0.1586 0.108978,-0.2382 0.04563,-0.097 0.09137,-0.1952 0.135467,-0.2936 0.037,-0.1005 0.0788,-0.1988 0.112331,-0.3001 0.0084,0 0.01353,0 0.02311,0 0.125349,-0.019 0.271594,-0.026 0.429504,-0.023 l 0,0 z m -1.830384,1.0669 c -0.0096,0.016 -0.02443,0.022 -0.04623,0.03 0.01521,-0.017 0.0315,-0.021 0.04623,-0.03 z"
       id="path5332"
       inkscape:connector-curvature="0" />
  </g>
</svg>
