<?xml version="1.0" encoding="UTF-8" standalone="no"?>
<!-- Created with Inkscape (http://www.inkscape.org/) -->

<svg
   xmlns:dc="http://purl.org/dc/elements/1.1/"
   xmlns:cc="http://creativecommons.org/ns#"
   xmlns:rdf="http://www.w3.org/1999/02/22-rdf-syntax-ns#"
   xmlns:svg="http://www.w3.org/2000/svg"
   xmlns="http://www.w3.org/2000/svg"
   xmlns:sodipodi="http://sodipodi.sourceforge.net/DTD/sodipodi-0.dtd"
   xmlns:inkscape="http://www.inkscape.org/namespaces/inkscape"
   width="1.5cm"
   height="1.5cm"
   viewBox="0 0 53.149605 53.149605"
   id="svg2"
   version="1.1"
   inkscape:version="0.91 r13725"
   sodipodi:docname="0_ok1.svg"
   inkscape:export-filename="/Users/John/2017/winter/image_hosting/learnest/icons/0_ok1.png"
   inkscape:export-xdpi="50.0695"
   inkscape:export-ydpi="50.0695">
  <defs
     id="defs4">
    <inkscape:path-effect
       effect="spiro"
       id="path-effect4999"
       is_visible="true" />
    <inkscape:path-effect
       effect="vonkoch"
       id="path-effect4732"
       is_visible="true"
       ref_path="m 96.008494,182.45683 105.842186,0"
       generator="m 96.008494,298.13409 35.280726,0 m 35.28073,0 35.28073,0"
       similar_only="false"
       nbgenerations="1"
       drawall="true"
       maxComplexity="1000" />
    <clipPath
       clipPathUnits="userSpaceOnUse"
       id="clipPath5077">
      <path
         style="color:#000000;clip-rule:nonzero;display:inline;overflow:visible;visibility:visible;opacity:1;isolation:auto;mix-blend-mode:normal;color-interpolation:sRGB;color-interpolation-filters:linearRGB;solid-color:#000000;solid-opacity:1;fill:#000000;fill-opacity:1;fill-rule:nonzero;stroke:none;stroke-width:1;stroke-linecap:butt;stroke-linejoin:miter;stroke-miterlimit:4;stroke-dasharray:none;stroke-dashoffset:0;stroke-opacity:1;color-rendering:auto;image-rendering:auto;shape-rendering:auto;text-rendering:auto;enable-background:accumulate"
         d="M -145.99968,852.14646 C -20.463431,803.3904 155.25849,743.00751 281.95453,694.95651 L 1143.5876,355.5203 1654.0256,798.57629 C 1561.9726,859.1483 1426.8812,954.54023 1311.9321,996.62517 966.67479,1128.6283 292.99459,1411.2648 307.14855,1378.0699 L -272.81151,939.6215 c -74.07125,-1.57995 1.2766,-38.71638 126.81183,-87.47504 z"
         id="path5079"
         inkscape:connector-curvature="0" />
    </clipPath>
    <clipPath
       clipPathUnits="userSpaceOnUse"
       id="clipPath5085">
      <rect
         style="color:#000000;clip-rule:nonzero;display:inline;overflow:visible;visibility:visible;opacity:1;isolation:auto;mix-blend-mode:normal;color-interpolation:sRGB;color-interpolation-filters:linearRGB;solid-color:#000000;solid-opacity:1;fill:#ffffff;fill-opacity:1;fill-rule:nonzero;stroke:none;stroke-width:1;stroke-linecap:butt;stroke-linejoin:miter;stroke-miterlimit:4;stroke-dasharray:none;stroke-dashoffset:0;stroke-opacity:1;color-rendering:auto;image-rendering:auto;shape-rendering:auto;text-rendering:auto;enable-background:accumulate"
         id="rect5087"
         width="2233.3789"
         height="1985.2257"
         x="-617.86584"
         y="-488.55334"
         rx="496.30658"
         ry="496.30649"
         transform="matrix(0.93246501,-0.36126029,0.36126029,0.93246501,0,0)" />
    </clipPath>
  </defs>
  <sodipodi:namedview
     id="base"
     pagecolor="#c7c7c7"
     bordercolor="#666666"
     borderopacity="1.0"
     inkscape:pageopacity="0"
     inkscape:pageshadow="2"
     inkscape:zoom="2"
     inkscape:cx="-81.551087"
     inkscape:cy="33.994824"
     inkscape:document-units="cm"
     inkscape:current-layer="layer1"
     showgrid="true"
     units="cm"
     objecttolerance="11"
     inkscape:window-width="1440"
     inkscape:window-height="852"
     inkscape:window-x="35"
     inkscape:window-y="30"
     inkscape:window-maximized="0"
     gridtolerance="10"
     showguides="true">
    <inkscape:grid
       type="xygrid"
       id="grid4136"
       units="cm"
       spacingx="35.43307"
       spacingy="35.433069" />
  </sodipodi:namedview>
  <metadata
     id="metadata7">
    <rdf:RDF>
      <cc:Work
         rdf:about="">
        <dc:format>image/svg+xml</dc:format>
        <dc:type
           rdf:resource="http://purl.org/dc/dcmitype/StillImage" />
        <dc:title></dc:title>
      </cc:Work>
    </rdf:RDF>
  </metadata>
  <g
     inkscape:label="Layer 1"
     inkscape:groupmode="layer"
     id="layer1"
     transform="translate(0,-999.21266)">
    <g
       id="g4144"
       transform="matrix(0.75000008,0,0,0.75000008,0,263.09049)">
      <ellipse
         ry="35.433071"
         rx="35.433067"
         cy="1016.9292"
         cx="35.433067"
         id="path4452"
         style="color:#000000;clip-rule:nonzero;display:inline;overflow:visible;visibility:visible;opacity:1;isolation:auto;mix-blend-mode:normal;color-interpolation:sRGB;color-interpolation-filters:linearRGB;solid-color:#000000;solid-opacity:1;fill:#ffffff;fill-opacity:1;fill-rule:nonzero;stroke:none;stroke-width:1;stroke-linecap:butt;stroke-linejoin:miter;stroke-miterlimit:4;stroke-dasharray:none;stroke-dashoffset:0;stroke-opacity:1;color-rendering:auto;image-rendering:auto;shape-rendering:auto;text-rendering:auto;enable-background:accumulate" />
      <path
         inkscape:connector-curvature="0"
         d="m 19.971267,999.52264 c 0.118197,-0.0304 0.257788,-0.0468 0.423664,-0.046 0.503614,0.006 0.578297,0.0744 0.618597,0.56286 0.02528,0.3069 0.235514,1.2654 0.468823,2.1302 0.366436,1.3577 0.4969,1.6182 0.942457,1.9014 0.593862,0.3772 2.114563,2.1043 2.21556,2.5158 0.03749,0.1528 -0.171943,0.057 -0.465179,-0.2171 -0.29306,-0.2729 -0.600641,-0.4789 -0.684226,-0.4573 -0.08356,0.021 -0.747843,-0.072 -1.476516,-0.2055 -1.703067,-0.3127 -2.177925,-0.2083 -1.930772,0.4281 0.140238,0.361 0.490777,0.5624 1.523559,0.8749 0.737439,0.223 1.406149,0.3889 1.484216,0.3687 0.07809,-0.02 0.275587,0.061 0.439367,0.1795 0.357698,0.2588 1.029154,0.1168 1.254606,-0.2656 0.247102,-0.4183 0.584056,1.0824 0.362156,1.613 -0.09734,0.2331 -0.129613,0.6201 -0.07106,0.8612 0.06108,0.2513 -0.149088,0.9622 -0.493517,1.6654 -0.575848,1.1758 -0.589057,1.2811 -0.327899,2.4982 0.149893,0.6987 0.22894,1.4479 0.17585,1.665 -0.153305,0.6268 0.402747,2.5383 0.792492,2.7224 0.182801,0.087 0.414174,0.4529 0.512238,0.8161 0.09799,0.3636 0.380807,0.9601 0.628845,1.3247 0.248071,0.3647 0.49447,0.8314 0.54829,1.0348 0.0539,0.2032 0.253571,0.5019 0.443044,0.6645 0.897441,0.7699 2.037786,2.172 2.982064,3.67 0.570329,0.9045 1.053762,1.7146 1.075367,1.7987 0.02191,0.085 0.463945,0.5947 0.983327,1.1346 0.519361,0.5399 1.238508,1.4301 1.595749,1.9796 0.357207,0.5493 0.877322,1.2576 1.156773,1.5741 1.037016,1.1745 1.475492,2.4941 2.159907,6.497 0.42508,2.4859 0.603912,4.0728 0.54391,4.8229 -0.04919,0.6153 -0.0532,1.2605 -0.0085,1.434 0.174079,0.6773 -1.238106,2.3473 -3.155413,3.7291 -1.137936,0.82 -3.346528,1.5536 -4.210113,1.3987 -0.630817,-0.1129 -2.288838,-1.0199 -2.358144,-1.2895 -0.02043,-0.079 -0.647845,-0.5196 -1.394903,-0.9785 -1.873461,-1.1508 -2.615054,-1.8339 -3.521672,-3.2431 -1.221527,-1.8985 -1.684903,-3.5503 -2.052037,-7.3089 -0.173467,-1.7761 -0.368615,-4.2669 -0.434458,-5.535 -0.175555,-3.3791 -0.583252,-6.673 -1.001472,-8.1175 -0.389394,-1.345 -1.445988,-3.5895 -1.793985,-3.81 -0.281656,-0.1785 -0.420324,-0.7814 -0.193629,-0.8396 0.100486,-0.026 0.150334,-0.1684 0.111603,-0.3191 -0.03873,-0.1507 -0.151639,-0.2535 -0.252097,-0.2276 -0.100438,0.025 -0.291776,-0.3741 -0.424155,-0.8892 l -0.24067,-0.9364 0.712005,-0.07 c 2.092018,-0.206 2.762807,-0.3461 3.337912,-0.6967 0.340971,-0.2078 0.949048,-0.5544 1.348798,-0.7701 0.609377,-0.3287 0.705726,-0.4633 0.608864,-0.8401 -0.113063,-0.4399 -0.150124,-0.4416 -1.435541,-0.101 -0.725352,0.1988 -1.929556,0.5754 -2.670868,0.8517 -1.930084,0.7181 -2.437072,0.7385 -2.893636,0.1107 -0.489109,-0.6727 -4.491202,-4.3522 -5.323208,-4.8934 -0.354015,-0.2304 -1.1365837,-0.8609 -1.7397227,-1.4021 -1.156771,-1.0378 -2.2511418,-1.8881 -4.3073046,-3.3496 -1.2012625,-0.8539 -1.524075,-1.2473 -1.2554634,-1.5266 0.1612175,-0.1677 2.2559885,1.1112 3.1310641,1.9117 0.5621238,0.5141 0.8441993,0.6165 1.6909589,0.616 0.559333,-5e-4 1.440935,0.1053 1.9574877,0.2329 0.787435,0.1948 1.092059,0.1731 1.888294,-0.1305 1.103994,-0.4207 1.575399,-0.7985 1.476327,-1.1841 -0.05505,-0.2141 0.01758,-0.2527 0.331828,-0.1761 0.43221,0.1056 2.320023,-0.3171 2.457746,-0.5512 0.168054,-0.2777 1.535207,-0.6332 1.592762,-0.4094 0.09352,0.364 -0.460805,0.9929 -1.16136,1.319 -0.363895,0.1689 -0.728895,0.4877 -0.812496,0.7069 -0.08732,0.2293 -0.375324,0.4554 -0.675803,0.5326 -0.359941,0.093 -0.696327,0.4171 -1.084533,1.0451 -0.31012,0.5013 -0.714905,1.0057 -0.897854,1.1201 -0.415531,0.26 -0.218539,1.3226 0.223981,1.2088 0.384593,-0.099 1.866919,-1.4219 1.815936,-1.6202 -0.06721,-0.2615 1.361723,-1.6788 2.016669,-2.0005 0.332692,-0.164 0.650207,-0.4056 0.704153,-0.54 0.07122,-0.1776 0.139873,-0.1888 0.249983,-0.039 0.257116,0.3473 0.853056,0.05 0.94574,-0.471 0.07466,-0.4193 0.18455,-0.5029 0.731085,-0.5529 0.595211,-0.054 0.631462,-0.093 0.515581,-0.5439 -0.06873,-0.2675 -0.251974,-0.5014 -0.409882,-0.5199 -0.789082,-0.091 -1.090945,-1.5491 -0.689441,-3.3336 0.158464,-0.697 0.318421,-1.00157 0.66915,-1.10769 z m -1.597327,-1.78959 c 0.198,-0.0633 0.296897,0.0266 0.442975,0.29551 0.30905,0.56919 0.253581,0.88437 -0.350273,1.97964 -0.2804,0.5087 -0.592416,1.3343 -0.693714,1.836 -0.101321,0.5014 -0.215942,0.9206 -0.252983,0.9301 -0.03702,0.01 -0.255412,-0.6132 -0.484738,-1.3838 l -0.416645,-1.40137 0.534183,-0.9581 c 0.293108,-0.52633 0.734783,-1.06205 0.982193,-1.19218 0.0947,-0.0491 0.172591,-0.0862 0.238992,-0.10582 z m -4.840338,-1.13954 c 0.353223,-0.0908 0.921607,0.74589 1.379606,2.03307 0.27108,0.76181 0.558387,1.40632 0.638063,1.43112 0.210777,0.066 0.602279,2.7586 0.47637,3.2736 -0.104369,0.4267 -0.403059,0.5632 -1.360664,0.622 -0.37481,0.023 -0.457769,-0.086 -0.65072,-0.8371 -0.122153,-0.4752 -0.318998,-0.9233 -0.435281,-0.9952 -0.128314,-0.08 -0.24785,-0.9645 -0.305702,-2.2486 -0.09665,-2.14347 -0.01323,-3.20909 0.258328,-3.27889 z m -4.8806387,1.15161 10e-4,0.004 c 0.03299,-0.0209 0.06362,-0.0287 0.09079,-0.0233 0.457949,0.14262 1.110783,1.12505 1.7507197,2.63748 0.511265,1.2082 0.788456,1.6525 1.128481,1.8092 0.247794,0.1138 0.483811,0.3367 0.524835,0.4963 0.04102,0.1596 0.145956,0.273 0.235662,0.25 0.268083,-0.069 0.544228,0.4558 0.58816,1.1193 0.03375,0.5098 -0.05805,0.6678 -0.507693,0.8807 -0.301576,0.1436 -0.750702,0.3642 -0.998648,0.4926 -0.437934,0.2253 -0.463615,0.2021 -0.853236,-0.8011 -0.220883,-0.569 -0.6602887,-1.5382 -0.9767887,-2.1528 -0.939095,-1.824 -1.483324,-3.65044 -1.27262,-4.26872 0.07383,-0.2166 0.188991,-0.38614 0.289355,-0.4434 z m 4.7522187,-2.52216 c -0.344746,0.0793 -0.647439,0.28385 -0.855123,0.63521 -0.279529,0.47291 -0.462978,2.78075 -0.278669,3.49785 0.06032,0.23462 0.04001,0.50016 -0.04443,0.58816 -0.08569,0.089 -0.20317,-0.0297 -0.264201,-0.2668 -0.244382,-0.95087 -1.474559,-2.7939 -2.0563507,-3.08123 -0.839622,-0.41473 -1.720566,-0.13727 -2.29371,0.71859 -0.4316417,0.64471 -0.4395056,0.76552 -0.1531343,2.13461 0.2215933,1.05945 0.5977903,2.05475 1.3904493,3.67585 0.597654,1.2225 1.057338,2.2689 1.023412,2.3263 -0.03397,0.058 -0.430076,0.023 -0.881158,-0.078 -0.511993,-0.1144 -1.286037,-0.5614 -2.0599728,-1.1886 -1.6096011,-1.3045 -2.4696014,-1.6566 -3.4493941,-1.4084 -1.557651,0.388 -1.6731585,1.7937 -0.2607934,3.1202 0.4097046,0.3847 0.8502099,0.7326 0.9790562,0.7727 0.3501199,0.1087 2.648806,1.8793 3.8947731,3 0.601944,0.5413 1.38586,1.1736 1.742114,1.4035 1.1415797,0.7362 4.9973337,4.3434 4.8294667,4.5181 -0.08748,0.091 -0.05973,0.4362 0.06048,0.7689 0.184436,0.5102 0.299702,0.5929 0.735896,0.5329 0.51424,-0.072 0.518487,-0.063 0.878074,1.337 0.204225,0.7946 0.652195,1.9224 1.029439,2.593 0.367375,0.653 0.740902,1.5858 0.828938,2.0718 0.09006,0.4973 0.23718,0.8626 0.338062,0.8366 0.401014,-0.103 0.801677,2.5972 1.194441,8.0681 0.444488,6.1922 0.597362,7.4835 1.181356,9.8217 0.480033,1.9219 0.697363,2.4877 1.355009,3.5458 0.850867,1.3688 2.027973,2.5881 2.840397,2.9461 0.28282,0.1247 0.66616,0.4175 0.855098,0.6515 0.188953,0.2341 0.409869,0.4089 0.490949,0.388 0.0811,-0.021 0.600444,0.323 1.15428,0.7642 0.553826,0.441 1.463556,0.9524 2.020301,1.1363 0.600177,0.198 0.925965,0.2483 1.465371,0.1699 0,0 6.140766,-2.1386 7.427923,-5.1518 1.287162,-3.0133 -0.964933,-9.8271 -0.964933,-9.8271 -0.04281,-3.8959 -3.061072,-6.7257 -4.885069,-8.9241 -2.18917,-2.7565 -4.293237,-5.0137 -5.756599,-8.1881 -0.07445,0.077 -0.404561,-0.4894 -0.734501,-1.2572 -0.648096,-1.5079 -0.934931,-3.0659 -0.770486,-4.1981 0.138893,-0.9567 0.811965,-2.5692 1.156509,-2.7736 0.252604,-0.1496 0.206762,-0.4426 -0.404148,-2.5924 -0.762641,-2.6837 -0.971392,-3.0627 -2.611683,-4.7554 -1.299912,-1.3413 -1.446868,-1.6522 -1.481746,-3.1523 -0.03163,-1.3609 -0.34345,-1.9568 -1.139412,-2.17348 -0.402859,-0.10959 -0.658091,-0.31648 -0.7282,-0.58925 -0.298863,-1.14833 -2.030828,-1.25716 -3.224488,-0.2037 l -0.590611,0.51883 -0.16093,-0.62614 c -0.373522,-1.45325 -1.787802,-2.34384 -2.822069,-2.10598 z"
         style="color:#000000;clip-rule:nonzero;display:inline;overflow:visible;visibility:visible;opacity:1;isolation:auto;mix-blend-mode:normal;color-interpolation:sRGB;color-interpolation-filters:linearRGB;solid-color:#000000;solid-opacity:1;fill:#000000;fill-opacity:1;fill-rule:nonzero;stroke:none;stroke-width:1;stroke-linecap:butt;stroke-linejoin:miter;stroke-miterlimit:4;stroke-dasharray:none;stroke-dashoffset:0;stroke-opacity:1;color-rendering:auto;image-rendering:auto;shape-rendering:auto;text-rendering:auto;enable-background:accumulate"
         id="path4532" />
      <path
         inkscape:connector-curvature="0"
         d="m 43.018708,1035.1232 0.643464,0.6902 c 0.588827,0.6312 0.764521,0.6754 2.084387,0.5225 1.400182,-0.1622 2.142132,-0.5001 2.142132,-0.979 0,-0.1281 -1.096554,-0.2337 -2.436366,-0.2337 z m 3.346567,-2.9203 c -1.471286,0.027 -3.037453,0.1563 -3.530808,0.363 -0.79551,0.3345 -0.822496,0.3859 -0.36023,0.6544 0.277312,0.1605 1.774468,0.2997 3.338318,0.2997 2.238406,0 2.924491,-0.077 3.255822,-0.4097 0.230839,-0.2309 0.349729,-0.5282 0.266735,-0.6627 -0.121208,-0.1961 -1.498551,-0.2717 -2.969837,-0.2447 z m 7.597834,-12.1516 0,0 c 0.22462,0 0.448667,-6e-4 0.668214,0.028 3.673191,0.4318 4.288888,1.7701 1.702156,3.7013 -2.055431,1.5345 -5.503019,0.2156 -5.518948,-2.1119 -0.0056,-0.8175 1.576236,-1.5805 3.148578,-1.6196 z m -13.501761,-1.9276 c 1.351681,0 3.058724,0.4897 4.259516,1.3447 0.733418,0.5221 0.753788,0.5919 0.404229,1.2677 -0.203708,0.3941 -0.829471,0.9706 -1.391425,1.2787 -1.315448,0.7218 -2.166536,0.8877 -3.110079,0.6131 -0.920966,-0.2682 -1.692182,-0.934 -2.188881,-1.8946 -0.503516,-0.9737 -0.46486,-1.4434 0.162242,-2.0707 0.36926,-0.3691 1.053389,-0.5413 1.864398,-0.5389 z m -6.200911,-4.8095 0.808456,1.8122 c 1.188038,2.6608 1.70475,4.3285 1.520667,4.9084 -0.264101,0.8322 0.788406,2.6938 1.99639,3.5308 0.946729,0.6566 1.336054,0.7569 2.804847,0.7342 0.937979,-0.017 1.940464,-0.096 2.227378,-0.187 0.454493,-0.1436 0.533281,-0.025 0.604967,0.946 0.137892,1.8678 1.447606,2.1197 2.274125,0.4372 0.184276,-0.3752 0.473648,-1.6483 0.640715,-2.8297 0.301211,-2.1297 0.447224,-2.3478 1.355677,-1.9991 0.315574,0.1211 0.363101,0.6922 0.252985,3.1872 -0.131035,2.9697 -0.120673,3.0357 0.434477,3.0357 0.532532,0 0.606182,0.09 0.673713,0.8168 0.02802,0.3018 -2.541819,1.3089 -3.341067,1.3089 -0.257812,0 -0.668096,-0.3 -0.907452,-0.6654 -0.239375,-0.3652 -0.807252,-0.7632 -1.26493,-0.8828 -0.786099,-0.2056 -0.826726,-0.2772 -0.742459,-1.3254 0.05434,-0.6759 -0.02505,-1.1081 -0.200739,-1.1081 -0.158594,0 -0.288734,0.2307 -0.288734,0.5141 0,0.2836 -0.106651,0.5795 -0.236488,0.6601 -0.129867,0.079 -0.314813,0.4661 -0.412476,0.8551 -0.209658,0.8355 0.150218,1.1495 1.333676,1.1495 0.506726,0 1.019217,0.2314 1.352927,0.6021 1.144876,1.2718 1.099424,1.3271 -1.009195,1.1468 -3.606515,-0.3084 -6.543541,1.3047 -4.080778,2.2411 0.51191,0.1946 1.017805,0.1281 2.065137,-0.2695 2.61511,-0.994 8.686776,-0.6014 8.686776,0.561 0,0.4509 1.517228,-0.7661 1.666409,-1.3364 0.07531,-0.2881 -0.01529,-0.7336 -0.200739,-0.9873 -0.280605,-0.3831 -0.721178,-0.4515 -2.626107,-0.4097 -1.259413,0.027 -2.290625,0 -2.290625,-0.046 0,-0.052 0.689201,-0.3073 1.528917,-0.5665 1.993997,-0.6151 2.18888,-0.7974 2.18888,-2.0322 0,-0.8325 -0.120265,-1.0839 -0.599467,-1.2648 -0.328591,-0.1239 -0.699215,-0.1618 -0.827705,-0.087 -0.128473,0.076 -0.176968,-0.025 -0.107242,-0.2282 0.06969,-0.2032 0.413628,-0.3451 0.764459,-0.3163 1.302151,0.1084 2.362121,0.4107 2.362121,0.6737 0,0.1704 0.678792,0.2216 1.8314,0.1408 l 1.8259,-0.1295 -0.475724,1.0641 c -0.262212,0.5856 -0.68542,1.3082 -0.940449,1.606 -0.255054,0.2979 -0.808879,1.2004 -1.231933,2.0046 -0.423054,0.8042 -1.184729,1.8648 -1.691158,2.3566 -0.506427,0.4918 -1.525977,1.635 -2.265874,2.5382 -0.739898,0.9029 -1.719842,1.9098 -2.177883,2.2383 -0.951125,0.6824 -1.827902,0.7466 -2.972587,0.2173 -0.438113,-0.2026 -1.136622,-0.4431 -1.553664,-0.5363 -0.417063,-0.093 -1.194714,-0.5728 -1.726906,-1.0669 -0.532195,-0.4944 -1.42655,-1.2924 -1.988141,-1.7681 -0.561594,-0.4756 -1.31045,-1.4689 -1.66366,-2.2082 -0.35319,-0.7393 -0.806994,-1.6421 -1.009195,-2.0074 -0.378872,-0.6841 -1.267066,-2.7498 -2.279624,-5.3072 -0.483423,-1.2211 -0.599846,-2.161 -0.701212,-5.7197 -0.09244,-3.2459 -0.03223,-4.4631 0.247486,-5.1285 z m -2.318124,-6.3384 c 0.68966,0 1.034395,0.6894 1.28968,2.5766 0.155198,1.1474 0.104763,1.8409 -0.200739,2.714 -0.769934,2.2016 -1.290029,1.6763 -1.891897,-1.9056 -0.385073,-2.2918 -0.127234,-3.385 0.802956,-3.385 z m 10.449428,-6.2009 c 0.137343,-0.02 0.324379,0.059 0.654465,0.2255 0.400475,0.2027 1.085303,0.5038 1.523416,0.6654 0.438115,0.1622 1.213047,0.8432 1.721407,1.5152 1.529841,2.0225 3.21688,3.7952 3.987282,4.1935 0.399647,0.2069 1.455094,0.4943 2.345622,0.6379 1.177478,0.1894 2.219623,0.6247 3.81954,1.5922 1.210003,0.7316 2.641659,1.4058 3.184326,1.5014 1.185234,0.2097 1.368562,0.6333 1.020194,2.3952 -0.386708,1.956 -1.29942,4.8427 -1.322677,4.1907 -0.01112,-0.3129 -0.198253,-0.6361 -0.417978,-0.7205 -0.355207,-0.1365 -4.587107,0.1866 -7.014866,0.5363 -0.50613,0.073 -1.210638,0.446 -1.592162,0.8414 -0.595857,0.6174 -0.838423,0.6933 -1.878149,0.5775 -1.069509,-0.1196 -1.203015,-0.2081 -1.278679,-0.8661 -0.0626,-0.5449 -0.443534,-0.9766 -1.46017,-1.661 -0.754768,-0.5085 -1.481707,-0.924 -1.616912,-0.924 -0.135217,0 -0.80538,-0.3597 -1.487668,-0.7974 -2.265959,-1.4541 -4.970223,-1.9849 -5.887429,-1.1549 -0.295517,0.2675 -0.486723,0.3186 -0.486723,0.1295 0,-0.1702 -0.242019,-0.8308 -0.541721,-1.4685 l -0.547219,-1.1604 0.54172,-1.6004 c 0.2969,-0.8815 0.61977,-2.2847 0.717711,-3.1182 0.147291,-1.2533 0.337607,-1.6742 1.105439,-2.442 0.872425,-0.8725 3.245992,-2.1943 3.959784,-2.1943 0.177412,-10e-4 0.449893,-0.2351 0.602216,-0.5198 0.125559,-0.2345 0.211886,-0.3537 0.349231,-0.3739 z M 54.85681,988.1503 c 0.260377,0.057 1.581726,0.9854 2.840595,2.0431 2.10488,1.7685 3.538727,3.4285 3.984532,4.617 0.182168,0.4858 0.520255,1.3374 0.750708,1.8919 0.493769,1.1878 0.593781,3.1046 0.162242,3.1046 -0.305392,-3e-4 -0.34361,3.8308 -0.04125,4.133 0.08253,0.083 -0.142339,0.4636 -0.497723,0.847 -0.48468,0.523 -0.606235,0.8777 -0.486723,1.4217 0.298662,1.3599 0.19613,2.8589 -0.222738,3.2778 -0.225738,0.2258 -0.62494,0.3987 -0.890951,0.3987 -0.693825,-0.017 -2.483795,-1.0013 -3.354817,-1.8479 -0.610408,-0.5933 -0.67139,-0.7526 -0.332731,-0.8826 0.528503,-0.2029 0.54117,-1.4021 0.0165,-1.6032 -0.544238,-0.209 -0.517028,-1.2292 0.033,-1.2292 0.364109,0 0.406106,-0.2057 0.261236,-1.298 -0.136231,-1.0268 -0.0883,-1.3297 0.230987,-1.4519 0.510613,-0.196 0.523933,-1.0684 0.02201,-1.4849 -0.210274,-0.1746 -0.419433,-0.575 -0.464726,-0.8882 -0.0549,-0.3796 -0.363585,-0.6497 -0.929449,-0.8112 -0.794509,-0.2269 -0.861117,-0.3367 -1.014694,-1.7352 -0.09015,-0.8209 -0.185665,-1.6682 -0.214489,-1.8836 -0.02881,-0.2154 -0.325829,-0.5291 -0.659964,-0.6957 -0.600893,-0.2996 -0.598255,-0.3039 0.20624,-0.4647 0.540838,-0.1082 0.897683,-0.3853 1.066941,-0.8305 0.140004,-0.3683 0.378323,-0.671 0.527971,-0.671 0.149639,0 0.272234,-0.2774 0.272234,-0.6159 0,-0.4295 -0.261481,-0.7454 -0.863452,-1.045 -0.548241,-0.2728 -0.693934,-0.4341 -0.398735,-0.4454 0.550995,-0.02 0.636722,-1.0556 0.131993,-1.5895 -0.191103,-0.2022 -0.221527,-0.2801 -0.134739,-0.2612 z m -4.845234,-3.06608 0,0.006 c -0.907183,-0.0254 -1.811326,0.0493 -2.532612,0.23648 -0.840987,0.21896 -1.832506,0.59244 -2.199879,0.8332 -0.367401,0.24059 -1.453215,0.8564 -2.414369,1.36392 -0.961178,0.50748 -2.043762,1.08068 -2.408869,1.27598 -0.365081,0.1953 -1.129222,0.5636 -1.696657,0.8167 -1.270174,0.5663 -3.883912,2.953 -5.232964,4.7792 -1.128198,1.5271 -1.893123,4.0005 -1.82865,5.9149 0.06422,1.9062 0.0282,2.0791 -0.486723,2.2137 -0.265668,0.069 -0.705404,0.592 -0.976196,1.1604 -0.590783,1.2394 -0.643246,4.334 -0.151242,8.9206 0.347426,3.2388 0.865249,4.7242 1.64991,4.7242 0.444915,0 0.489473,0.2592 0.489473,2.8571 0,1.5706 0.113,3.2544 0.252987,3.7425 0.158706,0.5533 1.639029,4.1629 2.205379,6.0909 0.368324,0.6325 0.678034,1.2862 0.91845,1.9388 0.06293,0.1747 0.120729,0.349 0.173241,0.5224 1.130624,1.5171 2.423398,3.794 3.797541,4.6939 2.4119,1.5796 5.430266,2.5103 8.087308,2.8214 l 10.9609,-15.2424 -0.08799,-0.017 0.519722,-0.8525 c 0.285992,-0.4689 0.522471,-1.1074 0.522471,-1.4189 5.8e-4,-0.3266 0.206743,-0.6218 0.489474,-0.6958 0.356417,-0.093 0.537313,-0.4782 0.665463,-1.4134 0.09696,-0.707 0.413168,-2.0668 0.701212,-3.0221 0.288068,-0.9554 0.596316,-2.666 0.684712,-3.8002 0.0957,-1.2283 0.312651,-2.2126 0.536221,-2.4363 0.206386,-0.2066 0.373979,-0.6215 0.373979,-0.924 0,-0.3026 0.124517,-0.5528 0.274986,-0.5528 0.172385,0 0.239917,-0.7791 0.18149,-2.1201 -0.08073,-1.8519 -0.02931,-2.1697 0.409728,-2.4612 0.440961,-0.2928 0.51018,-0.7135 0.54997,-3.385 0.04269,-2.8648 -0.01014,-3.2056 -0.863454,-5.574 -0.500056,-1.3872 -1.246651,-3.0183 -1.658159,-3.627 -0.96075,-1.4214 -4.486635,-4.45684 -6.184412,-5.32373 -0.723061,-0.36917 -1.631284,-0.90448 -2.01839,-1.19068 -0.675677,-0.49959 -2.192079,-0.8133 -3.704046,-0.8552 z"
         style="color:#000000;clip-rule:nonzero;display:inline;overflow:visible;visibility:visible;opacity:1;isolation:auto;mix-blend-mode:normal;color-interpolation:sRGB;color-interpolation-filters:linearRGB;solid-color:#000000;solid-opacity:1;fill:#000000;fill-opacity:1;fill-rule:nonzero;stroke:none;stroke-width:1;stroke-linecap:butt;stroke-linejoin:miter;stroke-miterlimit:4;stroke-dasharray:none;stroke-dashoffset:0;stroke-opacity:1;color-rendering:auto;image-rendering:auto;shape-rendering:auto;text-rendering:auto;enable-background:accumulate"
         id="path4441" />
    </g>
    <g
       id="g4911"
       transform="matrix(0.16869271,0,0,0.16869271,-147.92183,838.67275)" />
  </g>
</svg>
