<?xml version="1.0" encoding="UTF-8" standalone="no"?>
<!-- Created with Inkscape (http://www.inkscape.org/) -->

<svg
   xmlns:dc="http://purl.org/dc/elements/1.1/"
   xmlns:cc="http://creativecommons.org/ns#"
   xmlns:rdf="http://www.w3.org/1999/02/22-rdf-syntax-ns#"
   xmlns:svg="http://www.w3.org/2000/svg"
   xmlns="http://www.w3.org/2000/svg"
   xmlns:sodipodi="http://sodipodi.sourceforge.net/DTD/sodipodi-0.dtd"
   xmlns:inkscape="http://www.inkscape.org/namespaces/inkscape"
   width="1.5cm"
   height="1.5cm"
   viewBox="0 0 53.149605 53.149605"
   id="svg2"
   version="1.1"
   inkscape:version="0.91 r13725"
   sodipodi:docname="0_spooky0.svg"
   inkscape:export-filename="/Users/John/2017/winter/image_hosting/learnest/icons/0_spooky0.png"
   inkscape:export-xdpi="50.0695"
   inkscape:export-ydpi="50.0695">
  <defs
     id="defs4">
    <inkscape:path-effect
       effect="spiro"
       id="path-effect4999"
       is_visible="true" />
    <inkscape:path-effect
       effect="vonkoch"
       id="path-effect4732"
       is_visible="true"
       ref_path="m 96.008494,182.45683 105.842186,0"
       generator="m 96.008494,298.13409 35.280726,0 m 35.28073,0 35.28073,0"
       similar_only="false"
       nbgenerations="1"
       drawall="true"
       maxComplexity="1000" />
    <clipPath
       clipPathUnits="userSpaceOnUse"
       id="clipPath5077">
      <path
         style="color:#000000;clip-rule:nonzero;display:inline;overflow:visible;visibility:visible;opacity:1;isolation:auto;mix-blend-mode:normal;color-interpolation:sRGB;color-interpolation-filters:linearRGB;solid-color:#000000;solid-opacity:1;fill:#000000;fill-opacity:1;fill-rule:nonzero;stroke:none;stroke-width:1;stroke-linecap:butt;stroke-linejoin:miter;stroke-miterlimit:4;stroke-dasharray:none;stroke-dashoffset:0;stroke-opacity:1;color-rendering:auto;image-rendering:auto;shape-rendering:auto;text-rendering:auto;enable-background:accumulate"
         d="M -145.99968,852.14646 C -20.463431,803.3904 155.25849,743.00751 281.95453,694.95651 L 1143.5876,355.5203 1654.0256,798.57629 C 1561.9726,859.1483 1426.8812,954.54023 1311.9321,996.62517 966.67479,1128.6283 292.99459,1411.2648 307.14855,1378.0699 L -272.81151,939.6215 c -74.07125,-1.57995 1.2766,-38.71638 126.81183,-87.47504 z"
         id="path5079"
         inkscape:connector-curvature="0" />
    </clipPath>
    <clipPath
       clipPathUnits="userSpaceOnUse"
       id="clipPath5085">
      <rect
         style="color:#000000;clip-rule:nonzero;display:inline;overflow:visible;visibility:visible;opacity:1;isolation:auto;mix-blend-mode:normal;color-interpolation:sRGB;color-interpolation-filters:linearRGB;solid-color:#000000;solid-opacity:1;fill:#ffffff;fill-opacity:1;fill-rule:nonzero;stroke:none;stroke-width:1;stroke-linecap:butt;stroke-linejoin:miter;stroke-miterlimit:4;stroke-dasharray:none;stroke-dashoffset:0;stroke-opacity:1;color-rendering:auto;image-rendering:auto;shape-rendering:auto;text-rendering:auto;enable-background:accumulate"
         id="rect5087"
         width="2233.3789"
         height="1985.2257"
         x="-617.86584"
         y="-488.55334"
         rx="496.30658"
         ry="496.30649"
         transform="matrix(0.93246501,-0.36126029,0.36126029,0.93246501,0,0)" />
    </clipPath>
  </defs>
  <sodipodi:namedview
     id="base"
     pagecolor="#c7c7c7"
     bordercolor="#666666"
     borderopacity="1.0"
     inkscape:pageopacity="0"
     inkscape:pageshadow="2"
     inkscape:zoom="5.6568542"
     inkscape:cx="-28.06216"
     inkscape:cy="5.8555955"
     inkscape:document-units="cm"
     inkscape:current-layer="layer1"
     showgrid="true"
     units="cm"
     objecttolerance="11"
     inkscape:window-width="1440"
     inkscape:window-height="852"
     inkscape:window-x="0"
     inkscape:window-y="0"
     inkscape:window-maximized="1"
     gridtolerance="10"
     showguides="true">
    <inkscape:grid
       type="xygrid"
       id="grid4136"
       units="cm"
       spacingx="35.43307"
       spacingy="35.433069" />
  </sodipodi:namedview>
  <metadata
     id="metadata7">
    <rdf:RDF>
      <cc:Work
         rdf:about="">
        <dc:format>image/svg+xml</dc:format>
        <dc:type
           rdf:resource="http://purl.org/dc/dcmitype/StillImage" />
        <dc:title />
      </cc:Work>
    </rdf:RDF>
  </metadata>
  <g
     inkscape:label="Layer 1"
     inkscape:groupmode="layer"
     id="layer1"
     transform="translate(0,-999.21265)">
    <circle
       style="color:#000000;clip-rule:nonzero;display:inline;overflow:visible;visibility:visible;opacity:1;isolation:auto;mix-blend-mode:normal;color-interpolation:sRGB;color-interpolation-filters:linearRGB;solid-color:#000000;solid-opacity:1;fill:#ffffff;fill-opacity:1;fill-rule:nonzero;stroke:none;stroke-width:1;stroke-linecap:butt;stroke-linejoin:miter;stroke-miterlimit:4;stroke-dasharray:none;stroke-dashoffset:0;stroke-opacity:1;color-rendering:auto;image-rendering:auto;shape-rendering:auto;text-rendering:auto;enable-background:accumulate"
       id="path4141"
       cx="26.574802"
       cy="1025.7875"
       r="26.574802" />
    <path
       id="path5178"
       style="fill-opacity:1"
       d="m 40.919084,1031.8608 c -0.929431,-0.5159 -0.743964,-1.4954 0.331649,-1.7503 0.564257,-0.1337 0.656826,-0.087 0.905137,0.4648 0.434995,0.9654 -0.347902,1.7788 -1.236786,1.2855 z m -9.337459,3.292 c -0.516996,-0.1615 -0.810342,-1.2706 -0.452442,-1.7106 0.529321,-0.6508 1.382422,0.01 1.475931,1.1354 0.04401,0.5317 -0.387047,0.7741 -1.023844,0.5745 z m 6.778557,-2.2706 c -0.139479,-0.1892 -0.323024,-0.7258 -0.407926,-1.193 -0.146785,-0.8083 -0.124746,-0.8594 0.457471,-1.0577 0.388927,-0.1314 0.689337,-0.1115 0.822029,0.044 0.392932,0.4714 0.630114,1.4799 0.439148,1.8682 -0.277804,0.5654 -1.004601,0.7536 -1.310776,0.3387 z m -2.196245,0.9326 c -0.383001,-0.1884 -0.91413,-1.7466 -0.725936,-2.1298 0.154985,-0.3154 0.932347,-0.641 1.471738,-0.6229 0.519217,0.02 1.094059,1.878 0.708653,2.2908 -0.389798,0.4172 -1.090888,0.6415 -1.454316,0.4622 z m -2.795706,0.7914 c -0.806969,-0.6578 -0.575606,-1.6506 0.467728,-2.0063 0.733482,-0.2514 1.004256,0.044 1.014644,1.1039 0.0068,0.7035 -0.06201,0.8254 -0.561328,0.9955 -0.369616,0.1237 -0.692641,0.094 -0.921072,-0.093 z m 8.543886,2.3652 c -0.121213,-0.3556 0.144968,-0.8214 0.548129,-0.9587 0.589786,-0.2005 0.610369,0.7003 0.02245,0.9794 -0.320534,0.1499 -0.513254,0.1483 -0.570546,-0.02 z m -7.431524,4.5161 c -0.287803,-0.084 -0.571367,-0.34 -0.658337,-0.5953 -0.131317,-0.385 -0.06716,-0.4778 0.452967,-0.655 0.33401,-0.1115 0.738791,-0.1409 0.901194,-0.062 0.421991,0.2074 0.614985,0.9129 0.317432,1.1608 -0.360881,0.302 -0.449493,0.3146 -1.013227,0.1509 z m 8.450778,-2.578 c -0.44201,-0.089 -0.735556,-0.764 -0.52141,-1.1991 0.08004,-0.1622 0.371004,-0.3723 0.646627,-0.4669 0.643315,-0.2191 1.052606,0.2834 0.855448,1.0504 -0.152835,0.5943 -0.379195,0.7365 -0.981109,0.6149 z m -1.736184,1.1353 c -0.426494,-0.5115 -0.369906,-1.1173 0.126354,-1.3525 0.587445,-0.2734 0.943297,0.054 0.868638,0.8066 -0.0566,0.5695 -0.687033,0.9151 -0.995096,0.5457 z m -4.447239,1.4651 c -0.981101,-0.2827 -0.912482,-1.1901 0.11657,-1.5408 0.571626,-0.1952 0.963999,0.052 1.204534,0.7574 0.184282,0.5407 0.152015,0.6233 -0.301618,0.7684 -0.279384,0.09 -0.738106,0.097 -1.019495,0.015 z m 2.824423,-0.5812 c -0.03301,-0.096 -0.244835,-0.1617 -0.471002,-0.1449 -0.364546,0.022 -0.39901,-0.024 -0.303856,-0.4406 0.07801,-0.3412 0.263895,-0.5075 0.676254,-0.6055 0.493614,-0.1164 0.593733,-0.062 0.756665,0.4162 0.147,0.4314 0.102513,0.594 -0.205415,0.7501 -0.215424,0.1112 -0.419325,0.123 -0.452594,0.025 z m -10.489472,-28.9075 c -0.973724,-1.1276 -2.97886,-2.4059 -3.489026,-2.2241 -0.107126,0.039 0.200859,0.2332 0.685969,0.4324 1.025827,0.4219 2.600629,1.7369 2.807821,2.3447 0.07883,0.2312 0.226451,0.4615 0.328274,0.5122 0.33431,0.1662 0.109509,-0.5526 -0.333068,-1.0652 z m -6.670084,10.128 c 0.06479,-0.2831 -0.360567,-0.1381 -0.642605,0.2188 -0.174535,0.221 -0.139602,0.2464 0.188507,0.1376 0.223236,-0.07 0.426195,-0.2339 0.454483,-0.3561 z m 15.698781,-0.9654 c 0.971695,-0.7403 1.488686,-1.69 1.369485,-2.5173 -0.06985,-0.4852 -0.290065,-0.8133 -0.931646,-1.388 -0.462075,-0.414 -0.902185,-0.7317 -0.977963,-0.7061 -0.07432,0.031 -0.221114,-0.1978 -0.323026,-0.4969 -0.164496,-0.4827 -0.107262,-0.5962 0.510254,-1.011 0.476319,-0.3203 0.602306,-0.4889 0.400105,-0.5349 -0.475574,-0.1089 -0.940027,0.4803 -1.565227,1.9881 -0.634385,1.5295 -1.054765,2.0681 -2.054827,2.6324 -0.621092,0.347 -0.633455,0.3892 -0.328099,0.898 0.484545,0.8076 1.087163,1.3227 1.783501,1.5247 0.527128,0.1529 0.766242,0.1904 1.294531,0.2026 0.02575,0.01 0.395312,-0.2648 0.823359,-0.5911 z m -9.249219,4.1791 c 0.817411,-0.7145 1.541621,-2.1663 1.454813,-2.9181 -0.08274,-0.716 0.06951,-0.957 0.754374,-1.1947 0.275806,-0.099 0.480292,-0.244 0.451192,-0.3287 -0.02831,-0.083 0.113228,-0.3297 0.315234,-0.5462 0.202254,-0.216 0.372406,-0.5292 0.378717,-0.6948 0.0063,-0.1659 -0.169925,-2e-4 -0.392064,0.3671 -0.576814,0.956 -1.524321,1.2295 -3.351664,0.9664 -1.514483,-0.2178 -4.603354,0.05 -4.76532,0.4169 -0.144706,0.3232 0.0021,2.4228 0.212313,3.0395 0.384605,1.1283 2.266466,1.776 4.208568,1.4487 0.06681,-0.016 0.397131,-0.2602 0.733001,-0.5546 z m 1.307491,1.5335 c 0.08247,-0.3604 -0.348157,-0.3146 -0.487706,0.053 -0.108692,0.2851 -0.08002,0.3324 0.153311,0.253 0.156838,-0.056 0.30837,-0.1911 0.334204,-0.305 z m 7.593989,-0.2596 c 1.127673,-0.4446 1.359404,-0.8528 1.030451,-1.8179 -0.248982,-0.7305 -0.910882,-1.4743 -1.767674,-1.9865 -0.598696,-0.3577 -0.637676,-0.3548 -0.975096,0.075 -0.479764,0.6153 -0.988473,2.3695 -0.937453,3.2323 0.05586,0.9434 0.775279,1.5755 1.314704,1.1552 0.193718,-0.1493 0.794114,-0.4464 1.334628,-0.6611 z m -9.718139,4.6517 c -0.953273,0.2047 -1.438433,0.068 -3.276024,-0.9264 -0.575087,-0.3109 -1.073899,-0.509 -1.108304,-0.4402 -0.08257,0.1641 1.934573,1.2244 2.851336,1.4981 0.79502,0.2374 1.824477,0.178 2.193322,-0.1266 0.131441,-0.1099 -0.165237,-0.1113 -0.660295,0 z m -1.500709,2.1829 c 0.128774,-0.1604 -0.08093,-0.1915 -0.641957,-0.095 -0.91906,0.1617 -1.629101,-0.056 -1.794269,-0.5403 -0.135323,-0.3972 -1.35358,-1.7286 -1.642127,-1.7947 -0.321656,-0.074 -0.688625,-1.2959 -0.421532,-1.404 0.12559,-0.046 0.03747,-0.1007 -0.192201,-0.1132 -0.263552,-0.014 -0.582304,0.1453 -0.863803,0.436 l -0.446471,0.4582 0.623148,0.1934 c 0.567938,0.1764 2.409855,1.8634 2.580254,2.3633 0.134211,0.394 1.16821,0.9979 1.604521,0.9375 0.746447,-0.1045 0.995595,-0.1959 1.19276,-0.4448 z m 6.976901,11.3491 c 0,0 -1.543951,-0.2602 -2.200583,-0.5561 -0.357732,-0.1613 -0.941362,-0.3351 -1.297004,-0.3865 -0.90618,-0.131 -2.392685,-0.9524 -2.797298,-1.5458 l -0.34002,-0.4987 0.140453,0.6305 c 0.116471,0.5228 0.06882,0.6439 -0.279602,0.7099 -0.581528,0.1131 -0.970152,-0.9332 -0.446174,-1.1995 0.335198,-0.1705 0.310589,-0.2776 -0.609221,-2.6612 -0.741643,-1.9216 -1.084661,-2.6029 -1.515843,-3.011 -1.507918,-1.4268 -3.577603,-3.0469 -4.477083,-3.5043 -0.988262,-0.503 -1.035991,-0.5046 -3.220324,-0.1018 -3.713208,0.6843 -4.402681,0.5739 -6.421257,-1.0318 -1.903249,-1.5139 -3.7409036,-4.1047 -4.7931652,-6.7575 -1.6961662,-4.276 -1.5332658,-7.4796 0.5990528,-11.7782 0.7479587,-1.508 1.211508,-2.1586 2.2528904,-3.162 0.721,-0.6951 1.658173,-1.5981 2.082204,-2.0073 0.423998,-0.4093 1.848797,-1.3533 3.165181,-2.0992 2.570746,-1.4543 4.689953,-2.209 7.777506,-2.7701 2.85585,-0.5189 4.264226,-0.4574 6.646132,0.2914 1.110678,0.3488 1.687621,0.6129 4.015512,1.8365 1.184491,0.6227 6.178624,5.1945 6.407355,5.8654 0.05684,0.1668 0.437582,0.4721 0.846097,0.6786 0.771932,0.3905 1.120455,1.0047 1.089775,1.9205 -0.0088,0.2641 0.127236,1.0951 0.302395,1.847 l 0.31842,1.3669 0.891974,0.4548 0.891991,0.4546 0.582275,1.7682 c 0.778565,2.3643 0.775492,2.6269 -0.04075,3.5174 -0.376033,0.4095 -0.89279,1.2315 -1.148932,1.8259 l -0.465764,1.0809 0.510665,0.2724 c 0.449554,0.2397 0.541917,0.4161 0.77371,1.478 0.144745,0.6631 0.236492,1.3763 0.203778,1.5847 -0.07142,0.4547 -0.898692,0.7842 -1.165571,0.4637 -0.294606,-0.3527 -0.767405,-0.2911 -1.438807,0.1881 -0.499765,0.3624 -0.740477,0.4159 -1.281771,0.3435 -0.426967,-0.064 -0.859528,0.011 -1.199551,0.2115 -0.346109,0.2015 -0.828084,0.2798 -1.377216,0.2287 -0.828976,-0.079 -0.852365,-0.07 -1.235491,0.4837 -0.352316,0.5089 -0.59696,0.6289 -2.497308,1.222 -1.158892,0.3613 -2.178604,0.7674 -2.266422,0.9015 -0.08737,0.135 -0.440618,0.3081 -0.780981,0.3906 -0.477209,0.113 -0.680836,0.05 -0.877183,-0.2631 -0.140845,-0.2254 -0.377317,-0.4091 -0.52562,-0.4081 -0.216187,0 -0.198106,0.072 0.08537,0.3333 0.501636,0.4683 0.483235,1.1045 -0.05098,1.7639 -0.59685,0.7365 -0.542462,1.425 0.261914,3.3192 0.580279,1.3664 0.739351,1.5909 1.37397,1.9396 0.394637,0.2165 0.771252,0.3758 0.836743,0.3535 0.06411,-0.028 0.385417,0.053 0.710975,0.1673 0.784381,0.2757 0.893683,0.2133 0.663592,-0.3835 -0.17583,-0.457 -0.252004,-0.4775 -0.925982,-0.2478 -0.716092,0.2446 -0.739805,0.2344 -0.952494,-0.3897 -0.161366,-0.4734 -0.136801,-0.6865 0.09469,-0.8189 0.369533,-0.2132 1.197348,0.1007 1.334871,0.504 0.07516,0.2205 0.128911,0.2178 0.242131,-0.011 0.07999,-0.1623 0.381366,-0.3757 0.67199,-0.4712 0.503772,-0.171 0.533958,-0.143 0.733994,0.6205 0.184724,0.7049 0.154848,0.8258 -0.251981,1.0191 l -0.463411,0.2153 0.775728,0.4415 c 0.426769,0.2432 0.885701,0.4045 1.020047,0.3588 0.269668,-0.088 0.448963,-0.079 2.126799,0.1659 0.628355,0.091 1.216272,0.076 1.306283,-0.034 0.09014,-0.1093 1.029612,-0.4695 2.085456,-0.8047 1.056706,-0.3339 1.993673,-0.715 2.079105,-0.8558 0.142946,-0.2257 0.993186,-0.7125 2.175843,-1.2422 0.411859,-0.1808 0.459251,-0.145 0.642825,0.5223 0.381181,1.3863 0.03083,2.0821 -1.835027,3.645 -1.368702,0.9427 -6.48688,1.4519 -9.540719,1.6184 z"
       inkscape:connector-curvature="0"
       sodipodi:nodetypes="sscsccscccscsccccccccscscccsccscsscsccccccccccscccscccssccccccccccccccccccccccssscccccsccscsscsccccccccsscscccsscscsccccccccscccccccscsscsscssssccssssccsscccscccssscccccccccccccsscsscscccccccccsccccscc" />
  </g>
</svg>
