<?xml version="1.0" encoding="UTF-8" standalone="no"?>
<!-- Created with Inkscape (http://www.inkscape.org/) -->

<svg
   xmlns:dc="http://purl.org/dc/elements/1.1/"
   xmlns:cc="http://creativecommons.org/ns#"
   xmlns:rdf="http://www.w3.org/1999/02/22-rdf-syntax-ns#"
   xmlns:svg="http://www.w3.org/2000/svg"
   xmlns="http://www.w3.org/2000/svg"
   xmlns:sodipodi="http://sodipodi.sourceforge.net/DTD/sodipodi-0.dtd"
   xmlns:inkscape="http://www.inkscape.org/namespaces/inkscape"
   width="4cm"
   height="4cm"
   viewBox="0 0 141.73228 141.73228"
   id="svg2"
   version="1.1"
   inkscape:version="0.91 r13725"
   sodipodi:docname="learnest0_avatar.svg"
   inkscape:export-filename="/Users/John/2017/winter/image_hosting/learnest/png/learnest0_avatar.png"
   inkscape:export-xdpi="50.0695"
   inkscape:export-ydpi="50.0695">
  <defs
     id="defs4">
    <inkscape:path-effect
       effect="vonkoch"
       id="path-effect4732"
       is_visible="true"
       ref_path="m 96.008494,182.45683 105.842186,0"
       generator="m 96.008494,298.13409 35.280726,0 m 35.28073,0 35.28073,0"
       similar_only="false"
       nbgenerations="1"
       drawall="true"
       maxComplexity="1000" />
  </defs>
  <sodipodi:namedview
     id="base"
     pagecolor="#c7c7c7"
     bordercolor="#666666"
     borderopacity="1.0"
     inkscape:pageopacity="0"
     inkscape:pageshadow="2"
     inkscape:zoom="2"
     inkscape:cx="87.178871"
     inkscape:cy="100.26926"
     inkscape:document-units="px"
     inkscape:current-layer="layer1"
     showgrid="true"
     units="cm"
     objecttolerance="11"
     inkscape:window-width="1440"
     inkscape:window-height="852"
     inkscape:window-x="17"
     inkscape:window-y="0"
     inkscape:window-maximized="0"
     gridtolerance="10">
    <inkscape:grid
       type="xygrid"
       id="grid4136"
       units="cm"
       spacingx="35.43307"
       spacingy="35.433069" />
  </sodipodi:namedview>
  <metadata
     id="metadata7">
    <rdf:RDF>
      <cc:Work
         rdf:about="">
        <dc:format>image/svg+xml</dc:format>
        <dc:type
           rdf:resource="http://purl.org/dc/dcmitype/StillImage" />
        <dc:title></dc:title>
      </cc:Work>
    </rdf:RDF>
  </metadata>
  <g
     inkscape:label="Layer 1"
     inkscape:groupmode="layer"
     id="layer1"
     transform="translate(0,-910.62995)">
    <g
       id="g4140"
       transform="translate(-70.866128,177.16488)">
      <rect
         y="733.4646"
         x="70.866135"
         height="141.73228"
         width="141.73227"
         id="rect4883"
         style="color:#000000;clip-rule:nonzero;display:inline;overflow:visible;visibility:visible;opacity:1;isolation:auto;mix-blend-mode:normal;color-interpolation:sRGB;color-interpolation-filters:linearRGB;solid-color:#000000;solid-opacity:1;fill:#000000;fill-opacity:0.03921569;fill-rule:nonzero;stroke:none;stroke-width:1;stroke-linecap:butt;stroke-linejoin:miter;stroke-miterlimit:4;stroke-dasharray:none;stroke-dashoffset:0;stroke-opacity:1;color-rendering:auto;image-rendering:auto;shape-rendering:auto;text-rendering:auto;enable-background:accumulate" />
      <ellipse
         ry="70.866142"
         rx="70.866135"
         cy="804.33075"
         cx="141.73227"
         id="path4881"
         style="color:#000000;clip-rule:nonzero;display:inline;overflow:visible;visibility:visible;opacity:1;isolation:auto;mix-blend-mode:normal;color-interpolation:sRGB;color-interpolation-filters:linearRGB;solid-color:#000000;solid-opacity:1;fill:#ffffff;fill-opacity:1;fill-rule:nonzero;stroke:none;stroke-width:1;stroke-linecap:butt;stroke-linejoin:miter;stroke-miterlimit:4;stroke-dasharray:none;stroke-dashoffset:0;stroke-opacity:1;color-rendering:auto;image-rendering:auto;shape-rendering:auto;text-rendering:auto;enable-background:accumulate" />
      <path
         inkscape:connector-curvature="0"
         id="path4738"
         transform="translate(0,698.03153)"
         d="m 152.32617,58.558594 -1.97265,4.003906 c 0.34521,0.0627 0.17272,0.03106 0.52343,0.09766 0.61523,0.11874 1.22966,0.239963 1.83985,0.382813 0.71296,0.16648 1.42538,0.342155 2.11914,0.578125 0.55149,0.20063 1.1199,0.413603 1.56054,0.814453 0.27537,0.33007 0.33584,0.670333 0.26954,1.095703 -0.0895,0.63242 -0.25667,1.248309 -0.45313,1.855469 -0.32152,0.9498 -0.6796,1.886863 -1.06055,2.814453 -0.35472,0.878301 -0.74368,1.742025 -1.16211,2.591797 -0.25194,0.363692 -0.49966,0.707447 -0.69921,0.925781 -0.77836,0.81518 -1.62507,1.528227 -2.69336,1.935547 -1.13736,0.43403 -2.3138,0.745484 -3.51758,0.933594 -1.42612,0.27287 -2.86554,0.476213 -4.30664,0.652343 -1.39032,0.16623 -2.77783,0.353982 -4.17188,0.488282 -1.32476,0.15342 -2.64687,0.326068 -3.96289,0.542968 -1.37316,0.23517 -2.74205,0.490783 -4.10937,0.757813 -1.31884,0.267 -2.62472,0.58916 -3.92188,0.947265 -1.20935,0.338803 -2.409,0.705589 -3.59961,1.105469 -0.19341,0.06512 -0.38358,0.139466 -0.57617,0.207031 -4.27539,1.034335 -8.40643,3.586923 -11.65625,6.34375 -0.85741,0.773451 -1.61214,1.622446 -2.25977,2.603516 -0.21585,0.32702 -0.41921,0.666951 -0.61132,1.025391 -0.19242,0.35889 -0.37264,0.734326 -0.54102,1.128906 -0.16387,0.47779 -0.3543,0.945161 -0.49023,1.431641 -0.27442,0.98205 -0.42921,1.980435 -0.49414,2.984375 -0.0217,0.33465 -0.0322,0.668216 -0.0352,1.003906 -0.0122,1.34338 0.11516,2.691409 0.30859,4.023429 0.64272,4.25177 1.40665,8.48386 2.07032,12.73243 0.43369,2.86756 0.87568,5.73506 1.26562,8.60937 0.19497,1.43716 0.37697,2.87532 0.53906,4.31641 0.16219,1.44172 0.30333,2.88488 0.41797,4.33203 0.26186,3.96398 0.45718,7.94326 0.34961,11.91211 -0.0215,0.79377 -0.0538,1.58621 -0.10156,2.3789 -0.0954,1.58605 -0.24749,3.16883 -0.4707,4.74805 l -0.1875,0.084 c 0.0344,0.26874 0.0493,0.5399 0.0664,0.81054 -0.24373,1.43425 -0.39084,2.36041 -0.5625,3.28907 -0.17173,0.92913 -0.36767,1.85888 -0.71289,3.29882 -0.26862,1.12045 -0.56899,2.23227 -0.88476,3.33985 l -0.31055,0.0996 c -0.20235,0.59048 -0.38886,1.18944 -0.58008,1.78515 -0.40903,1.20382 -0.85249,2.39595 -1.26172,3.59961 -0.0568,0.0666 -0.1121,0.13229 -0.16992,0.19922 l 0.11524,-0.041 c -0.007,0.0197 -0.0149,0.0389 -0.0215,0.0586 -0.0157,0.0427 -0.0293,0.0862 -0.0449,0.1289 a 70.866135,70.866142 0 0 0 2.93359,1.62305 c 0.36834,-1.07715 0.73473,-2.15508 1.11914,-3.22656 0.16297,-0.45919 0.34642,-0.91027 0.51563,-1.36719 -0.0579,1.75665 -0.14973,3.51211 -0.23828,5.26758 a 70.866135,70.866142 0 0 0 2.89062,1.39648 c 0.0222,-0.26171 0.0444,-0.52342 0.0664,-0.78515 0.0513,-0.59687 0.10206,-1.19414 0.1543,-1.79102 0.048,0.0851 0.0946,0.17076 0.14257,0.25586 0.2451,0.43325 0.50567,0.85772 0.78516,1.26953 0.33842,0.48191 0.69598,0.94977 1.07031,1.4043 0.21791,0.27116 0.45063,0.52967 0.67774,0.79297 a 70.866135,70.866142 0 0 0 2.90625,1.06055 c -0.38485,-0.40539 -0.77036,-0.80976 -1.13868,-1.23047 -0.43012,-0.48354 -0.85464,-0.97243 -1.25585,-1.48047 -0.35986,-0.45447 -0.71057,-0.91591 -1.03516,-1.39649 -0.26821,-0.41038 -0.5183,-0.83173 -0.75391,-1.26171 -0.20773,-0.37612 -0.42025,-0.74893 -0.61719,-1.13086 -0.16016,-0.30648 -0.31825,-0.61349 -0.46679,-0.92579 -0.0243,-0.0513 -0.0512,-0.10139 -0.0762,-0.15234 0.23082,-2.71102 0.4474,-5.42282 0.57617,-8.14062 0.0715,-1.54375 0.10316,-3.08812 0.14453,-4.63282 0.16295,-0.92717 0.30616,-1.85556 0.52734,-3.19922 0.24355,-1.6662 0.41077,-3.33702 0.51953,-5.01171 0.0277,-0.42634 0.0421,-0.85296 0.0625,-1.2793 0.37463,-0.69072 0.96319,-0.89742 1.62305,-0.87305 1.09977,0.0406 2.3971,0.72114 3.22852,0.86133 1.1254,0.22533 2.24715,0.46231 3.36718,0.71289 0.95825,0.19295 1.90466,0.44163 2.85938,0.65039 0.85876,0.18675 1.72499,0.33336 2.5918,0.47656 0.71593,0.12127 1.43577,0.22193 2.15429,0.32618 0.57359,0.0802 1.14445,0.16552 1.72266,0.20312 0.52733,5e-4 1.05815,-0.0124 1.58398,-0.0547 1.27164,0.81445 1.44777,1.039 1.875,2.25391 l 0,0.002 c 0.19905,0.52242 0.42758,1.02759 0.69532,1.51367 0.4016,0.72913 0.89058,1.41375 1.5,2.04493 0.95684,0.93871 2.00043,1.78019 3.04687,2.61523 1.18903,0.97165 2.48869,1.78632 3.81445,2.55469 1.09059,0.62998 2.24974,1.11112 3.42383,1.55469 0.25006,0.38639 0.49619,0.77509 0.74219,1.16406 0.35184,0.57548 0.71196,1.14562 1.06445,1.7207 0.35147,0.57362 0.72838,1.13121 1.09766,1.69336 0.3457,0.52558 0.70585,1.0414 1.07226,1.55274 0.3234,0.44578 0.6512,0.88817 1,1.31445 0.30595,0.36523 0.62569,0.71823 0.95899,1.05859 0.29501,0.29839 0.60903,0.57806 0.93359,0.84375 0.27706,0.22283 0.56982,0.4247 0.86328,0.625 0.23151,0.15125 0.46201,0.30357 0.69336,0.45508 0.0341,0.0218 0.0709,0.0394 0.10547,0.0606 -0.84831,0.0532 -1.69652,0.0934 -2.54687,0.0781 -1.42015,0.004 -2.84037,0.011 -4.25586,-0.125 -1.25955,-0.0965 -2.51903,-0.19524 -3.77149,-0.36328 -1.19074,-0.14924 -1.93536,-0.12494 -2.4707,-0.38476 -0.13383,-0.065 -0.25387,-0.14815 -0.36523,-0.25586 -0.11137,-0.10772 -0.21425,-0.23951 -0.31055,-0.4043 -0.1926,-0.32959 -0.36235,-0.78775 -0.53906,-1.43164 -0.80601,-3.59337 -2.70686,-4.88019 -5.85938,-5.70508 0.10161,0.30205 0.18759,0.60751 0.26758,0.91602 0.0802,0.3091 0.15383,0.61947 0.22852,0.92968 0.20368,0.99234 0.46574,1.97159 0.6914,2.95899 0.19886,0.9852 0.48534,1.94865 0.76172,2.91406 0.1131,0.44887 0.24373,0.89103 0.38867,1.33008 0.1451,0.43965 0.34436,0.86127 0.47071,1.30664 0.43122,1.52 0.72906,3.07788 0.97461,4.63867 0.055,0.34986 0.0557,0.7087 0.11132,1.05664 l 0,0.002 c 0.0429,0.26771 0.10341,0.5313 0.16407,0.79493 a 70.866135,70.866142 0 0 0 0.0976,0.006 70.866135,70.866142 0 0 0 4.01172,-0.14258 c -0.68807,-2.32912 -1.61445,-5.22118 -1.00391,-5.7793 1.75365,-0.40337 5.79425,0.59743 7.23633,0.59766 1.51258,0.0171 3.02212,-0.082 4.53125,-0.16602 1.25519,-0.0601 2.50481,-0.18287 3.75391,-0.3164 0.99324,-0.10346 1.98225,-0.24226 2.95508,-0.46876 0.22156,-0.049 0.44059,-0.10852 0.65625,-0.17578 0.64698,-0.20178 1.2692,-0.47574 1.88281,-0.76367 0.81124,-0.34229 1.57399,-0.73979 2.29492,-1.18359 1.80276,-1.10974 3.34447,-2.50871 4.74414,-4.05469 0.27988,-0.30911 0.55492,-0.62361 0.82422,-0.94336 0.53894,-0.6399 1.05681,-1.2979 1.56445,-1.9668 0.50735,-0.66847 1.0033,-1.34608 1.49414,-2.02539 0.9817,-1.35861 1.94495,-2.72053 2.94922,-4.01367 1.2772,-1.67229 2.50867,-3.37758 3.70117,-5.11133 0.66069,-0.9712 1.32162,-1.94407 1.93946,-2.94336 l 0.55664,-0.88281 0.0996,-0.0254 c 0.46376,-0.62728 0.92606,-1.49061 1.37109,-2.36523 0.44503,-0.87462 0.8728,-1.76053 1.26953,-2.4336 1.39265,-2.35251 2.69554,-4.75857 3.87696,-7.22461 0.66933,-1.32967 1.47178,-4.8284 2.21875,-6.36718 l 0.13086,-0.0488 c 0.49735,-1.39401 1.01893,-2.77792 1.54687,-4.16016 0.52772,-1.38167 1.06114,-2.75996 1.58203,-4.14453 0.53961,-1.54096 1.05611,-3.08984 1.55469,-4.64453 0.17587,-0.67694 0.3748,-1.34669 0.60937,-2.00586 0.16327,-0.47997 0.33791,-0.95563 0.51758,-1.42969 0.12721,-0.36161 0.25964,-0.72114 0.36524,-1.08984 0.0742,-0.31154 0.14768,-0.6231 0.20898,-0.9375 0.0736,-0.38349 0.1504,-0.76626 0.2207,-1.15039 0.0881,-0.50829 0.15555,-1.02077 0.21485,-1.53321 0.0854,-0.70041 0.15251,-1.40307 0.19531,-2.10742 0.0452,-0.8636 0.0724,-1.72868 -0.002,-2.59179 -0.029,-0.34563 -0.0662,-0.69132 -0.12696,-1.03321 -0.0606,-0.34129 -0.14423,-0.67694 -0.26367,-1.0039 -0.0748,-0.16666 -0.1547,-0.32584 -0.26367,-0.45118 -0.10897,-0.125267 -0.24698,-0.216741 -0.44141,-0.249991 -0.25652,-0.043 -0.51378,-0.07555 -0.77343,-0.03125 -0.27211,0.0367 -0.53806,0.106547 -0.80078,0.185547 -0.4674,0.0768 -0.87949,0.421574 -1.15821,0.589844 -0.006,0.007 -0.0644,0.0677 -0.0664,0.082 -0.002,0.0112 0.005,0.0526 0.006,0.0879 0.001,0.0364 -0.004,0.0648 -0.0352,0.0469 -0.0439,-0.0615 -0.0716,-0.13115 -0.10352,-0.19922 -0.004,-0.007 -0.007,-0.0145 -0.01,-0.0215 -0.0696,-0.15355 -0.13011,-0.31272 -0.20508,-0.46289 -0.16299,-0.347389 -0.33455,-0.691286 -0.54688,-1.011716 -0.22103,-0.32381 -0.46269,-0.635323 -0.77539,-0.876953 -0.26013,-0.18599 -0.54432,-0.301062 -0.86718,-0.318359 -0.28388,-0.009 -0.57298,0.01606 -0.84571,0.09766 -0.216,0.0622 -0.4247,0.139292 -0.62695,0.226562 -0.60675,0.26182 -1.16217,0.620435 -1.73633,0.984375 -0.0466,-0.0893 -0.1023,-0.185147 -0.14844,-0.273437 -0.0459,-0.0878 -0.0816,-0.166219 -0.0898,-0.222656 -0.0277,-0.18498 -0.0543,-0.370638 -0.0879,-0.554688 -0.0335,-0.1913 -0.0622,-0.382512 -0.0781,-0.576172 -0.0252,-0.21486 -0.0506,-0.430201 -0.0801,-0.644531 -0.0251,-0.23798 -0.0408,-0.475804 -0.0527,-0.714844 -0.0141,-0.23385 -0.0302,-0.468322 -0.0566,-0.701172 -0.029,-0.24313 -0.0547,-0.485425 -0.084,-0.728515 -0.0341,-0.24428 -0.0623,-0.489649 -0.0723,-0.736328 -0.015,-0.197902 -0.0286,-0.395776 -0.006,-0.59375 l -0.11328,0.05078 c -0.008,-0.0426 -0.006,-0.034 -0.0195,-0.101563 -0.15508,-0.63834 -0.32081,-1.273847 -0.52539,-1.898437 -0.1752,-0.48645 -0.36338,-0.969125 -0.70703,-1.365235 -0.27599,-0.26449 -0.59028,-0.454968 -0.98828,-0.417968 -1.08158,0.0981 -2.05191,0.893307 -2.88281,1.560546 -0.40308,0.364143 -0.76436,0.773919 -1.06055,1.230469 -0.17331,0.2792 -0.3291,0.566031 -0.46485,0.863281 -0.13605,0.297731 -0.25127,0.60436 -0.34179,0.921876 -0.21398,0.728937 -0.36362,1.473045 -0.44922,2.228515 -0.10127,0.83794 -0.17407,1.678269 -0.21485,2.521485 -0.0452,0.985225 -0.0829,1.970585 -0.0859,2.957035 -0.0191,1.17892 -0.0494,2.35798 -0.0293,3.53711 0.0178,1.15415 0.0277,2.30877 0.0469,3.46289 0.007,0.7995 0.0225,1.59893 0.0215,2.39844 0,0.37312 5e-5,0.74617 0.008,1.11914 -0.62067,3.77012 -1.60663,11.15226 -2.42968,14.6289 -0.58932,2.41433 -1.22111,4.8222 -1.95899,7.19532 -0.18447,0.59328 -0.37556,1.18293 -0.57422,1.77148 l 0,0.002 c -0.0517,0.15314 -0.10937,0.30425 -0.16211,0.45703 -0.35257,1.02147 -0.72372,2.03617 -1.1289,3.03907 -0.23292,0.57651 -0.47554,1.14956 -0.72852,1.71875 -1.71298,3.65321 -3.55299,7.03066 -6.41016,9.9375 -0.59015,0.59 -1.18173,1.16267 -1.79296,1.71289 -0.61124,0.55023 -1.24215,1.07798 -1.91211,1.57812 -0.42355,0.31619 -1.8098,1.02864 -1.29297,0.91797 0.0232,-0.005 0.0436,-0.0176 0.0664,-0.0234 -0.96531,0.48611 -1.95653,0.9361 -2.98046,1.27344 -1.02398,0.33734 -2.08076,0.56204 -3.17383,0.59766 -1.85846,-0.0531 -3.65306,-0.44289 -5.41211,-1.04688 -1.55933,-0.52334 -3.10052,-1.10724 -4.53516,-1.92187 -1.28882,-0.74521 -2.56032,-1.52076 -3.71484,-2.4668 -2.61974,-1.69865 -3.96958,-3.72208 -4.88477,-6.05078 -0.18303,-0.4656 -0.34898,-0.94186 -0.5039,-1.43164 -0.30985,-0.97956 -0.57602,-2.00776 -0.85352,-3.08203 -0.18941,-0.77085 -0.36983,-1.54375 -0.52344,-2.32227 -0.0768,-0.38894 -0.14566,-0.77821 -0.20703,-1.16992 -0.0614,-0.39172 -0.11458,-0.78463 -0.15625,-1.17969 -0.15903,-1.44989 -0.26559,-2.90552 -0.24219,-4.36523 8.6e-4,-0.6091 0.0116,-1.22096 0.0645,-1.82813 1.23433,0.0391 2.46867,0.0251 3.70117,-0.13476 2.52949,-0.32319 5.01586,-0.91803 7.35351,-1.96094 0.80204,-0.39099 1.56063,-0.76994 2.2793,-1.14062 1.43735,-0.74148 2.71324,-1.44882 3.83789,-2.1504 1.68699,-1.05237 3.03641,-2.09198 4.09766,-3.20898 1.41542,-1.48979 2.31634,-3.11816 2.8125,-5.10742 0.12406,-0.49711 0.22158,-1.0151 0.29687,-1.56055 0.37644,-2.72729 0.16559,-6.10227 -0.41797,-10.55273 -0.0694,-0.4947 -0.15464,-0.98572 -0.2539,-1.47461 -0.0991,-0.48827 -0.21265,-0.97253 -0.33789,-1.45508 -0.75148,-2.89525 -1.93972,-5.688102 -3.16992,-8.386722 -1.39179,-2.32217 -2.09424,-3.729891 -3.85743,-5.775391 -0.93111,-1.08021 -1.96805,-2.041336 -3.08984,-2.882812 -0.74786,-0.560981 -1.53381,-1.069738 -2.35156,-1.523438 -0.61762,-0.342668 -1.25293,-0.654712 -1.9043,-0.935547 l 0.19727,-0.443359 c -0.32913,0.01062 -0.6513,0.06329 -0.97071,0.130859 -0.39471,-0.152731 -0.79262,-0.296923 -1.19726,-0.427734 -0.7351,-0.199068 -1.46352,-0.419929 -2.20313,-0.59961 0.83777,-0.114501 1.67691,-0.219424 2.51172,-0.353515 1.23021,-0.17808 2.4415,-0.451628 3.625,-0.830078 1.16542,-0.36692 2.1542,-1.03666 3.05469,-1.84375 1.91743,-1.95739 3.10554,-4.543313 4.44336,-6.882813 0.62751,-1.20426 1.12663,-2.46562 1.64453,-3.71875 0.39529,-0.96354 0.78261,-1.933441 1.08203,-2.931641 0.21348,-0.672969 0.35846,-1.361299 0.34766,-2.068359 -0.0224,-0.64873 -0.39213,-1.128854 -0.84766,-1.552734 -0.57605,-0.45115 -1.25375,-0.731035 -1.9375,-0.972657 -0.72049,-0.246659 -1.4588,-0.435633 -2.19531,-0.626953 -0.61455,-0.15532 -1.2332,-0.290647 -1.85156,-0.429687 -0.35675,-0.07474 -0.17919,-0.03893 -0.52735,-0.111328 z m -21.34375,24.927734 c 2.16416,-4.54e-4 4.32591,0.162917 6.45899,0.513672 -0.89603,0.217129 -1.78877,0.444815 -2.67579,0.697266 -1.19763,0.3114 -2.35002,0.762933 -3.48437,1.251953 -1.05416,0.46401 -2.05848,1.031212 -3.03906,1.632812 -0.91065,0.57052 -1.77892,1.205927 -2.64453,1.841797 -0.7812,0.60017 -1.52855,1.239716 -2.25,1.910156 -0.63954,0.55817 -1.21016,1.184273 -1.76954,1.820313 -0.46898,0.53507 -0.9161,1.088815 -1.32421,1.671875 -1.11883,1.64123 -2.22197,3.325446 -2.97852,5.166016 -0.23056,0.450042 -0.40836,0.921312 -0.54883,1.406252 -0.0731,0.20848 -0.1474,0.4166 -0.2207,0.625 l 2.47656,-2.406252 c -0.11089,0.191775 -0.0482,0.0826 -0.16992,0.292968 -0.0473,0.08168 0.0989,-0.161887 0.14844,-0.242187 0.0269,-0.04867 0.0259,-0.04118 0.043,-0.07227 l 0.72265,-0.703125 c 0.0684,-0.2029 0.13743,-0.406875 0.20703,-0.609375 0.0401,-0.09743 0.0887,-0.190644 0.13086,-0.287109 0.14173,-0.195337 0.28044,-0.392026 0.43555,-0.578125 0.55039,-0.63898 1.06829,-1.3069 1.68945,-1.88086 0.71162,-0.66866 1.41202,-1.349125 2.18164,-1.953125 0.82264,-0.67378 1.70069,-1.280669 2.57227,-1.888672 0.94442,-0.616737 1.91152,-1.200686 2.93164,-1.685546 1.09052,-0.5217 2.20978,-0.991943 3.37695,-1.314454 1.25071,-0.374149 2.5049,-0.732203 3.78321,-1.001953 1.23998,-0.30923 2.49562,-0.542451 3.73437,-0.857421 1.06192,-0.20872 2.11512,-0.462017 3.17969,-0.654297 0.14242,-0.03069 0.28961,-0.06455 0.43555,-0.09766 2.10521,1.022867 4.00184,2.38271 5.6582,4.042969 0.41386,0.41484 0.81308,0.846305 1.19726,1.296875 0.38453,0.4509 0.75329,0.919247 1.10743,1.404297 0.68352,0.93621 1.2569,1.947465 1.88476,2.921875 0.31683,0.59983 0.619,1.204566 0.9043,1.816406 0.57089,1.22417 1.07558,2.471651 1.51367,3.740231 0.21895,0.63402 0.42133,1.27182 0.60547,1.91602 l 0,0.002 c 0.18394,0.6436 0.34994,1.29215 0.49805,1.94531 0.44497,1.9619 0.72609,3.96476 0.82812,6.00196 0.0527,0.41409 0.0937,0.81881 0.12305,1.21679 0.441,5.97073 -1.75016,10.14378 -6.7461,13.02539 -1.13828,0.55929 -2.31915,0.99868 -3.52734,1.34961 -1.20819,0.35093 -2.44369,0.6134 -3.68945,0.81641 -0.52301,0.0772 -1.04748,0.13051 -1.57227,0.16601 -1.04958,0.071 -2.1024,0.0678 -3.1543,0.0254 -0.52592,-0.0212 -1.05087,-0.0516 -1.57617,-0.0879 l -2.89453,2.53321 -0.0176,-0.002 c 5.4e-4,0.005 -0.002,0.0144 -0.002,0.0195 l -0.0996,0.0859 0.0879,0.006 c -0.0131,0.19923 -0.11047,0.49276 -0.24805,0.83203 -0.13757,0.33928 -0.31499,0.72322 -0.49023,1.10352 -0.1755,0.38088 -0.34835,0.75729 -0.47461,1.08008 -0.063,0.16115 -0.11397,0.30745 -0.14844,0.43554 -0.0347,0.12877 -0.0519,0.23733 -0.0469,0.32032 0.0631,1.46447 0.22453,2.92114 0.4043,4.375 0.15987,0.61936 0.2975,1.23686 0.42187,1.85156 0.23115,1.14219 0.4171,2.26584 0.61914,3.36328 -0.29745,-0.0194 -0.59387,-0.0519 -0.89062,-0.0918 -0.72472,-0.0854 -1.44759,-0.17752 -2.16993,-0.28125 -0.86228,-0.12395 -1.72503,-0.25818 -2.58007,-0.42578 -0.96482,-0.19096 -1.91688,-0.42927 -2.88086,-0.62305 -1.13195,-0.2281 -2.26049,-0.46798 -3.39258,-0.69531 -1.06794,-0.22914 -2.13585,-0.4574 -3.20313,-0.68945 -0.8209,-0.18198 -1.64433,-0.3534 -2.46484,-0.53711 -0.64877,-0.12511 -1.29451,-0.26634 -1.94141,-0.40039 -0.0824,-0.0211 -0.16533,-0.0406 -0.24804,-0.0606 8e-5,-0.0196 0.002,-0.039 0.002,-0.0586 0.003,-0.83914 -0.005,-1.67817 -0.0215,-2.51758 -0.0492,-2.51822 -0.17739,-5.0358 -0.33008,-7.54687 -0.44709,-5.84053 -1.2466,-11.64661 -1.98633,-17.45508 -0.54201,-4.30255 -1.20997,-8.58742 -1.71484,-12.894531 -0.0693,-0.64574 -0.12231,-1.294109 -0.14844,-1.943359 -0.0262,-0.64859 -0.0263,-1.295706 0.01,-1.941406 0.0706,-1.2914 0.28245,-2.57102 0.70899,-3.8125 0.15272,-0.44451 0.36326,-0.867302 0.54492,-1.300782 0.55085,-1.090217 1.22266,-2.013937 1.98828,-2.832031 0.24268,-0.09128 0.48533,-0.183945 0.72852,-0.273437 0.96322,-0.36244 1.93806,-0.691322 2.90234,-1.050782 1.02504,-0.37191 2.04392,-0.759822 3.06641,-1.138671 1.17434,-0.42276 2.36514,-0.797148 3.5625,-1.148438 0.23583,-0.06651 0.47285,-0.128241 0.70898,-0.193359 0.18609,-0.02429 0.36996,-0.05276 0.55664,-0.07617 1.53344,-0.13583 3.07938,-0.212561 4.625,-0.212891 z m 56.73828,7.777344 c 0.16212,-0.004 0.31871,0.0233 0.46875,0.128906 0.32248,0.31156 0.48368,0.729965 0.63867,1.140625 0.22059,0.59938 0.37685,1.220577 0.52149,1.841797 l -0.043,0.01953 c 0.0153,0.20388 0.0387,0.407408 0.0547,0.611328 0.0147,0.25367 0.0524,0.50391 0.084,0.75586 0.0301,0.23914 0.0558,0.47858 0.0762,0.71875 0.0215,0.22707 0.0379,0.456 0.0527,0.683593 0.006,0.246843 0.0343,0.491579 0.0644,0.736329 0.0247,0.2149 0.0478,0.429211 0.0684,0.644531 0.0125,0.20308 0.0549,0.403136 0.0879,0.603516 0.0296,0.180109 0.0546,0.359775 0.0762,0.541015 -0.0247,0.16858 0.69961,0.604508 0.85938,0.716798 -0.0101,0.0139 -0.0256,0.0228 -0.0352,0.0371 l 0.0625,-0.0195 0.002,0.002 0.004,-0.004 1.43945,-0.429693 c 0.13652,-0.0855 0.29906,-0.167705 0.51563,-0.271485 -0.18257,0.10742 -0.32446,0.191591 -0.41992,0.244141 l 0.60742,-0.181641 c 0.0872,-0.0896 0.18375,-0.170403 0.2793,-0.251953 0.1718,-0.0498 0.34687,-0.08811 0.52539,-0.111328 0.24578,-0.0286 0.48252,0.006 0.70703,0.107422 0.14523,0.0853 0.26899,0.194946 0.38086,0.316406 0.11187,0.12147 0.21186,0.254711 0.30664,0.390631 0.10017,0.1491 0.18899,0.30369 0.27148,0.46289 0.0828,0.15968 0.15843,0.32251 0.23243,0.48632 0.10015,0.24857 0.17482,0.50688 0.29687,0.7461 0.0556,0.0924 0.12412,0.17199 0.20703,0.22656 0.0822,0.0546 0.17719,0.0835 0.28711,0.0742 0.54229,-0.0817 0.99417,-0.38797 1.43555,-0.7168 0.1603,-0.0506 0.31957,-0.10424 0.48242,-0.14648 0.22038,-0.0524 0.4456,-0.0811 0.67187,-0.0664 0.14158,0.006 0.22968,0.0209 0.29883,0.0644 0.0692,0.0436 0.11936,0.11627 0.1875,0.24219 0.0636,0.14654 0.11668,0.29541 0.16211,0.44727 0.0454,0.15186 0.0835,0.30552 0.11524,0.46093 0.0636,0.31151 0.10345,0.62785 0.13867,0.94336 0.0759,0.84382 0.0318,1.69024 -0.0274,2.53321 -0.0695,0.70019 -0.1422,1.40109 -0.25585,2.0957 -0.0685,0.51295 -0.15387,1.02284 -0.25977,1.5293 -0.0939,0.37947 -0.15106,0.76747 -0.25391,1.14453 -0.0666,0.30834 -0.12495,0.62145 -0.22265,0.92187 -0.12237,0.34705 -0.22155,0.70256 -0.34766,1.04883 -0.17158,0.47518 -0.3428,0.95159 -0.48828,1.43555 -0.11789,0.32598 -0.21124,0.65692 -0.29297,0.99219 -0.0819,0.33586 -0.15172,0.67424 -0.2207,1.01367 -0.35647,1.52449 -0.83611,3.01631 -1.30274,4.50976 -0.87974,2.62467 -1.77042,5.24719 -2.67578,7.86329 l -0.0273,0.01 c -0.1116,0.34566 -0.29997,0.85981 -0.5293,1.45703 -0.68799,1.79166 -1.74349,4.3322 -2.1914,5.32422 -1.10028,2.46033 -2.37505,4.83616 -3.75,7.15234 -0.73089,1.25192 -2.15471,3.33503 -3.07032,4.60938 l -0.0977,0.0312 c -0.007,0.0354 -0.005,0.0723 -0.0195,0.10547 -0.0161,0.0378 -0.0486,0.0675 -0.0684,0.10351 -0.18659,0.33863 -0.36009,0.68305 -0.55274,1.01954 -0.27903,0.48802 -0.56873,0.96795 -0.86523,1.44531 -0.29679,0.47784 -0.59951,0.95167 -0.90235,1.42578 -1.09394,1.71841 -2.26018,3.38696 -3.48047,5.01758 -0.40353,0.41199 -0.797,0.83183 -1.18359,1.25781 -0.38692,0.42633 -0.76548,0.85725 -1.13867,1.29102 -0.74576,0.86671 -1.46734,1.74098 -2.17774,2.59765 -1.42113,1.71377 -2.79703,3.35457 -4.23242,4.71094 -0.57422,0.38993 -1.12888,0.80629 -1.70508,1.19336 -0.39495,0.17992 -0.79778,0.34361 -1.20898,0.48437 -0.95987,0.2554 -1.91993,0.4788 -2.91016,0.58594 -1.00994,0.12203 -2.02004,0.24366 -3.0332,0.33594 -0.0802,-0.0405 -0.16006,-0.0805 -0.24023,-0.1211 -0.24192,-0.12508 -0.48294,-0.25514 -0.72657,-0.37695 -0.21515,-0.11566 -0.42967,-0.23083 -0.63867,-0.35742 -0.23566,-0.14499 -0.4684,-0.29419 -0.70508,-0.4375 -0.29322,-0.18759 -0.58379,-0.38064 -0.85937,-0.59375 -0.32241,-0.25128 -0.62988,-0.51843 -0.92188,-0.80469 -0.32977,-0.3325 -0.65293,-0.67272 -0.95898,-1.02734 -0.34966,-0.41798 -0.68088,-0.85165 -1.00586,-1.28906 -0.37132,-0.50279 -0.72839,-1.01579 -1.07617,-1.53516 -0.37287,-0.55571 -0.74475,-1.1117 -1.0957,-1.68164 -0.26611,-0.43041 -0.53096,-0.86126 -0.79493,-1.29297 1.51396,0.45208 3.05637,0.77302 4.63672,0.88867 1.45514,0.0298 2.84792,-0.28816 4.19922,-0.75586 1.02889,-0.3561 2.03633,-0.79177 3.01367,-1.26953 0.4342,-0.24163 0.87479,-0.47403 1.30274,-0.72656 1.49603,-0.88282 3.00359,-1.74653 4.46875,-2.67969 0.44231,-0.28171 0.83539,-0.63291 1.24609,-0.95898 1.3158,-1.04466 2.46275,-2.1697 3.60547,-3.39844 0.41843,-0.4607 0.82153,-0.935 1.20898,-1.42188 0.38716,-0.48644 0.7581,-0.98383 1.11329,-1.49414 0.71037,-1.02061 1.3554,-2.08704 1.93164,-3.18945 0.71744,-1.37255 1.20195,-2.56416 1.81836,-3.98828 0.467,-1.15656 0.90056,-2.32355 1.30859,-3.5 0.40785,-1.17586 0.78886,-2.35941 1.14844,-3.55078 0.71915,-2.38275 1.35319,-4.7922 1.94336,-7.21094 0.36189,-0.47053 0.61744,-1.51781 0.79687,-2.84375 0.17943,-1.32594 0.28296,-2.93127 0.33984,-4.51758 0.0284,-0.79315 0.0456,-1.58145 0.0547,-2.32812 0.0271,-2.24003 -0.0167,-4.10304 -0.0293,-4.58594 l 0.18945,-0.0918 c -0.0653,-0.34699 -0.0731,-0.70303 -0.0937,-1.05468 -0.0331,-0.78501 -0.0813,-1.56883 -0.1211,-2.35352 -0.0475,-1.14403 -0.0778,-2.28882 -0.0996,-3.43359 -0.0139,-1.1781 0.0259,-2.35584 0.0605,-3.53321 0.0205,-0.99016 0.0777,-1.978615 0.14063,-2.966795 0.0526,-0.8377 0.13767,-1.672526 0.25195,-2.503906 0.0927,-0.73916 0.26215,-1.460046 0.49609,-2.166016 0.19118,-0.61161 0.50827,-1.15901 0.8711,-1.68164 0.16505,-0.2178 0.34734,-0.418602 0.54101,-0.607422 z m 4.57813,8.701172 -0.0957,0.02734 c -0.17104,0.107106 -0.16908,0.118356 0.0957,-0.02734 z m -61.82617,-2.578125 c -0.16972,0.0053 -0.34149,0.01999 -0.51172,0.04297 -0.67556,0.102309 -1.32459,0.308611 -1.96485,0.544921 -0.64066,0.24088 -1.27036,0.509717 -1.90429,0.767579 -0.57562,0.256929 -1.152,0.521196 -1.69532,0.841796 -0.35657,0.19531 -0.6949,0.421375 -0.99804,0.691405 -0.1544,0.14056 -0.30884,0.29563 -0.41016,0.47656 l -0.90234,3.09766 c 0.2042,-0.12377 0.35612,-0.31814 0.50586,-0.50195 0.24808,-0.30531 0.55476,-0.54604 0.86718,-0.78125 0.51017,-0.36237 1.06746,-0.64218 1.62891,-0.91407 0.61428,-0.27687 1.23837,-0.53425 1.86523,-0.78125 0.60568,-0.23399 1.22265,-0.44169 1.85743,-0.58007 0.59807,-0.11404 1.20105,-0.0917 1.79492,0.0273 0.66231,0.1679 1.2173,0.56648 1.73633,0.99414 0.59383,0.49872 1.08106,1.10194 1.55273,1.71289 0.27521,0.37351 0.52343,0.76371 0.79102,1.14258 l 1.76562,-2.5293 c -0.27647,-0.38041 -0.54492,-0.76954 -0.83398,-1.14062 -0.51419,-0.629125 -1.04186,-1.250349 -1.66211,-1.779299 -0.59264,-0.48813 -1.22815,-0.935359 -1.9707,-1.162109 -0.49779,-0.123848 -1.00259,-0.18568 -1.51172,-0.169922 z m 17.97265,1.902343 c -0.34621,0.0071 -0.69207,0.05326 -1.02929,0.13086 -0.34996,0.08802 -0.69342,0.218247 -1.01954,0.373047 -0.32373,0.13318 -0.63077,0.301181 -0.92968,0.482421 -0.21743,0.12664 -0.43558,0.25134 -0.64649,0.38867 l -0.93359,3.04297 c 0.19743,-0.14623 0.38911,-0.30098 0.60742,-0.41601 0.29163,-0.16889 0.56851,-0.36271 0.86914,-0.51563 0.30292,-0.13192 0.60284,-0.27242 0.90625,-0.4043 0.29944,-0.0784 0.5975,-0.15414 0.90625,-0.18554 0.32374,-0.008 0.64757,-0.0339 0.9707,0.002 0.31621,0.0238 0.62586,0.0785 0.9336,0.15625 0.31552,0.0749 0.62733,0.16054 0.93359,0.26758 0.26702,0.0971 0.54146,0.17449 0.79883,0.29687 0.24123,0.10677 0.48331,0.21592 0.72461,0.32227 0.14464,0.0622 0.29139,0.10888 0.40625,0.22265 0.0866,0.084 0.12798,0.20434 0.19726,0.30274 0.0343,0.11032 0.10608,0.20153 0.0801,0.29883 l 2.04297,-2.50781 c -0.0921,-0.12606 -0.151,-0.27162 -0.25,-0.39649 -0.0785,-0.1737 -0.21913,-0.30003 -0.36523,-0.41601 -0.17304,-0.14704 -0.38208,-0.23262 -0.5918,-0.3125 -0.23743,-0.10091 -0.47853,-0.19531 -0.71484,-0.29883 -0.27467,-0.127056 -0.56165,-0.224309 -0.84961,-0.316409 -0.32757,-0.10692 -0.65727,-0.208063 -0.99219,-0.289063 -0.33122,-0.09035 -0.6673,-0.155066 -1.00781,-0.197266 -0.34746,-0.0425 -0.6976,-0.04225 -1.04688,-0.03125 z m -4.1289,15.488278 c -0.18918,-0.009 -0.37783,-0.007 -0.56836,0.0176 -0.46951,0.0295 -0.94075,0.0552 -1.41016,0.0859 -0.54784,0.0365 -1.09571,0.0675 -1.64258,0.11719 -3.59662,0.13988 -6.83827,0.39029 -5.10156,4.60351 0.0867,0.15777 0.19377,0.30191 0.31641,0.4336 0.0193,0.0198 0.0427,0.0353 0.0625,0.0547 0.015,0.098 0.0475,0.19248 0.12695,0.28711 0.15281,0.17844 0.3334,0.31004 0.54492,0.41211 0.2367,0.14168 0.49212,0.25508 0.75781,0.33008 0.30371,0.0919 0.60804,0.16983 0.91797,0.24024 0.33011,0.0457 0.65598,0.10606 0.98828,0.13476 0.35022,0.0288 0.69965,0.0496 1.05079,0.0586 0.35978,-0.002 0.7163,-0.0609 1.07421,-0.0937 0.40568,-0.0511 0.81029,-0.10671 1.21485,-0.16601 0.48069,-0.0716 0.96118,-0.14377 1.43945,-0.23047 0.43326,-0.079 0.86665,-0.16117 1.28125,-0.31445 1.46349,-0.6304 1.25879,-0.71176 2.4082,-3.06641 0.008,-0.28657 -0.10653,-0.54511 -0.23437,-0.79687 -0.10447,-0.21115 -0.22368,-0.41415 -0.35547,-0.60938 -0.16034,-0.22773 -0.33709,-0.44426 -0.54688,-0.62891 -0.23602,-0.20474 -0.49779,-0.36792 -0.77929,-0.5039 -0.31841,-0.12815 -0.63664,-0.25214 -0.97656,-0.31446 -0.18949,-0.0203 -0.37919,-0.0414 -0.56836,-0.0508 z m 1.31445,4.69727 c 0.0731,0.20578 -0.0284,0.27294 -0.2168,0.36133 0.10234,-0.17745 0.12404,-0.20265 0.2168,-0.36133 z m 6.0957,6.17187 c -0.0412,0.0254 -0.0797,0.055 -0.12109,0.0801 -0.30946,0.18751 -1.25191,0.7268 -0.94141,0.54102 0.55731,-0.33347 0.68454,-0.40191 1.0625,-0.6211 z m -25.91601,41.65821 -0.0606,0.0254 c -0.0105,0.7187 -0.56537,1.77456 -0.60547,2.63086 -0.032,0.68286 -0.0417,2.77063 -0.0469,5.13867 a 70.866135,70.866142 0 0 0 1.60546,0.41016 c -0.22269,-2.81216 -0.55273,-5.5618 -0.89257,-8.20508 z"
         style="color:#000000;clip-rule:nonzero;display:inline;overflow:visible;visibility:visible;opacity:1;isolation:auto;mix-blend-mode:normal;color-interpolation:sRGB;color-interpolation-filters:linearRGB;solid-color:#000000;solid-opacity:1;fill:#000000;fill-opacity:1;fill-rule:nonzero;stroke:none;stroke-width:1;stroke-linecap:butt;stroke-linejoin:miter;stroke-miterlimit:4;stroke-dasharray:none;stroke-dashoffset:0;stroke-opacity:1;color-rendering:auto;image-rendering:auto;shape-rendering:auto;text-rendering:auto;enable-background:accumulate" />
    </g>
    <text
       xml:space="preserve"
       style="font-style:normal;font-variant:normal;font-weight:500;font-stretch:normal;font-size:30px;line-height:125%;font-family:'CMU Serif';-inkscape-font-specification:'CMU Serif, Medium';text-align:start;letter-spacing:0px;word-spacing:0px;writing-mode:lr-tb;text-anchor:start;fill:#000000;fill-opacity:1;stroke:none;stroke-width:1px;stroke-linecap:butt;stroke-linejoin:miter;stroke-opacity:1"
       x="850.39368"
       y="839.76379"
       id="text5560"
       sodipodi:linespacing="125%"><tspan
         sodipodi:role="line"
         id="tspan5562"
         x="850.39368"
         y="839.76379" /></text>
  </g>
</svg>
